<svg version="1.1" id="Layer_1" xmlns="http://www.w3.org/2000/svg" xmlns:xlink="http://www.w3.org/1999/xlink" x="0px" y="0px"
	 width="100%" viewBox="0 0 1920 1080" enable-background="new 0 0 1920 1080" xml:space="preserve">
<path fill="#FFFFFF" opacity="1.000000" stroke="none" 
	d="
M1250.000000,1081.000000 
	C833.333435,1081.000000 417.166809,1081.000000 1.000168,1081.000000 
	C1.000112,721.000122 1.000112,361.000275 1.000056,1.000313 
	C640.999756,1.000208 1280.999512,1.000208 1920.999512,1.000104 
	C1920.999634,360.999664 1920.999634,720.999329 1920.999756,1080.999512 
	C1697.500000,1081.000000 1474.000000,1081.000000 1250.000000,1081.000000 
M1209.500000,706.837036 
	C1285.932251,706.837036 1362.364502,706.837036 1438.810059,706.837036 
	C1438.810059,595.915405 1438.810059,485.550049 1438.810059,375.239075 
	C1120.421997,375.239075 802.372314,375.239075 484.332825,375.239075 
	C484.332825,485.849670 484.332825,596.219666 484.332825,706.837036 
	C725.944580,706.837036 967.222290,706.837036 1209.500000,706.837036 
z"/>
<path fill="#0E0E0E" opacity="1.000000" stroke="none" 
	d="
M1209.000000,706.837036 
	C967.222290,706.837036 725.944580,706.837036 484.332825,706.837036 
	C484.332825,596.219666 484.332825,485.849670 484.332825,375.239075 
	C802.372314,375.239075 1120.421997,375.239075 1438.810059,375.239075 
	C1438.810059,485.550049 1438.810059,595.915405 1438.810059,706.837036 
	C1362.364502,706.837036 1285.932251,706.837036 1209.000000,706.837036 
M873.398315,604.000549 
	C875.173401,604.000549 876.948486,604.000549 879.388672,604.000549 
	C879.388672,573.353333 879.388672,543.231750 879.388672,513.110168 
	C879.821350,512.958801 880.254089,512.807373 880.686768,512.656006 
	C881.772644,514.145020 882.962952,515.569519 883.928894,517.132629 
	C901.068359,544.868713 918.170959,572.627502 935.328003,600.352661 
	C936.153748,601.687073 937.372986,603.755981 938.465454,603.792419 
	C947.027588,604.078186 955.603577,603.950745 963.975830,603.950745 
	C963.975830,559.487671 963.975830,515.742554 963.975830,472.014587 
	C955.590637,472.014587 947.533630,472.014587 938.751709,472.014587 
	C938.751709,500.487976 938.751709,528.614563 938.751709,556.741150 
	C938.309143,556.881836 937.866577,557.022522 937.424011,557.163208 
	C936.329773,555.643311 935.144043,554.180481 934.154968,552.595032 
	C918.129395,526.907959 902.149841,501.192078 886.069458,475.539398 
	C885.108826,474.006927 883.423279,471.897369 882.010742,471.846741 
	C872.751404,471.514740 863.474304,471.675659 854.136108,471.675659 
	C854.136108,516.064026 854.136108,559.916748 854.136108,604.000549 
	C860.462097,604.000549 866.442200,604.000549 873.398315,604.000549 
M523.971008,569.500000 
	C523.971008,580.924805 523.971008,592.349609 523.971008,603.768677 
	C554.014465,603.768677 583.438354,603.768677 612.959351,603.768677 
	C612.959351,596.483032 612.959351,589.435120 612.959351,581.947754 
	C591.920959,581.947754 571.181458,581.947754 550.336182,581.947754 
	C550.336182,569.767456 550.336182,558.031921 550.336182,545.805908 
	C568.322449,545.805908 586.052856,545.805908 603.877930,545.805908 
	C603.877930,538.531494 603.877930,531.750793 603.877930,524.430176 
	C585.966248,524.430176 568.231689,524.430176 550.455933,524.430176 
	C550.455933,513.850403 550.455933,503.816559 550.455933,493.367157 
	C571.110168,493.367157 591.385254,493.367157 611.765930,493.367157 
	C611.765930,485.994141 611.765930,479.045563 611.765930,471.866089 
	C582.481506,471.866089 553.383606,471.866089 523.971008,471.866089 
	C523.971008,504.223175 523.971008,536.361572 523.971008,569.500000 
M717.032654,527.577759 
	C719.916077,519.891052 722.799438,512.204346 725.796997,504.213196 
	C716.803894,504.213196 708.661987,504.213196 700.365906,504.213196 
	C692.221069,527.478088 684.107544,550.653748 675.993958,573.829407 
	C675.442627,573.772156 674.891296,573.714966 674.339966,573.657776 
	C673.597229,571.901978 672.765625,570.177979 672.125488,568.385559 
	C664.975159,548.362244 657.904297,528.310242 650.634521,508.330505 
	C650.028931,506.666138 648.193237,504.316925 646.829773,504.247925 
	C639.062927,503.854706 631.265930,504.057251 623.080017,504.057251 
	C623.778137,506.020996 624.291077,507.571411 624.876221,509.094116 
	C636.972412,540.571411 649.083252,572.043152 661.159790,603.528015 
	C661.737122,605.032959 662.518188,606.699097 662.364685,608.204529 
	C661.617432,615.530457 654.399475,623.350342 646.976074,623.863098 
	C640.501526,624.310242 633.934143,623.412720 626.679321,623.075439 
	C625.493652,629.010437 624.144043,635.766113 622.818237,642.402405 
	C639.357666,650.962646 662.722229,646.707153 673.649109,632.551025 
	C678.345520,626.466614 682.061584,619.331116 684.884827,612.147217 
	C695.820923,584.320007 706.218445,556.281128 717.032654,527.577759 
M1069.274414,574.108337 
	C1066.106201,571.525024 1063.883667,570.952698 1061.068604,575.302124 
	C1055.376831,584.096436 1042.924438,587.021729 1031.425537,583.142151 
	C1021.976196,579.953918 1016.567566,571.455444 1016.845032,559.809875 
	C1018.634827,559.809875 1020.443970,559.809875 1022.253174,559.809875 
	C1037.570679,559.809814 1052.888306,559.809814 1068.205811,559.809814 
	C1083.267212,559.809814 1083.267334,559.809814 1082.917236,544.397278 
	C1082.342651,519.103882 1069.808838,505.283508 1044.831543,502.401733 
	C1019.145935,499.438293 997.806091,513.654419 992.552673,538.151428 
	C990.869995,545.997864 990.719910,554.393250 991.240295,562.448914 
	C992.573059,583.079590 1004.376099,598.014099 1022.865479,603.433777 
	C1034.114136,606.731018 1045.539185,606.997192 1056.876099,603.938477 
	C1068.596558,600.776367 1076.666382,593.246399 1082.079956,582.372742 
	C1077.711182,579.561707 1073.801758,577.046265 1069.274414,574.108337 
M827.518005,583.998657 
	C826.918945,582.898071 826.589600,581.420837 825.672607,580.764099 
	C822.294189,578.344543 818.600769,576.360413 815.255615,573.900024 
	C812.010315,571.513062 810.048767,571.145508 807.430847,575.202759 
	C801.756958,583.995850 789.316528,587.017029 777.792847,583.176697 
	C768.234558,579.991333 762.755920,571.464539 763.096924,559.809998 
	C764.701416,559.809998 766.335144,559.809998 767.968872,559.809998 
	C783.301147,559.809998 798.633423,559.809998 813.965698,559.809998 
	C829.344849,559.809998 829.344910,559.809998 829.060974,544.375000 
	C828.594421,519.014832 816.086792,505.213989 791.004639,502.383820 
	C766.524597,499.621582 745.431580,512.812012 739.493164,535.402039 
	C737.617798,542.535889 737.049500,550.217102 737.150818,557.630493 
	C737.527954,585.221436 752.777405,602.376709 780.094971,605.495117 
	C800.699463,607.847168 817.325500,602.272705 827.518005,583.998657 
M1402.627930,595.117920 
	C1417.950439,577.899597 1412.188843,554.588440 1390.638916,546.872253 
	C1387.212646,545.645447 1383.631226,544.837830 1380.098877,543.924255 
	C1374.473267,542.469421 1368.740112,541.363525 1363.221436,539.585327 
	C1359.121460,538.264160 1356.588257,535.247986 1356.940186,530.507690 
	C1357.279663,525.938293 1360.160156,523.759277 1364.232422,522.864380 
	C1374.048096,520.707275 1383.148315,522.035400 1390.708984,529.153870 
	C1392.911987,531.228027 1394.312622,531.445129 1396.359741,529.067383 
	C1400.028320,524.806335 1403.943237,520.757324 1408.331177,515.994568 
	C1404.451660,513.099182 1401.180786,509.891724 1397.289551,507.890900 
	C1382.889526,500.486694 1367.791382,500.316864 1352.753540,505.459229 
	C1340.342529,509.703217 1333.425415,519.836548 1333.297729,532.283447 
	C1333.172119,544.521423 1339.423096,553.549561 1351.773804,558.645020 
	C1354.986572,559.970459 1358.357544,560.956543 1361.717407,561.872192 
	C1367.484741,563.444092 1373.387207,564.568298 1379.069092,566.391113 
	C1383.690674,567.873901 1386.721558,571.025024 1386.228760,576.455322 
	C1385.813232,581.034241 1382.776611,584.147156 1377.304810,585.013184 
	C1366.053589,586.794067 1356.188965,583.963867 1348.164185,575.666321 
	C1346.924927,574.384827 1346.082886,572.719177 1344.655029,570.648010 
	C1338.851685,576.925293 1334.067383,582.100464 1328.453857,588.172363 
	C1333.088989,592.011963 1336.898438,596.035461 1341.475342,598.778076 
	C1350.998047,604.484497 1361.712891,606.158020 1372.685425,605.883179 
	C1383.545776,605.611145 1393.833740,603.420959 1402.627930,595.117920 
M1247.399902,595.121887 
	C1263.545532,607.328430 1281.326172,609.052368 1299.810913,602.154846 
	C1311.179321,597.912720 1318.009644,588.900208 1321.478149,577.143372 
	C1316.385132,574.322205 1311.630127,571.922913 1307.127075,569.119202 
	C1303.569458,566.904175 1301.963379,567.347107 1300.258179,571.476257 
	C1296.479492,580.626221 1288.416748,585.227417 1278.794922,584.620117 
	C1268.384277,583.963074 1260.822266,579.013550 1258.824219,568.947937 
	C1257.142944,560.479126 1257.012451,551.441895 1257.821899,542.808777 
	C1258.726318,533.164185 1264.210938,525.999207 1274.418579,524.046997 
	C1286.031860,521.825867 1293.488892,525.156494 1299.729614,535.231079 
	C1301.201782,537.607422 1302.361572,537.789368 1304.420654,536.286987 
	C1309.513306,532.571228 1314.659058,528.928284 1319.923462,525.155701 
	C1316.764526,516.772339 1311.361328,510.805542 1303.560059,506.977081 
	C1271.886475,491.433228 1236.629272,509.124847 1231.539062,543.785583 
	C1228.754028,562.750244 1231.640869,580.757385 1247.399902,595.121887 
M1160.207275,583.285950 
	C1159.660645,580.117310 1158.209229,579.527649 1155.369629,581.192993 
	C1153.552979,582.258484 1151.411377,582.920044 1149.330200,583.358093 
	C1140.970703,585.117859 1134.375000,581.589844 1134.147339,574.156189 
	C1133.639648,557.579590 1133.988647,540.976746 1133.988647,523.821655 
	C1143.322754,523.821655 1152.545776,523.821655 1161.729004,523.821655 
	C1161.729004,516.985229 1161.729004,510.715485 1161.729004,503.928406 
	C1152.283569,503.928406 1143.044189,503.928406 1133.418945,503.928406 
	C1133.418945,495.974945 1133.418945,488.541077 1133.418945,480.567139 
	C1125.422729,481.819519 1117.876099,482.882263 1110.404297,484.330627 
	C1109.523193,484.501404 1108.540649,486.766785 1108.482422,488.099548 
	C1108.258545,493.222778 1108.391602,498.361603 1108.391602,504.082062 
	C1103.172729,504.082062 1098.280884,504.082062 1093.368408,504.082062 
	C1093.368408,510.938843 1093.368408,517.201111 1093.368408,524.057373 
	C1098.461548,524.057373 1103.345581,524.057373 1108.391235,524.057373 
	C1108.391235,529.814209 1108.340454,534.974426 1108.401367,540.133362 
	C1108.552612,552.952087 1108.347534,565.793091 1109.068481,578.581055 
	C1109.618774,588.338745 1113.741699,596.922607 1122.820068,601.533264 
	C1136.018066,608.236084 1149.451172,607.364075 1162.635132,600.894043 
	C1165.265137,599.603455 1165.647461,597.922119 1164.519409,595.258179 
	C1162.968018,591.595154 1161.833984,587.755249 1160.207275,583.285950 
M1182.324341,508.747101 
	C1182.324341,540.432983 1182.324341,572.118835 1182.324341,603.850464 
	C1191.059570,603.850464 1199.018799,603.850464 1207.104736,603.850464 
	C1207.104736,570.549805 1207.104736,537.407043 1207.104736,504.052582 
	C1199.733643,504.052582 1192.749146,504.200134 1185.775757,503.984711 
	C1182.707153,503.889923 1181.994019,505.198273 1182.324341,508.747101 
M1208.936401,484.021179 
	C1209.362915,482.259583 1210.040405,480.516785 1210.173950,478.733246 
	C1210.886108,469.223846 1204.556885,462.777313 1194.705811,462.829132 
	C1185.168213,462.879303 1179.149780,469.273804 1179.746582,478.723053 
	C1180.142212,484.987732 1183.822021,489.609711 1189.876343,491.446442 
	C1197.128540,493.646606 1203.845215,491.233215 1208.936401,484.021179 
z"/>
<path fill="#D8D8D8" opacity="1.000000" stroke="none" 
	d="
M872.910278,604.000549 
	C866.442200,604.000549 860.462097,604.000549 854.136108,604.000549 
	C854.136108,559.916748 854.136108,516.064026 854.136108,471.675659 
	C863.474304,471.675659 872.751404,471.514740 882.010742,471.846741 
	C883.423279,471.897369 885.108826,474.006927 886.069458,475.539398 
	C902.149841,501.192078 918.129395,526.907959 934.154968,552.595032 
	C935.144043,554.180481 936.329773,555.643311 937.424011,557.163208 
	C937.866577,557.022522 938.309143,556.881836 938.751709,556.741150 
	C938.751709,528.614563 938.751709,500.487976 938.751709,472.014587 
	C947.533630,472.014587 955.590637,472.014587 963.975830,472.014587 
	C963.975830,515.742554 963.975830,559.487671 963.975830,603.950745 
	C955.603577,603.950745 947.027588,604.078186 938.465454,603.792419 
	C937.372986,603.755981 936.153748,601.687073 935.328003,600.352661 
	C918.170959,572.627502 901.068359,544.868713 883.928894,517.132629 
	C882.962952,515.569519 881.772644,514.145020 880.686768,512.656006 
	C880.254089,512.807373 879.821350,512.958801 879.388672,513.110168 
	C879.388672,543.231750 879.388672,573.353333 879.388672,604.000549 
	C876.948486,604.000549 875.173401,604.000549 872.910278,604.000549 
z"/>
<path fill="#D7D7D7" opacity="1.000000" stroke="none" 
	d="
M523.971008,569.000000 
	C523.971008,536.361572 523.971008,504.223175 523.971008,471.866089 
	C553.383606,471.866089 582.481506,471.866089 611.765930,471.866089 
	C611.765930,479.045563 611.765930,485.994141 611.765930,493.367157 
	C591.385254,493.367157 571.110168,493.367157 550.455933,493.367157 
	C550.455933,503.816559 550.455933,513.850403 550.455933,524.430176 
	C568.231689,524.430176 585.966248,524.430176 603.877930,524.430176 
	C603.877930,531.750793 603.877930,538.531494 603.877930,545.805908 
	C586.052856,545.805908 568.322449,545.805908 550.336182,545.805908 
	C550.336182,558.031921 550.336182,569.767456 550.336182,581.947754 
	C571.181458,581.947754 591.920959,581.947754 612.959351,581.947754 
	C612.959351,589.435120 612.959351,596.483032 612.959351,603.768677 
	C583.438354,603.768677 554.014465,603.768677 523.971008,603.768677 
	C523.971008,592.349609 523.971008,580.924805 523.971008,569.000000 
z"/>
<path fill="#D7D7D7" opacity="1.000000" stroke="none" 
	d="
M716.924561,527.949463 
	C706.218445,556.281128 695.820923,584.320007 684.884827,612.147217 
	C682.061584,619.331116 678.345520,626.466614 673.649109,632.551025 
	C662.722229,646.707153 639.357666,650.962646 622.818237,642.402405 
	C624.144043,635.766113 625.493652,629.010437 626.679321,623.075439 
	C633.934143,623.412720 640.501526,624.310242 646.976074,623.863098 
	C654.399475,623.350342 661.617432,615.530457 662.364685,608.204529 
	C662.518188,606.699097 661.737122,605.032959 661.159790,603.528015 
	C649.083252,572.043152 636.972412,540.571411 624.876221,509.094116 
	C624.291077,507.571411 623.778137,506.020996 623.080017,504.057251 
	C631.265930,504.057251 639.062927,503.854706 646.829773,504.247925 
	C648.193237,504.316925 650.028931,506.666138 650.634521,508.330505 
	C657.904297,528.310242 664.975159,548.362244 672.125488,568.385559 
	C672.765625,570.177979 673.597229,571.901978 674.339966,573.657776 
	C674.891296,573.714966 675.442627,573.772156 675.993958,573.829407 
	C684.107544,550.653748 692.221069,527.478088 700.365906,504.213196 
	C708.661987,504.213196 716.803894,504.213196 725.796997,504.213196 
	C722.799438,512.204346 719.916077,519.891052 716.924561,527.949463 
z"/>
<path fill="#D6D6D6" opacity="1.000000" stroke="none" 
	d="
M1069.583374,574.319580 
	C1073.801758,577.046265 1077.711182,579.561707 1082.079956,582.372742 
	C1076.666382,593.246399 1068.596558,600.776367 1056.876099,603.938477 
	C1045.539185,606.997192 1034.114136,606.731018 1022.865479,603.433777 
	C1004.376099,598.014099 992.573059,583.079590 991.240295,562.448914 
	C990.719910,554.393250 990.869995,545.997864 992.552673,538.151428 
	C997.806091,513.654419 1019.145935,499.438293 1044.831543,502.401733 
	C1069.808838,505.283508 1082.342651,519.103882 1082.917236,544.397278 
	C1083.267334,559.809814 1083.267212,559.809814 1068.205811,559.809814 
	C1052.888306,559.809814 1037.570679,559.809814 1022.253174,559.809875 
	C1020.443970,559.809875 1018.634827,559.809875 1016.845032,559.809875 
	C1016.567566,571.455444 1021.976196,579.953918 1031.425537,583.142151 
	C1042.924438,587.021729 1055.376831,584.096436 1061.068604,575.302124 
	C1063.883667,570.952698 1066.106201,571.525024 1069.583374,574.319580 
M1017.711060,539.257507 
	C1017.493164,540.584839 1017.275208,541.912109 1017.043457,543.323486 
	C1031.345581,543.323486 1044.953857,543.323486 1058.546387,543.323486 
	C1059.325317,530.415710 1052.685059,522.354614 1041.023438,521.814148 
	C1028.586670,521.237732 1021.802368,526.126587 1017.711060,539.257507 
z"/>
<path fill="#D6D6D6" opacity="1.000000" stroke="none" 
	d="
M827.331177,584.315247 
	C817.325500,602.272705 800.699463,607.847168 780.094971,605.495117 
	C752.777405,602.376709 737.527954,585.221436 737.150818,557.630493 
	C737.049500,550.217102 737.617798,542.535889 739.493164,535.402039 
	C745.431580,512.812012 766.524597,499.621582 791.004639,502.383820 
	C816.086792,505.213989 828.594421,519.014832 829.060974,544.375000 
	C829.344910,559.809998 829.344849,559.809998 813.965698,559.809998 
	C798.633423,559.809998 783.301147,559.809998 767.968872,559.809998 
	C766.335144,559.809998 764.701416,559.809998 763.096924,559.809998 
	C762.755920,571.464539 768.234558,579.991333 777.792847,583.176697 
	C789.316528,587.017029 801.756958,583.995850 807.430847,575.202759 
	C810.048767,571.145508 812.010315,571.513062 815.255615,573.900024 
	C818.600769,576.360413 822.294189,578.344543 825.672607,580.764099 
	C826.589600,581.420837 826.918945,582.898071 827.331177,584.315247 
M804.533203,537.164307 
	C801.652588,525.134644 794.899231,520.620972 781.757629,521.942200 
	C771.364136,522.987061 763.854248,531.810608 763.635315,543.225830 
	C777.349487,543.225830 791.063599,543.225830 805.091370,543.225830 
	C804.957642,541.254211 804.846680,539.618164 804.533203,537.164307 
z"/>
<path fill="#D6D6D6" opacity="1.000000" stroke="none" 
	d="
M1402.372070,595.370483 
	C1393.833740,603.420959 1383.545776,605.611145 1372.685425,605.883179 
	C1361.712891,606.158020 1350.998047,604.484497 1341.475342,598.778076 
	C1336.898438,596.035461 1333.088989,592.011963 1328.453857,588.172363 
	C1334.067383,582.100464 1338.851685,576.925293 1344.655029,570.648010 
	C1346.082886,572.719177 1346.924927,574.384827 1348.164185,575.666321 
	C1356.188965,583.963867 1366.053589,586.794067 1377.304810,585.013184 
	C1382.776611,584.147156 1385.813232,581.034241 1386.228760,576.455322 
	C1386.721558,571.025024 1383.690674,567.873901 1379.069092,566.391113 
	C1373.387207,564.568298 1367.484741,563.444092 1361.717407,561.872192 
	C1358.357544,560.956543 1354.986572,559.970459 1351.773804,558.645020 
	C1339.423096,553.549561 1333.172119,544.521423 1333.297729,532.283447 
	C1333.425415,519.836548 1340.342529,509.703217 1352.753540,505.459229 
	C1367.791382,500.316864 1382.889526,500.486694 1397.289551,507.890900 
	C1401.180786,509.891724 1404.451660,513.099182 1408.331177,515.994568 
	C1403.943237,520.757324 1400.028320,524.806335 1396.359741,529.067383 
	C1394.312622,531.445129 1392.911987,531.228027 1390.708984,529.153870 
	C1383.148315,522.035400 1374.048096,520.707275 1364.232422,522.864380 
	C1360.160156,523.759277 1357.279663,525.938293 1356.940186,530.507690 
	C1356.588257,535.247986 1359.121460,538.264160 1363.221436,539.585327 
	C1368.740112,541.363525 1374.473267,542.469421 1380.098877,543.924255 
	C1383.631226,544.837830 1387.212646,545.645447 1390.638916,546.872253 
	C1412.188843,554.588440 1417.950439,577.899597 1402.372070,595.370483 
z"/>
<path fill="#D7D7D7" opacity="1.000000" stroke="none" 
	d="
M1247.120117,594.900513 
	C1231.640869,580.757385 1228.754028,562.750244 1231.539062,543.785583 
	C1236.629272,509.124847 1271.886475,491.433228 1303.560059,506.977081 
	C1311.361328,510.805542 1316.764526,516.772339 1319.923462,525.155701 
	C1314.659058,528.928284 1309.513306,532.571228 1304.420654,536.286987 
	C1302.361572,537.789368 1301.201782,537.607422 1299.729614,535.231079 
	C1293.488892,525.156494 1286.031860,521.825867 1274.418579,524.046997 
	C1264.210938,525.999207 1258.726318,533.164185 1257.821899,542.808777 
	C1257.012451,551.441895 1257.142944,560.479126 1258.824219,568.947937 
	C1260.822266,579.013550 1268.384277,583.963074 1278.794922,584.620117 
	C1288.416748,585.227417 1296.479492,580.626221 1300.258179,571.476257 
	C1301.963379,567.347107 1303.569458,566.904175 1307.127075,569.119202 
	C1311.630127,571.922913 1316.385132,574.322205 1321.478149,577.143372 
	C1318.009644,588.900208 1311.179321,597.912720 1299.810913,602.154846 
	C1281.326172,609.052368 1263.545532,607.328430 1247.120117,594.900513 
z"/>
<path fill="#D5D5D5" opacity="1.000000" stroke="none" 
	d="
M1160.364258,583.638550 
	C1161.833984,587.755249 1162.968018,591.595154 1164.519409,595.258179 
	C1165.647461,597.922119 1165.265137,599.603455 1162.635132,600.894043 
	C1149.451172,607.364075 1136.018066,608.236084 1122.820068,601.533264 
	C1113.741699,596.922607 1109.618774,588.338745 1109.068481,578.581055 
	C1108.347534,565.793091 1108.552612,552.952087 1108.401367,540.133362 
	C1108.340454,534.974426 1108.391235,529.814209 1108.391235,524.057373 
	C1103.345581,524.057373 1098.461548,524.057373 1093.368408,524.057373 
	C1093.368408,517.201111 1093.368408,510.938843 1093.368408,504.082062 
	C1098.280884,504.082062 1103.172729,504.082062 1108.391602,504.082062 
	C1108.391602,498.361603 1108.258545,493.222778 1108.482422,488.099548 
	C1108.540649,486.766785 1109.523193,484.501404 1110.404297,484.330627 
	C1117.876099,482.882263 1125.422729,481.819519 1133.418945,480.567139 
	C1133.418945,488.541077 1133.418945,495.974945 1133.418945,503.928406 
	C1143.044189,503.928406 1152.283569,503.928406 1161.729004,503.928406 
	C1161.729004,510.715485 1161.729004,516.985229 1161.729004,523.821655 
	C1152.545776,523.821655 1143.322754,523.821655 1133.988647,523.821655 
	C1133.988647,540.976746 1133.639648,557.579590 1134.147339,574.156189 
	C1134.375000,581.589844 1140.970703,585.117859 1149.330200,583.358093 
	C1151.411377,582.920044 1153.552979,582.258484 1155.369629,581.192993 
	C1158.209229,579.527649 1159.660645,580.117310 1160.364258,583.638550 
z"/>
<path fill="#D5D5D5" opacity="1.000000" stroke="none" 
	d="
M1182.324463,508.278320 
	C1181.994019,505.198273 1182.707153,503.889923 1185.775757,503.984711 
	C1192.749146,504.200134 1199.733643,504.052582 1207.104736,504.052582 
	C1207.104736,537.407043 1207.104736,570.549805 1207.104736,603.850464 
	C1199.018799,603.850464 1191.059570,603.850464 1182.324341,603.850464 
	C1182.324341,572.118835 1182.324341,540.432983 1182.324463,508.278320 
z"/>
<path fill="#D6D6D6" opacity="1.000000" stroke="none" 
	d="
M1208.758667,484.373413 
	C1203.845215,491.233215 1197.128540,493.646606 1189.876343,491.446442 
	C1183.822021,489.609711 1180.142212,484.987732 1179.746582,478.723053 
	C1179.149780,469.273804 1185.168213,462.879303 1194.705811,462.829132 
	C1204.556885,462.777313 1210.886108,469.223846 1210.173950,478.733246 
	C1210.040405,480.516785 1209.362915,482.259583 1208.758667,484.373413 
z"/>
<path fill="#151515" opacity="1.000000" stroke="none" 
	d="
M1017.803589,538.868774 
	C1021.802368,526.126587 1028.586670,521.237732 1041.023438,521.814148 
	C1052.685059,522.354614 1059.325317,530.415710 1058.546387,543.323486 
	C1044.953857,543.323486 1031.345581,543.323486 1017.043457,543.323486 
	C1017.275208,541.912109 1017.493164,540.584839 1017.803589,538.868774 
z"/>
<path fill="#141414" opacity="1.000000" stroke="none" 
	d="
M804.634460,537.573242 
	C804.846680,539.618164 804.957642,541.254211 805.091370,543.225830 
	C791.063599,543.225830 777.349487,543.225830 763.634277,543.231323 
	C763.854248,531.810608 771.364136,522.987061 781.757629,521.942200 
	C794.899231,520.620972 801.652588,525.134644 804.634460,537.573242 
z"/>
</svg>