<svg version="1.1" id="Layer_1" xmlns="http://www.w3.org/2000/svg" xmlns:xlink="http://www.w3.org/1999/xlink" x="0px" y="0px"
	 width="100%" viewBox="0 0 500 500" enable-background="new 0 0 500 500" xml:space="preserve">
<path fill="#FFFFFF" opacity="1.000000" stroke="none" 
	d="
M501.000000,271.000000 
	C501.000000,347.631866 501.000000,424.263763 501.000000,500.947815 
	C334.443787,500.947815 167.887543,500.947815 1.000000,500.947815 
	C1.000000,424.645538 1.000000,348.290619 1.463153,271.544861 
	C167.122787,271.159668 332.319275,271.165619 497.515747,271.163818 
	C498.677155,271.163818 499.838593,271.056946 501.000000,271.000000 
z"/>
<path fill="#0E0E0E" opacity="1.000000" stroke="none" 
	d="
M501.000000,270.531342 
	C499.838593,271.056946 498.677155,271.163818 497.515747,271.163818 
	C332.319275,271.165619 167.122787,271.159668 1.463153,271.077026 
	C1.000000,213.312439 1.000000,155.624878 1.463527,97.543121 
	C167.123016,97.154312 332.318970,97.160027 497.514923,97.158234 
	C498.676605,97.158218 499.838318,97.055023 501.000000,97.000000 
	C501.000000,154.687561 501.000000,212.375122 501.000000,270.531342 
M218.919449,161.593201 
	C216.710770,158.068375 214.636688,154.447113 212.219177,151.071869 
	C211.391586,149.916428 209.746933,148.765945 208.400223,148.669876 
	C204.118896,148.364487 199.802078,148.556839 195.255829,148.556839 
	C195.255829,171.810196 195.255829,194.713104 195.255829,217.659241 
	C199.705170,217.659241 203.924057,217.659241 208.703918,217.659241 
	C208.703918,201.839813 208.703918,186.358856 208.703918,169.397263 
	C210.555496,172.187149 211.585236,173.649399 212.524338,175.167740 
	C220.663803,188.327408 228.735794,201.529419 236.987183,214.618408 
	C237.900452,216.067093 239.714111,217.649628 241.277313,217.847137 
	C245.008286,218.318573 248.839142,217.999237 252.775131,217.999237 
	C252.775131,194.669327 252.775131,171.766129 252.775131,148.835846 
	C248.430435,148.835846 244.356140,148.835846 239.801758,148.835846 
	C239.801758,163.649246 239.801758,178.185623 239.801758,192.722000 
	C239.413986,192.865189 239.026215,193.008377 238.638443,193.151566 
	C232.182312,182.844055 225.726181,172.536545 218.919449,161.593201 
M64.021927,186.131195 
	C64.021927,182.882126 64.021927,179.633041 64.021927,175.956543 
	C54.240215,175.956543 45.172398,175.956543 36.202538,175.956543 
	C36.202538,170.431046 36.202538,165.371292 36.202538,159.927460 
	C46.944866,159.927460 57.360462,159.927460 67.801575,159.927460 
	C67.801575,155.970322 67.801575,152.415192 67.801575,148.789886 
	C52.413883,148.789886 37.335533,148.789886 22.303928,148.789886 
	C22.303928,171.973358 22.303928,194.866287 22.303928,217.676270 
	C37.994965,217.676270 53.380703,217.676270 68.589233,217.676270 
	C68.589233,213.782684 68.589233,210.227875 68.589233,206.359375 
	C57.613609,206.359375 47.011234,206.359375 36.191925,206.359375 
	C36.191925,199.970886 36.191925,193.925156 36.191925,187.629684 
	C38.495377,187.629684 40.478794,187.673004 42.459778,187.621902 
	C49.565941,187.438629 56.671276,187.223419 64.021927,186.131195 
M123.285629,165.579926 
	C114.479965,165.579437 114.483551,165.580688 111.499771,174.104492 
	C110.401558,177.241760 109.271942,180.368042 108.174393,183.505539 
	C106.025414,189.648727 103.888878,195.796249 101.347778,203.088165 
	C100.474541,200.969421 100.077118,200.103882 99.756004,199.210907 
	C96.157417,189.203537 92.640877,179.165527 88.901054,169.211365 
	C88.370071,167.798065 86.878021,165.906952 85.643173,165.754272 
	C81.938049,165.296112 78.140015,165.589310 73.864609,165.589310 
	C80.490318,182.849182 86.856430,199.406235 93.200157,215.971878 
	C95.562813,222.141586 92.771103,227.410568 86.187836,228.384369 
	C83.012779,228.853989 79.671600,228.200592 75.822327,228.029816 
	C75.191032,231.285446 74.515244,234.770477 73.857956,238.160172 
	C87.798683,243.646667 99.211029,239.245636 104.939148,225.575439 
	C111.164490,210.718628 116.550209,195.509735 122.286766,180.448547 
	C124.086281,175.723984 125.836418,170.980637 127.757477,165.849731 
	C126.109856,165.725906 125.145218,165.653412 123.285629,165.579926 
M170.467422,166.743942 
	C158.150925,162.288422 145.721130,165.025345 139.096878,173.651413 
	C132.715454,181.961273 131.735474,197.858780 137.262207,207.338455 
	C143.298187,217.691605 153.179855,219.765564 164.017197,218.801666 
	C171.912338,218.099442 178.011398,214.296829 181.473297,206.536163 
	C178.287720,204.486389 175.408371,202.633652 172.599365,200.826172 
	C166.741806,207.509445 161.288925,209.345490 154.805023,206.913055 
	C149.430756,204.896866 147.705048,200.536331 147.354782,194.893143 
	C157.610718,194.893143 167.583023,194.975357 177.550934,194.803116 
	C179.019775,194.777756 181.440918,193.858658 181.772736,192.824203 
	C184.639603,183.886429 179.648178,172.103806 170.467422,166.743942 
M298.146942,207.037537 
	C287.274292,209.487595 281.203613,205.404739 280.572968,194.893204 
	C290.558868,194.893204 300.529480,194.973984 310.495880,194.805573 
	C311.981171,194.780472 314.418304,193.911240 314.767517,192.876526 
	C317.544617,184.646866 312.734894,172.050308 305.535309,167.788620 
	C290.524292,158.903061 270.948792,167.236984 267.455505,184.197235 
	C266.695526,187.886856 266.769806,191.825180 266.971069,195.621872 
	C267.646545,208.364258 275.180298,216.617462 287.719666,218.698044 
	C300.044403,220.743027 309.988495,216.280426 314.294189,206.454361 
	C311.371918,204.585068 308.395813,202.681351 305.888733,201.077652 
	C303.191467,203.300034 301.048157,205.066010 298.146942,207.037537 
M448.302979,204.931427 
	C447.009979,206.392792 445.717010,207.854141 444.492157,209.238464 
	C450.335205,217.530121 462.481384,221.068512 473.992065,218.112198 
	C482.282349,215.982971 486.964966,210.492249 487.096710,202.746078 
	C487.232513,194.760544 483.473938,189.915329 474.901215,187.409546 
	C471.242188,186.340027 467.273560,186.114944 463.822693,184.629944 
	C461.819336,183.767822 460.564514,181.166428 458.972839,179.347672 
	C460.934570,177.916153 462.993530,175.174927 464.838806,175.311920 
	C469.394104,175.650116 473.851379,177.308182 479.523987,178.730560 
	C480.796173,177.309845 483.144989,174.686798 485.458557,172.103088 
	C478.880890,165.215607 469.001465,162.848175 459.182343,165.457687 
	C451.210480,167.576279 446.703186,172.778488 446.505341,180.089218 
	C446.309784,187.315231 450.128967,192.343536 458.097046,194.948425 
	C461.718201,196.132202 465.475708,196.894333 469.157501,197.898575 
	C472.096222,198.700134 474.518036,200.091461 474.098389,203.687042 
	C473.674591,207.317978 470.890106,207.877838 467.914490,208.169296 
	C461.404236,208.806961 456.455444,205.831024 451.920593,200.786301 
	C450.721222,202.182068 449.758087,203.302933 448.302979,204.931427 
M408.678314,202.578812 
	C405.522522,196.637482 405.680267,190.378113 407.252838,184.128723 
	C408.543518,178.999588 412.571960,176.252060 417.853149,175.889603 
	C423.572052,175.497116 427.193085,178.420776 429.950104,183.477585 
	C433.301544,181.074478 436.348450,178.889740 439.388000,176.710281 
	C439.009308,175.729858 438.844299,175.076172 438.524872,174.509521 
	C433.795502,166.120224 422.256104,162.420319 410.714600,165.572739 
	C396.752594,169.386292 389.583710,183.855499 393.605103,200.105453 
	C397.077698,214.137848 410.095856,221.770218 424.821899,218.407440 
	C433.026642,216.533829 438.555573,211.163239 439.862152,203.558365 
	C436.792938,201.958084 433.649841,200.319290 430.538422,198.697006 
	C424.603027,209.130539 416.378387,210.688950 408.678314,202.578812 
M353.273926,217.987640 
	C359.419403,215.439117 359.570679,214.127335 354.640167,205.821121 
	C352.765228,206.273499 350.894348,206.918961 348.973969,207.146286 
	C345.406067,207.568604 342.257843,206.371170 342.111298,202.449997 
	C341.785492,193.731018 342.009705,184.991486 342.009705,175.890045 
	C347.084229,175.890045 351.676208,175.890045 356.338135,175.890045 
	C356.338135,172.296005 356.338135,169.094955 356.338135,165.427734 
	C351.415253,165.427734 346.836700,165.427734 341.639923,165.427734 
	C341.639923,161.122116 341.639923,157.266251 341.639923,153.165359 
	C336.922974,153.968399 332.880188,154.656662 328.416077,155.416656 
	C328.416077,158.745728 328.416077,161.841553 328.416077,165.168823 
	C325.583466,165.406555 323.188507,165.607544 320.878296,165.801437 
	C320.878296,169.416946 320.878296,172.621017 320.878296,175.858368 
	C323.543793,175.991470 325.823425,176.105316 328.454163,176.236694 
	C328.454163,181.646240 328.437042,186.768936 328.459961,191.891449 
	C328.476318,195.548325 328.334106,199.222275 328.630798,202.858582 
	C329.692871,215.877075 338.455627,221.450195 353.273926,217.987640 
M380.568451,206.471130 
	C380.568451,192.902252 380.568451,179.333359 380.568451,165.883484 
	C375.596710,165.883484 371.497192,165.883484 367.376770,165.883484 
	C367.376770,183.327362 367.376770,200.433182 367.376770,217.703384 
	C371.815582,217.703384 376.019196,217.703384 380.568298,217.703384 
	C380.568298,214.077484 380.568298,210.768295 380.568451,206.471130 
M381.880341,149.937363 
	C380.406219,145.163116 376.783203,142.983780 372.349060,144.268982 
	C369.865265,144.988937 367.068054,147.773361 366.206268,150.251511 
	C364.680389,154.639465 367.883240,158.543045 372.361237,159.156921 
	C378.108368,159.944748 381.452118,157.009369 381.880341,149.937363 
z"/>
<path fill="#FFFFFF" opacity="1.000000" stroke="none" 
	d="
M501.000000,96.531342 
	C499.838318,97.055023 498.676605,97.158218 497.514923,97.158234 
	C332.318970,97.160027 167.123016,97.154312 1.463527,97.074463 
	C1.000000,65.020241 1.000000,33.040485 1.000004,1.061030 
	C167.666672,1.061332 334.333344,1.061332 501.000000,1.061332 
	C501.000000,32.769337 501.000000,64.416008 501.000000,96.531342 
z"/>
<path fill="#D8D8D8" opacity="1.000000" stroke="none" 
	d="
M219.094742,161.911133 
	C225.726181,172.536545 232.182312,182.844055 238.638443,193.151566 
	C239.026215,193.008377 239.413986,192.865189 239.801758,192.722000 
	C239.801758,178.185623 239.801758,163.649246 239.801758,148.835846 
	C244.356140,148.835846 248.430435,148.835846 252.775131,148.835846 
	C252.775131,171.766129 252.775131,194.669327 252.775131,217.999237 
	C248.839142,217.999237 245.008286,218.318573 241.277313,217.847137 
	C239.714111,217.649628 237.900452,216.067093 236.987183,214.618408 
	C228.735794,201.529419 220.663803,188.327408 212.524338,175.167740 
	C211.585236,173.649399 210.555496,172.187149 208.703918,169.397263 
	C208.703918,186.358856 208.703918,201.839813 208.703918,217.659241 
	C203.924057,217.659241 199.705170,217.659241 195.255829,217.659241 
	C195.255829,194.713104 195.255829,171.810196 195.255829,148.556839 
	C199.802078,148.556839 204.118896,148.364487 208.400223,148.669876 
	C209.746933,148.765945 211.391586,149.916428 212.219177,151.071869 
	C214.636688,154.447113 216.710770,158.068375 219.094742,161.911133 
z"/>
<path fill="#D5D5D5" opacity="1.000000" stroke="none" 
	d="
M63.899426,186.575745 
	C56.671276,187.223419 49.565941,187.438629 42.459778,187.621902 
	C40.478794,187.673004 38.495377,187.629684 36.191925,187.629684 
	C36.191925,193.925156 36.191925,199.970886 36.191925,206.359375 
	C47.011234,206.359375 57.613609,206.359375 68.589233,206.359375 
	C68.589233,210.227875 68.589233,213.782684 68.589233,217.676270 
	C53.380703,217.676270 37.994965,217.676270 22.303928,217.676270 
	C22.303928,194.866287 22.303928,171.973358 22.303928,148.789886 
	C37.335533,148.789886 52.413883,148.789886 67.801575,148.789886 
	C67.801575,152.415192 67.801575,155.970322 67.801575,159.927460 
	C57.360462,159.927460 46.944866,159.927460 36.202538,159.927460 
	C36.202538,165.371292 36.202538,170.431046 36.202538,175.956543 
	C45.172398,175.956543 54.240215,175.956543 64.021927,175.956543 
	C64.021927,179.633041 64.021927,182.882126 63.899426,186.575745 
z"/>
<path fill="#D5D5D5" opacity="1.000000" stroke="none" 
	d="
M123.733101,165.580414 
	C125.145218,165.653412 126.109856,165.725906 127.757477,165.849731 
	C125.836418,170.980637 124.086281,175.723984 122.286766,180.448547 
	C116.550209,195.509735 111.164490,210.718628 104.939148,225.575439 
	C99.211029,239.245636 87.798683,243.646667 73.857956,238.160172 
	C74.515244,234.770477 75.191032,231.285446 75.822327,228.029816 
	C79.671600,228.200592 83.012779,228.853989 86.187836,228.384369 
	C92.771103,227.410568 95.562813,222.141586 93.200157,215.971878 
	C86.856430,199.406235 80.490318,182.849182 73.864609,165.589310 
	C78.140015,165.589310 81.938049,165.296112 85.643173,165.754272 
	C86.878021,165.906952 88.370071,167.798065 88.901054,169.211365 
	C92.640877,179.165527 96.157417,189.203537 99.756004,199.210907 
	C100.077118,200.103882 100.474541,200.969421 101.347778,203.088165 
	C103.888878,195.796249 106.025414,189.648727 108.174393,183.505539 
	C109.271942,180.368042 110.401558,177.241760 111.499771,174.104492 
	C114.483551,165.580688 114.479965,165.579437 123.733101,165.580414 
z"/>
<path fill="#D4D4D4" opacity="1.000000" stroke="none" 
	d="
M170.827972,166.883163 
	C179.648178,172.103806 184.639603,183.886429 181.772736,192.824203 
	C181.440918,193.858658 179.019775,194.777756 177.550934,194.803116 
	C167.583023,194.975357 157.610718,194.893143 147.354782,194.893143 
	C147.705048,200.536331 149.430756,204.896866 154.805023,206.913055 
	C161.288925,209.345490 166.741806,207.509445 172.599365,200.826172 
	C175.408371,202.633652 178.287720,204.486389 181.473297,206.536163 
	C178.011398,214.296829 171.912338,218.099442 164.017197,218.801666 
	C153.179855,219.765564 143.298187,217.691605 137.262207,207.338455 
	C131.735474,197.858780 132.715454,181.961273 139.096878,173.651413 
	C145.721130,165.025345 158.150925,162.288422 170.827972,166.883163 
M149.367310,180.202805 
	C148.784027,182.014526 148.200745,183.826263 147.521408,185.936325 
	C155.080460,185.936325 161.996231,185.936325 169.035294,185.936325 
	C169.320679,181.189468 168.019440,177.546539 163.537415,175.680557 
	C158.627380,173.636368 153.881485,175.018600 149.367310,180.202805 
z"/>
<path fill="#D4D4D4" opacity="1.000000" stroke="none" 
	d="
M298.525879,206.934769 
	C301.048157,205.066010 303.191467,203.300034 305.888733,201.077652 
	C308.395813,202.681351 311.371918,204.585068 314.294189,206.454361 
	C309.988495,216.280426 300.044403,220.743027 287.719666,218.698044 
	C275.180298,216.617462 267.646545,208.364258 266.971069,195.621872 
	C266.769806,191.825180 266.695526,187.886856 267.455505,184.197235 
	C270.948792,167.236984 290.524292,158.903061 305.535309,167.788620 
	C312.734894,172.050308 317.544617,184.646866 314.767517,192.876526 
	C314.418304,193.911240 311.981171,194.780472 310.495880,194.805573 
	C300.529480,194.973984 290.558868,194.893204 280.572968,194.893204 
	C281.203613,205.404739 287.274292,209.487595 298.525879,206.934769 
M290.775085,174.974060 
	C283.937164,176.434143 281.219269,179.537445 281.255402,186.156281 
	C287.367737,186.156281 293.484711,186.167557 299.601471,186.142532 
	C300.399475,186.139282 301.196686,185.949402 301.972626,185.848770 
	C301.940186,178.127731 299.269043,175.366699 290.775085,174.974060 
z"/>
<path fill="#D4D4D4" opacity="1.000000" stroke="none" 
	d="
M448.548981,204.677612 
	C449.758087,203.302933 450.721222,202.182068 451.920593,200.786301 
	C456.455444,205.831024 461.404236,208.806961 467.914490,208.169296 
	C470.890106,207.877838 473.674591,207.317978 474.098389,203.687042 
	C474.518036,200.091461 472.096222,198.700134 469.157501,197.898575 
	C465.475708,196.894333 461.718201,196.132202 458.097046,194.948425 
	C450.128967,192.343536 446.309784,187.315231 446.505341,180.089218 
	C446.703186,172.778488 451.210480,167.576279 459.182343,165.457687 
	C469.001465,162.848175 478.880890,165.215607 485.458557,172.103088 
	C483.144989,174.686798 480.796173,177.309845 479.523987,178.730560 
	C473.851379,177.308182 469.394104,175.650116 464.838806,175.311920 
	C462.993530,175.174927 460.934570,177.916153 458.972839,179.347687 
	C460.564514,181.166428 461.819336,183.767822 463.822693,184.629944 
	C467.273560,186.114944 471.242188,186.340027 474.901215,187.409546 
	C483.473938,189.915329 487.232513,194.760544 487.096710,202.746078 
	C486.964966,210.492249 482.282349,215.982971 473.992065,218.112198 
	C462.481384,221.068512 450.335205,217.530121 444.492157,209.238464 
	C445.717010,207.854141 447.009979,206.392792 448.548981,204.677612 
z"/>
<path fill="#D5D5D5" opacity="1.000000" stroke="none" 
	d="
M408.876221,202.909332 
	C416.378387,210.688950 424.603027,209.130539 430.538422,198.697006 
	C433.649841,200.319290 436.792938,201.958084 439.862152,203.558365 
	C438.555573,211.163239 433.026642,216.533829 424.821899,218.407440 
	C410.095856,221.770218 397.077698,214.137848 393.605103,200.105453 
	C389.583710,183.855499 396.752594,169.386292 410.714600,165.572739 
	C422.256104,162.420319 433.795502,166.120224 438.524872,174.509521 
	C438.844299,175.076172 439.009308,175.729858 439.388000,176.710281 
	C436.348450,178.889740 433.301544,181.074478 429.950104,183.477585 
	C427.193085,178.420776 423.572052,175.497116 417.853149,175.889603 
	C412.571960,176.252060 408.543518,178.999588 407.252838,184.128723 
	C405.680267,190.378113 405.522522,196.637482 408.876221,202.909332 
z"/>
<path fill="#D2D2D2" opacity="1.000000" stroke="none" 
	d="
M352.858765,218.067627 
	C338.455627,221.450195 329.692871,215.877075 328.630798,202.858582 
	C328.334106,199.222275 328.476318,195.548325 328.459961,191.891449 
	C328.437042,186.768936 328.454163,181.646240 328.454163,176.236694 
	C325.823425,176.105316 323.543793,175.991470 320.878296,175.858368 
	C320.878296,172.621017 320.878296,169.416946 320.878296,165.801437 
	C323.188507,165.607544 325.583466,165.406555 328.416077,165.168823 
	C328.416077,161.841553 328.416077,158.745728 328.416077,155.416656 
	C332.880188,154.656662 336.922974,153.968399 341.639923,153.165359 
	C341.639923,157.266251 341.639923,161.122116 341.639923,165.427734 
	C346.836700,165.427734 351.415253,165.427734 356.338135,165.427734 
	C356.338135,169.094955 356.338135,172.296005 356.338135,175.890045 
	C351.676208,175.890045 347.084229,175.890045 342.009705,175.890045 
	C342.009705,184.991486 341.785492,193.731018 342.111298,202.449997 
	C342.257843,206.371170 345.406067,207.568604 348.973969,207.146286 
	C350.894348,206.918961 352.765228,206.273499 354.640167,205.821121 
	C359.570679,214.127335 359.419403,215.439117 352.858765,218.067627 
z"/>
<path fill="#CECECE" opacity="1.000000" stroke="none" 
	d="
M380.568359,206.965118 
	C380.568298,210.768295 380.568298,214.077484 380.568298,217.703384 
	C376.019196,217.703384 371.815582,217.703384 367.376770,217.703384 
	C367.376770,200.433182 367.376770,183.327362 367.376770,165.883484 
	C371.497192,165.883484 375.596710,165.883484 380.568451,165.883484 
	C380.568451,179.333359 380.568451,192.902252 380.568359,206.965118 
z"/>
<path fill="#D4D4D4" opacity="1.000000" stroke="none" 
	d="
M381.922272,150.332077 
	C381.452118,157.009369 378.108368,159.944748 372.361237,159.156921 
	C367.883240,158.543045 364.680389,154.639465 366.206268,150.251511 
	C367.068054,147.773361 369.865265,144.988937 372.349060,144.268982 
	C376.783203,142.983780 380.406219,145.163116 381.922272,150.332077 
z"/>
<path fill="#101010" opacity="1.000000" stroke="none" 
	d="
M149.596481,179.882446 
	C153.881485,175.018600 158.627380,173.636368 163.537415,175.680557 
	C168.019440,177.546539 169.320679,181.189468 169.035294,185.936325 
	C161.996231,185.936325 155.080460,185.936325 147.521408,185.936325 
	C148.200745,183.826263 148.784027,182.014526 149.596481,179.882446 
z"/>
<path fill="#101010" opacity="1.000000" stroke="none" 
	d="
M291.186951,174.958649 
	C299.269043,175.366699 301.940186,178.127731 301.972626,185.848770 
	C301.196686,185.949402 300.399475,186.139282 299.601471,186.142532 
	C293.484711,186.167557 287.367737,186.156281 281.255402,186.156281 
	C281.219269,179.537445 283.937164,176.434143 291.186951,174.958649 
z"/>
</svg>