<?xml version="1.0" standalone="no"?>
<!DOCTYPE svg PUBLIC "-//W3C//DTD SVG 20010904//EN"
 "http://www.w3.org/TR/2001/REC-SVG-20010904/DTD/svg10.dtd">
<svg version="1.0" xmlns="http://www.w3.org/2000/svg"
 width="436.000000pt" height="154.000000pt" viewBox="0 0 436.000000 154.000000"
 preserveAspectRatio="xMidYMid meet">

<g transform="translate(0.000000,154.000000) scale(0.100000,-0.100000)"
fill="#000000" stroke="none">
<path d="M0 770 l0 -770 2180 0 2180 0 0 770 0 770 -2180 0 -2180 0 0 -770z
m3047 234 c15 -24 15 -29 2 -53 -28 -50 -119 -33 -119 22 0 57 85 79 117 31z
m-2107 -49 l0 -45 -85 0 -85 0 0 -50 0 -50 80 0 80 0 0 -45 0 -45 -80 0 -80 0
0 -55 0 -55 90 0 90 0 0 -45 0 -45 -145 0 -145 0 0 240 0 240 140 0 140 0 0
-45z m1050 -115 l105 -161 3 161 2 160 50 0 50 0 0 -240 0 -240 -57 1 -58 0
-105 162 -105 161 -3 -162 -2 -162 -55 0 -55 0 0 240 0 240 63 0 62 0 105
-160z m820 80 l0 -50 35 0 c34 0 35 -1 35 -40 0 -39 -1 -40 -35 -40 l-35 0 0
-90 c0 -78 2 -91 19 -100 11 -5 27 -7 36 -4 14 6 16 0 13 -37 l-3 -44 -58 -3
c-52 -3 -60 0 -87 27 -30 29 -30 31 -30 140 l0 111 -30 0 c-28 0 -30 2 -30 40
0 38 2 40 30 40 28 0 30 2 30 39 0 37 2 39 43 48 68 17 67 18 67 -37z m-1190
-62 c46 -32 70 -82 70 -145 l0 -53 -110 0 c-119 0 -132 -8 -90 -50 22 -22 99
-28 144 -10 25 9 26 8 26 -29 0 -36 -3 -40 -36 -51 -53 -18 -158 -9 -191 16
-51 38 -67 70 -71 142 -4 84 24 145 84 179 53 31 129 31 174 1z m910 3 c47
-25 71 -69 77 -141 l6 -60 -112 0 c-121 0 -134 -7 -90 -51 18 -18 30 -21 78
-17 31 3 64 9 74 13 14 6 17 1 17 -33 0 -36 -3 -41 -31 -51 -55 -19 -149 -13
-193 12 -59 33 -78 76 -74 168 3 64 7 81 30 111 50 66 146 88 218 49z m854 13
c12 -4 16 -20 16 -55 l0 -48 -36 15 c-73 30 -134 -11 -134 -91 0 -80 61 -121
134 -91 l36 15 0 -45 c0 -39 -3 -46 -27 -55 -44 -17 -148 -7 -180 17 -53 40
-73 81 -73 152 0 122 70 192 192 192 31 0 63 -3 72 -6z m284 0 c18 -5 22 -13
22 -50 l0 -43 -43 15 c-33 11 -51 12 -71 4 -41 -15 -29 -41 29 -63 64 -23 105
-66 105 -111 0 -41 -32 -84 -76 -102 -39 -16 -131 -18 -168 -4 -22 8 -26 16
-26 51 0 32 3 40 14 36 51 -20 96 -26 119 -18 54 21 43 42 -36 71 -70 26 -101
66 -93 119 10 63 65 100 151 100 28 1 60 -2 73 -5z m-2558 -76 c12 -40 26 -91
32 -113 6 -22 14 -43 17 -47 4 -4 22 46 41 112 l34 120 53 0 c29 0 53 -4 53
-8 0 -12 -145 -404 -159 -429 -5 -11 -26 -34 -46 -52 -31 -27 -43 -31 -90 -31
l-55 0 0 45 c0 43 1 45 25 39 32 -8 67 14 81 53 9 25 3 47 -53 188 -35 88 -66
168 -69 178 -5 15 2 17 55 17 l60 0 21 -72z m1940 -103 l0 -175 -55 0 -55 0 0
175 0 175 55 0 55 0 0 -175z"/>
<path d="M1495 785 c-42 -41 -34 -55 35 -55 53 0 60 2 60 20 0 24 -34 60 -55
60 -9 0 -27 -11 -40 -25z"/>
<path d="M2417 790 c-15 -12 -27 -30 -27 -41 0 -17 7 -19 60 -19 33 0 60 4 60
10 0 15 -23 60 -31 60 -4 0 -14 2 -21 5 -8 3 -26 -4 -41 -15z"/>
</g>
</svg>
