<svg version="1.1" id="Layer_1" xmlns="http://www.w3.org/2000/svg" xmlns:xlink="http://www.w3.org/1999/xlink" x="0px" y="0px"
	 width="100%" viewBox="0 0 436 154" enable-background="new 0 0 436 154" xml:space="preserve">
<path fill="#000000" opacity="1.000000" stroke="none" 
	d="
M409.000000,155.000000 
	C272.724213,155.000000 136.948441,155.000000 1.086335,155.000000 
	C1.086335,103.746101 1.086335,52.492016 1.086335,1.118962 
	C146.333267,1.118962 291.666626,1.118962 436.994080,1.118962 
	C436.994080,52.384747 436.994080,103.692375 436.991089,155.000000 
	C427.825409,155.000000 418.662720,155.000000 409.000000,155.000000 
M210.564560,84.098984 
	C209.671768,83.754829 208.383713,83.676628 207.946060,83.026230 
	C202.295746,74.629036 196.801056,66.127220 191.164856,57.720341 
	C190.426315,56.618721 189.182480,55.230434 188.063980,55.124714 
	C184.524490,54.790131 180.933426,55.001133 177.414932,55.001133 
	C177.414932,71.351616 177.414932,86.938828 177.414932,102.741928 
	C180.998001,102.741928 184.371872,102.741928 188.266632,102.741928 
	C188.266632,92.027863 188.266632,81.571754 188.266632,70.210045 
	C194.416931,79.555435 199.964493,88.020119 205.549149,96.460266 
	C210.475769,103.905930 211.792160,104.391479 220.708862,102.375748 
	C220.708862,86.609207 220.708862,70.880753 220.708862,55.139847 
	C217.280182,55.139847 214.152573,55.139847 210.598160,55.139847 
	C210.598160,64.574615 210.598160,73.866859 210.564560,84.098984 
M80.656738,94.080231 
	C79.773521,93.457985 78.191734,92.899818 78.127754,92.202415 
	C77.847572,89.148102 78.007088,86.053452 78.007088,82.690018 
	C83.679764,82.690018 88.629044,82.690018 93.612396,82.690018 
	C93.612396,79.663040 93.612396,76.944725 93.612396,73.783211 
	C88.236664,73.783211 83.159782,73.783211 78.319138,73.783211 
	C78.319138,70.233879 78.319138,67.148033 78.319138,63.665642 
	C84.049171,63.665642 89.468025,63.665642 94.817947,63.665642 
	C94.817947,60.632496 94.817947,58.017090 94.817947,55.200958 
	C85.557503,55.200958 76.482300,55.200958 67.201599,55.200958 
	C67.201599,71.118698 67.201599,86.856476 67.201599,102.798996 
	C76.790039,102.798996 86.198082,102.798996 95.758896,102.798996 
	C95.758896,99.888161 95.758896,97.162422 95.758896,94.080643 
	C90.892227,94.080643 86.261078,94.080643 80.656738,94.080231 
M130.457962,67.985229 
	C128.497375,67.985229 126.536781,67.985229 124.643501,67.985229 
	C122.223778,76.033058 119.941177,83.624825 117.658577,91.216583 
	C117.344307,91.212059 117.030029,91.207535 116.715759,91.203003 
	C114.416916,83.523781 112.118080,75.844559 109.822807,68.177261 
	C105.804459,68.177261 102.039192,68.177261 97.847534,68.177261 
	C102.102356,79.079880 106.326096,89.639763 110.282898,100.298752 
	C110.948509,102.091805 110.847572,104.396637 110.432945,106.321121 
	C109.159760,112.230621 104.511749,111.962883 99.975357,111.227585 
	C99.080673,120.136932 99.984245,121.551659 108.133553,119.670044 
	C112.002380,118.776764 116.840576,115.577095 118.359810,112.146843 
	C124.682480,97.870865 129.909409,83.109596 135.747177,67.985237 
	C133.661133,67.985237 132.509811,67.985237 130.457962,67.985229 
M229.735641,78.422264 
	C227.897003,85.244904 227.677917,91.978287 232.052780,97.953171 
	C236.987244,104.692307 244.424698,104.913818 251.540070,103.729500 
	C260.156891,102.295280 259.466919,102.429840 258.486908,94.306152 
	C246.334030,98.134544 240.057053,96.306442 240.429520,88.599243 
	C247.492203,88.599243 254.583832,88.599243 262.638153,88.599243 
	C261.752747,83.839233 261.493988,79.488770 260.082428,75.551620 
	C257.952271,69.610130 253.063019,67.133881 246.819397,66.956635 
	C238.720078,66.726707 233.217361,70.369980 229.735641,78.422264 
M156.202255,67.014336 
	C143.608368,65.309891 133.481476,76.625015 137.791000,92.741737 
	C140.141464,101.531906 147.071686,104.901894 158.970490,103.931580 
	C166.848099,103.289177 167.477615,102.514847 166.704651,94.418419 
	C154.115646,97.975975 148.470352,96.312202 148.481171,88.631516 
	C155.571213,88.631516 162.669144,88.631516 169.714249,88.631516 
	C170.817459,75.259583 167.292755,69.380219 156.202255,67.014336 
M281.885559,67.324707 
	C281.885559,64.272873 281.885559,61.221039 281.885559,58.048088 
	C271.125244,60.201057 271.125244,60.201057 270.177094,67.822861 
	C268.604431,67.928795 266.999512,68.036896 265.373169,68.146439 
	C265.373169,70.864021 265.373169,73.248093 265.373169,75.631279 
	C267.263794,75.884560 268.858337,76.098175 271.024475,76.388359 
	C271.024475,83.031555 270.519958,89.556183 271.164459,95.965271 
	C271.826965,102.553581 278.121063,105.589104 286.369141,103.843079 
	C292.003754,102.650291 288.380737,98.316010 288.512573,96.220566 
	C286.027924,95.152969 282.389343,93.952179 282.138397,92.251480 
	C281.354431,86.939194 281.850616,81.438011 281.850616,75.826538 
	C284.611023,75.826538 286.747955,75.826538 289.143372,75.826538 
	C289.143372,73.194542 289.143372,70.766716 289.143372,67.931526 
	C286.848602,67.931526 284.715332,67.931526 281.885559,67.324707 
M358.175049,74.954010 
	C362.016052,75.240196 365.857025,75.526382 369.782928,75.818893 
	C369.782928,73.908585 369.782928,71.278397 369.782928,68.361969 
	C363.702362,66.539177 357.745605,66.063324 351.829254,68.596695 
	C347.612885,70.402138 345.302094,73.738831 345.249298,78.295090 
	C345.198395,82.689575 347.411285,85.891685 351.461548,87.661255 
	C353.881012,88.718315 356.486450,89.392143 358.802490,90.624931 
	C359.917816,91.218636 360.557190,92.706535 361.412079,93.789528 
	C360.301331,94.621635 359.166321,96.191147 358.084106,96.155525 
	C353.872101,96.016869 349.676819,95.368942 344.312225,94.783569 
	C345.346313,97.524178 345.701508,101.948761 347.535004,102.683357 
	C353.459106,105.056770 359.916656,104.932037 365.886292,102.023537 
	C369.732208,100.149750 371.911743,97.039505 371.969666,92.527771 
	C372.028564,87.940628 369.707062,85.023293 365.840729,83.152298 
	C363.465912,82.003082 360.905548,81.240562 358.514679,80.120430 
	C356.189362,79.031021 355.000397,77.473824 358.175049,74.954010 
M316.743073,73.302879 
	C316.090576,74.264290 315.340576,75.174126 314.800507,76.195038 
	C309.003967,87.152168 313.955658,100.387474 324.988556,103.498817 
	C336.258850,106.677109 341.964844,102.982925 340.543335,93.428337 
	C333.594299,96.540474 329.009338,96.289742 325.914398,92.628326 
	C323.063782,89.255951 322.993225,82.143318 325.775665,78.645081 
	C328.760406,74.892532 333.605591,74.511871 341.012848,77.562103 
	C341.012848,75.644554 340.784393,73.786270 341.062195,72.007034 
	C341.580383,68.688370 339.812103,67.436172 337.001190,67.164398 
	C329.699982,66.458488 322.671112,66.873268 316.743073,73.302879 
M294.994263,78.522827 
	C294.994263,86.605400 294.994263,94.687973 294.994263,102.690750 
	C298.927521,102.690750 302.317108,102.690750 305.632538,102.690750 
	C305.632538,90.996437 305.632538,79.619385 305.632538,68.303154 
	C301.943787,68.303154 298.553101,68.303154 294.994263,68.303154 
	C294.994263,71.584915 294.994263,74.559113 294.994263,78.522827 
M302.866333,62.828243 
	C303.653900,62.252010 304.988464,61.783806 305.127563,61.079498 
	C305.563049,58.874443 306.494446,55.325722 305.509460,54.582378 
	C303.470001,53.043301 300.219910,52.249119 297.663544,52.595295 
	C296.259521,52.785423 294.004852,56.237133 294.365417,57.647984 
	C294.889038,59.697136 297.321106,61.360569 299.173706,62.907818 
	C299.750977,63.389946 301.087158,62.963390 302.866333,62.828243 
z"/>
<path fill="#FAFAFA" opacity="1.000000" stroke="none" 
	d="
M210.581360,83.629044 
	C210.598160,73.866859 210.598160,64.574615 210.598160,55.139847 
	C214.152573,55.139847 217.280182,55.139847 220.708862,55.139847 
	C220.708862,70.880753 220.708862,86.609207 220.708862,102.375748 
	C211.792160,104.391479 210.475769,103.905930 205.549149,96.460266 
	C199.964493,88.020119 194.416931,79.555435 188.266632,70.210045 
	C188.266632,81.571754 188.266632,92.027863 188.266632,102.741928 
	C184.371872,102.741928 180.998001,102.741928 177.414932,102.741928 
	C177.414932,86.938828 177.414932,71.351616 177.414932,55.001133 
	C180.933426,55.001133 184.524490,54.790131 188.063980,55.124714 
	C189.182480,55.230434 190.426315,56.618721 191.164856,57.720341 
	C196.801056,66.127220 202.295746,74.629036 207.946060,83.026230 
	C208.383713,83.676628 209.671768,83.754829 210.581360,83.629044 
z"/>
<path fill="#FDFDFD" opacity="1.000000" stroke="none" 
	d="
M81.143333,94.080437 
	C86.261078,94.080643 90.892227,94.080643 95.758896,94.080643 
	C95.758896,97.162422 95.758896,99.888161 95.758896,102.798996 
	C86.198082,102.798996 76.790039,102.798996 67.201599,102.798996 
	C67.201599,86.856476 67.201599,71.118698 67.201599,55.200958 
	C76.482300,55.200958 85.557503,55.200958 94.817947,55.200958 
	C94.817947,58.017090 94.817947,60.632496 94.817947,63.665642 
	C89.468025,63.665642 84.049171,63.665642 78.319138,63.665642 
	C78.319138,67.148033 78.319138,70.233879 78.319138,73.783211 
	C83.159782,73.783211 88.236664,73.783211 93.612396,73.783211 
	C93.612396,76.944725 93.612396,79.663040 93.612396,82.690018 
	C88.629044,82.690018 83.679764,82.690018 78.007088,82.690018 
	C78.007088,86.053452 77.847572,89.148102 78.127754,92.202415 
	C78.191734,92.899818 79.773521,93.457985 81.143333,94.080437 
z"/>
<path fill="#F7F7F7" opacity="1.000000" stroke="none" 
	d="
M130.908234,67.985229 
	C132.509811,67.985237 133.661133,67.985237 135.747177,67.985237 
	C129.909409,83.109596 124.682480,97.870865 118.359810,112.146843 
	C116.840576,115.577095 112.002380,118.776764 108.133553,119.670044 
	C99.984245,121.551659 99.080673,120.136932 99.975357,111.227585 
	C104.511749,111.962883 109.159760,112.230621 110.432945,106.321121 
	C110.847572,104.396637 110.948509,102.091805 110.282898,100.298752 
	C106.326096,89.639763 102.102356,79.079880 97.847534,68.177261 
	C102.039192,68.177261 105.804459,68.177261 109.822807,68.177261 
	C112.118080,75.844559 114.416916,83.523781 116.715759,91.203003 
	C117.030029,91.207535 117.344307,91.212059 117.658577,91.216583 
	C119.941177,83.624825 122.223778,76.033058 124.643501,67.985229 
	C126.536781,67.985229 128.497375,67.985229 130.908234,67.985229 
z"/>
<path fill="#F6F6F6" opacity="1.000000" stroke="none" 
	d="
M229.863190,78.053078 
	C233.217361,70.369980 238.720078,66.726707 246.819397,66.956635 
	C253.063019,67.133881 257.952271,69.610130 260.082428,75.551620 
	C261.493988,79.488770 261.752747,83.839233 262.638153,88.599243 
	C254.583832,88.599243 247.492203,88.599243 240.429520,88.599243 
	C240.057053,96.306442 246.334030,98.134544 258.486908,94.306152 
	C259.466919,102.429840 260.156891,102.295280 251.540070,103.729500 
	C244.424698,104.913818 236.987244,104.692307 232.052780,97.953171 
	C227.677917,91.978287 227.897003,85.244904 229.863190,78.053078 
M243.603958,82.009071 
	C246.226471,82.009071 248.848969,82.009071 251.550491,82.009071 
	C251.605942,78.120712 250.970215,75.103699 246.945404,74.475693 
	C243.378906,73.919197 241.405258,76.120613 240.127060,79.074280 
	C238.984177,81.715248 240.429855,82.255661 243.603958,82.009071 
z"/>
<path fill="#F8F8F8" opacity="1.000000" stroke="none" 
	d="
M156.631302,67.032707 
	C167.292755,69.380219 170.817459,75.259583 169.714249,88.631516 
	C162.669144,88.631516 155.571213,88.631516 148.481171,88.631516 
	C148.470352,96.312202 154.115646,97.975975 166.704651,94.418419 
	C167.477615,102.514847 166.848099,103.289177 158.970490,103.931580 
	C147.071686,104.901894 140.141464,101.531906 137.791000,92.741737 
	C133.481476,76.625015 143.608368,65.309891 156.631302,67.032707 
M159.885696,79.142654 
	C158.898926,75.941452 157.034637,73.781982 153.390671,74.520325 
	C149.566422,75.295189 148.238663,78.124115 147.954941,82.000923 
	C151.481842,82.000923 154.794754,82.111511 158.088425,81.909149 
	C158.760498,81.867859 159.360321,80.650795 159.885696,79.142654 
z"/>
<path fill="#F8F8F8" opacity="1.000000" stroke="none" 
	d="
M282.233826,67.628113 
	C284.715332,67.931526 286.848602,67.931526 289.143372,67.931526 
	C289.143372,70.766716 289.143372,73.194542 289.143372,75.826538 
	C286.747955,75.826538 284.611023,75.826538 281.850616,75.826538 
	C281.850616,81.438011 281.354431,86.939194 282.138397,92.251480 
	C282.389343,93.952179 286.027924,95.152969 288.512573,96.220566 
	C288.380737,98.316010 292.003754,102.650291 286.369141,103.843079 
	C278.121063,105.589104 271.826965,102.553581 271.164459,95.965271 
	C270.519958,89.556183 271.024475,83.031555 271.024475,76.388359 
	C268.858337,76.098175 267.263794,75.884560 265.373169,75.631279 
	C265.373169,73.248093 265.373169,70.864021 265.373169,68.146439 
	C266.999512,68.036896 268.604431,67.928795 270.177094,67.822861 
	C271.125244,60.201057 271.125244,60.201057 281.885559,58.048088 
	C281.885559,61.221039 281.885559,64.272873 282.233826,67.628113 
z"/>
<path fill="#F6F6F6" opacity="1.000000" stroke="none" 
	d="
M357.775818,75.076355 
	C355.000397,77.473824 356.189362,79.031021 358.514679,80.120430 
	C360.905548,81.240562 363.465912,82.003082 365.840729,83.152298 
	C369.707062,85.023293 372.028564,87.940628 371.969666,92.527771 
	C371.911743,97.039505 369.732208,100.149750 365.886292,102.023537 
	C359.916656,104.932037 353.459106,105.056770 347.535004,102.683357 
	C345.701508,101.948761 345.346313,97.524178 344.312225,94.783569 
	C349.676819,95.368942 353.872101,96.016869 358.084106,96.155525 
	C359.166321,96.191147 360.301331,94.621635 361.412079,93.789520 
	C360.557190,92.706535 359.917816,91.218636 358.802490,90.624931 
	C356.486450,89.392143 353.881012,88.718315 351.461548,87.661255 
	C347.411285,85.891685 345.198395,82.689575 345.249298,78.295090 
	C345.302094,73.738831 347.612885,70.402138 351.829254,68.596695 
	C357.745605,66.063324 363.702362,66.539177 369.782928,68.361969 
	C369.782928,71.278397 369.782928,73.908585 369.782928,75.818893 
	C365.857025,75.526382 362.016052,75.240196 357.775818,75.076355 
z"/>
<path fill="#F8F8F8" opacity="1.000000" stroke="none" 
	d="
M316.966858,73.012833 
	C322.671112,66.873268 329.699982,66.458488 337.001190,67.164398 
	C339.812103,67.436172 341.580383,68.688370 341.062195,72.007034 
	C340.784393,73.786270 341.012848,75.644554 341.012848,77.562103 
	C333.605591,74.511871 328.760406,74.892532 325.775665,78.645081 
	C322.993225,82.143318 323.063782,89.255951 325.914398,92.628326 
	C329.009338,96.289742 333.594299,96.540474 340.543335,93.428337 
	C341.964844,102.982925 336.258850,106.677109 324.988556,103.498817 
	C313.955658,100.387474 309.003967,87.152168 314.800507,76.195038 
	C315.340576,75.174126 316.090576,74.264290 316.966858,73.012833 
z"/>
<path fill="#FCFCFC" opacity="1.000000" stroke="none" 
	d="
M294.994263,78.028069 
	C294.994263,74.559113 294.994263,71.584915 294.994263,68.303154 
	C298.553101,68.303154 301.943787,68.303154 305.632538,68.303154 
	C305.632538,79.619385 305.632538,90.996437 305.632538,102.690750 
	C302.317108,102.690750 298.927521,102.690750 294.994263,102.690750 
	C294.994263,94.687973 294.994263,86.605400 294.994263,78.028069 
z"/>
<path fill="#F2F2F2" opacity="1.000000" stroke="none" 
	d="
M302.471130,62.890530 
	C301.087158,62.963390 299.750977,63.389946 299.173706,62.907818 
	C297.321106,61.360569 294.889038,59.697136 294.365417,57.647984 
	C294.004852,56.237133 296.259521,52.785423 297.663544,52.595295 
	C300.219910,52.249119 303.470001,53.043301 305.509460,54.582378 
	C306.494446,55.325722 305.563049,58.874443 305.127563,61.079498 
	C304.988464,61.783806 303.653900,62.252010 302.471130,62.890530 
z"/>
<path fill="#0E0E0E" opacity="1.000000" stroke="none" 
	d="
M243.146637,82.009033 
	C240.429855,82.255661 238.984177,81.715248 240.127060,79.074280 
	C241.405258,76.120613 243.378906,73.919197 246.945404,74.475693 
	C250.970215,75.103699 251.605942,78.120712 251.550491,82.009071 
	C248.848969,82.009071 246.226471,82.009071 243.146637,82.009033 
z"/>
<path fill="#090909" opacity="1.000000" stroke="none" 
	d="
M159.939575,79.559196 
	C159.360321,80.650795 158.760498,81.867859 158.088425,81.909149 
	C154.794754,82.111511 151.481842,82.000923 147.954941,82.000923 
	C148.238663,78.124115 149.566422,75.295189 153.390671,74.520325 
	C157.034637,73.781982 158.898926,75.941452 159.939575,79.559196 
z"/>
</svg>