<svg width="150" height="150" viewBox="0 0 150 150" fill="none" xmlns="http://www.w3.org/2000/svg">
<g clip-path="url(#clip0_336_1077)">
<path d="M60.3516 71.7773H89.6484C90.2312 71.7773 90.7901 71.5458 91.2021 71.1338C91.6142 70.7217 91.8457 70.1628 91.8457 69.5801V46.1426C91.8457 45.5598 91.6142 45.0009 91.2021 44.5889C90.7901 44.1768 90.2312 43.9453 89.6484 43.9453H85.9863V37.3535C85.9863 34.4398 84.8288 31.6453 82.7685 29.585C80.7082 27.5247 77.9138 26.3672 75 26.3672C72.0862 26.3672 69.2918 27.5247 67.2315 29.585C65.1712 31.6453 64.0137 34.4398 64.0137 37.3535V43.9453H60.3516C59.7688 43.9453 59.2099 44.1768 58.7979 44.5889C58.3858 45.0009 58.1543 45.5598 58.1543 46.1426V69.5801C58.1543 70.1628 58.3858 70.7217 58.7979 71.1338C59.2099 71.5458 59.7688 71.7773 60.3516 71.7773V71.7773ZM68.4082 37.3535C68.4082 35.6053 69.1027 33.9286 70.3389 32.6924C71.5751 31.4562 73.2517 30.7617 75 30.7617C76.7483 30.7617 78.4249 31.4562 79.6611 32.6924C80.8973 33.9286 81.5918 35.6053 81.5918 37.3535V43.9453H68.4082V37.3535ZM62.5488 48.3398H87.4512V67.3828H62.5488V48.3398Z" fill="black"/>
<path d="M77.9297 55.6641H72.0703C71.4876 55.6641 70.9287 55.8956 70.5166 56.3076C70.1045 56.7197 69.873 57.2786 69.873 57.8613C69.873 58.4441 70.1045 59.003 70.5166 59.415C70.9287 59.8271 71.4876 60.0586 72.0703 60.0586H77.9297C78.5124 60.0586 79.0713 59.8271 79.4834 59.415C79.8955 59.003 80.127 58.4441 80.127 57.8613C80.127 57.2786 79.8955 56.7197 79.4834 56.3076C79.0713 55.8956 78.5124 55.6641 77.9297 55.6641Z" fill="black"/>
<path d="M44.2383 97.2656C45.9861 97.2641 47.6618 96.5691 48.8977 95.3332C50.1335 94.0974 50.8285 92.4216 50.8301 90.6738V87.7441C50.8301 85.9959 50.1356 84.3192 48.8994 83.083C47.6632 81.8468 45.9865 81.1523 44.2383 81.1523C42.49 81.1523 40.8134 81.8468 39.5772 83.083C38.341 84.3192 37.6465 85.9959 37.6465 87.7441V90.6738C37.648 92.4216 38.343 94.0974 39.5789 95.3332C40.8148 96.5691 42.4905 97.2641 44.2383 97.2656V97.2656ZM42.041 87.7441C42.041 87.1614 42.2725 86.6025 42.6846 86.1904C43.0966 85.7784 43.6555 85.5469 44.2383 85.5469C44.821 85.5469 45.3799 85.7784 45.792 86.1904C46.204 86.6025 46.4355 87.1614 46.4355 87.7441V90.6738C46.4355 91.2566 46.204 91.8155 45.792 92.2275C45.3799 92.6396 44.821 92.8711 44.2383 92.8711C43.6555 92.8711 43.0966 92.6396 42.6846 92.2275C42.2725 91.8155 42.041 91.2566 42.041 90.6738V87.7441Z" fill="black"/>
<path d="M58.8867 88.3506V95.0684C58.8867 95.6511 59.1182 96.21 59.5303 96.6221C59.9424 97.0342 60.5013 97.2656 61.084 97.2656C61.6668 97.2656 62.2256 97.0342 62.6377 96.6221C63.0498 96.21 63.2813 95.6511 63.2813 95.0684V83.3496C63.2809 82.9153 63.1518 82.4909 62.9103 82.1299C62.6689 81.7689 62.3259 81.4876 61.9246 81.3214C61.5233 81.1553 61.0818 81.1118 60.6559 81.1964C60.2299 81.281 59.8386 81.49 59.5313 81.7969L56.6016 84.7266C56.2502 85.0791 56.0289 85.5405 55.9739 86.0353C55.919 86.53 56.0337 87.0287 56.2992 87.4498C56.5647 87.8708 56.9652 88.1892 57.4353 88.3529C57.9054 88.5165 58.4172 88.5157 58.8867 88.3506V88.3506Z" fill="black"/>
<path d="M75 81.1523C73.2522 81.1539 71.5765 81.8489 70.3406 83.0848C69.1047 84.3206 68.4098 85.9964 68.4082 87.7441V90.6738C68.4082 92.4221 69.1027 94.0987 70.3389 95.3349C71.5751 96.5711 73.2517 97.2656 75 97.2656C76.7483 97.2656 78.4249 96.5711 79.6611 95.3349C80.8973 94.0987 81.5918 92.4221 81.5918 90.6738V87.7441C81.5902 85.9964 80.8953 84.3206 79.6594 83.0848C78.4235 81.8489 76.7478 81.1539 75 81.1523V81.1523ZM77.1973 90.6738C77.1973 91.2566 76.9658 91.8155 76.5537 92.2275C76.1416 92.6396 75.5828 92.8711 75 92.8711C74.4172 92.8711 73.8584 92.6396 73.4463 92.2275C73.0342 91.8155 72.8027 91.2566 72.8027 90.6738V87.7441C72.8027 87.1614 73.0342 86.6025 73.4463 86.1904C73.8584 85.7784 74.4172 85.5469 75 85.5469C75.5828 85.5469 76.1416 85.7784 76.5537 86.1904C76.9658 86.6025 77.1973 87.1614 77.1973 87.7441V90.6738Z" fill="black"/>
<path d="M105.762 97.2656C107.509 97.2641 109.185 96.5691 110.421 95.3332C111.657 94.0974 112.352 92.4216 112.354 90.6738V87.7441C112.354 85.9959 111.659 84.3192 110.423 83.083C109.187 81.8468 107.51 81.1523 105.762 81.1523C104.013 81.1523 102.337 81.8468 101.101 83.083C99.8644 84.3192 99.1699 85.9959 99.1699 87.7441V90.6738C99.1715 92.4216 99.8665 94.0974 101.102 95.3332C102.338 96.5691 104.014 97.2641 105.762 97.2656V97.2656ZM103.564 87.7441C103.564 87.1614 103.796 86.6025 104.208 86.1904C104.62 85.7784 105.179 85.5469 105.762 85.5469C106.344 85.5469 106.903 85.7784 107.315 86.1904C107.727 86.6025 107.959 87.1614 107.959 87.7441V90.6738C107.959 91.2566 107.727 91.8155 107.315 92.2275C106.903 92.6396 106.344 92.8711 105.762 92.8711C105.179 92.8711 104.62 92.6396 104.208 92.2275C103.796 91.8155 103.564 91.2566 103.564 90.6738V87.7441Z" fill="black"/>
<path d="M90.293 81.7969L87.3633 84.7266C87.0119 85.0791 86.7906 85.5405 86.7357 86.0353C86.6807 86.53 86.7954 87.0287 87.0609 87.4498C87.3264 87.8708 87.727 88.1892 88.1971 88.3529C88.6672 88.5165 89.1789 88.5157 89.6485 88.3506V95.0684C89.6485 95.6511 89.8799 96.21 90.292 96.6221C90.7041 97.0342 91.263 97.2656 91.8457 97.2656C92.4285 97.2656 92.9874 97.0342 93.3994 96.6221C93.8115 96.21 94.043 95.6511 94.043 95.0684V83.3496C94.0426 82.9153 93.9135 82.4909 93.6721 82.1299C93.4306 81.7689 93.0876 81.4876 92.6863 81.3214C92.2851 81.1553 91.8436 81.1118 91.4176 81.1964C90.9916 81.281 90.6003 81.49 90.293 81.7969Z" fill="black"/>
<path d="M147.803 19.6289H124.072V2.19727C124.072 1.61451 123.841 1.05563 123.429 0.643564C123.017 0.231497 122.458 0 121.875 0L28.125 0C27.5422 0 26.9834 0.231497 26.5713 0.643564C26.1592 1.05563 25.9277 1.61451 25.9277 2.19727V19.6289H2.19727C1.61451 19.6289 1.05563 19.8604 0.643564 20.2725C0.231497 20.6845 0 21.2434 0 21.8262L0 124.365C0 124.948 0.231497 125.507 0.643564 125.919C1.05563 126.331 1.61451 126.562 2.19727 126.562H52.2949V131.309L47.6074 136.816H29.5898C27.8416 136.816 26.1649 137.511 24.9287 138.747C23.6925 139.983 22.998 141.66 22.998 143.408C22.998 145.156 23.6925 146.833 24.9287 148.069C26.1649 149.306 27.8416 150 29.5898 150H120.41C122.158 150 123.835 149.306 125.071 148.069C126.307 146.833 127.002 145.156 127.002 143.408C127.002 141.66 126.307 139.983 125.071 138.747C123.835 137.511 122.158 136.816 120.41 136.816H102.422L97.7051 130.919V126.562H147.803C148.385 126.562 148.944 126.331 149.356 125.919C149.769 125.507 150 124.948 150 124.365V21.8262C150 21.2434 149.769 20.6845 149.356 20.2725C148.944 19.8604 148.385 19.6289 147.803 19.6289ZM145.605 24.0234V104.59H124.072V24.0234H145.605ZM119.678 104.59H30.3223V19.043H119.678V104.59ZM119.678 4.39453V14.6484H30.3223V4.39453H119.678ZM25.9277 24.0234V104.59H4.39453V24.0234H25.9277ZM122.607 143.408C122.607 143.991 122.376 144.55 121.964 144.962C121.552 145.374 120.993 145.605 120.41 145.605H29.5898C29.0071 145.605 28.4482 145.374 28.0361 144.962C27.6241 144.55 27.3926 143.991 27.3926 143.408C27.3926 142.825 27.6241 142.267 28.0361 141.854C28.4482 141.442 29.0071 141.211 29.5898 141.211H120.41C120.993 141.211 121.552 141.442 121.964 141.854C122.376 142.267 122.607 142.825 122.607 143.408ZM93.791 133.063L96.7969 136.816H53.3818L56.168 133.538C56.5024 133.144 56.6871 132.645 56.6895 132.129V126.562H93.3105V131.689C93.3109 132.189 93.4802 132.673 93.791 133.063V133.063ZM4.39453 122.168V108.984H145.605V122.168H4.39453Z" fill="black"/>
<path d="M99.9023 11.7188H101.367C101.95 11.7187 102.509 11.4873 102.921 11.0752C103.333 10.6631 103.564 10.1042 103.564 9.52148C103.564 8.93873 103.333 8.37985 102.921 7.96778C102.509 7.55572 101.95 7.32422 101.367 7.32422H99.9023C99.3196 7.32422 98.7607 7.55572 98.3486 7.96778C97.9366 8.37985 97.7051 8.93873 97.7051 9.52148C97.7051 10.1042 97.9366 10.6631 98.3486 11.0752C98.7607 11.4873 99.3196 11.7187 99.9023 11.7188V11.7188Z" fill="black"/>
<path d="M111.621 11.7188H113.086C113.669 11.7187 114.228 11.4873 114.64 11.0752C115.052 10.6631 115.283 10.1042 115.283 9.52148C115.283 8.93873 115.052 8.37985 114.64 7.96778C114.228 7.55572 113.669 7.32422 113.086 7.32422H111.621C111.038 7.32422 110.479 7.55572 110.067 7.96778C109.655 8.37985 109.424 8.93873 109.424 9.52148C109.424 10.1042 109.655 10.6631 110.067 11.0752C110.479 11.4873 111.038 11.7187 111.621 11.7188V11.7188Z" fill="black"/>
<path d="M83.7891 113.379H66.2109C65.6282 113.379 65.0693 113.61 64.6572 114.022C64.2452 114.435 64.0137 114.993 64.0137 115.576C64.0137 116.159 64.2452 116.718 64.6572 117.13C65.0693 117.542 65.6282 117.773 66.2109 117.773H83.7891C84.3718 117.773 84.9307 117.542 85.3428 117.13C85.7548 116.718 85.9863 116.159 85.9863 115.576C85.9863 114.993 85.7548 114.435 85.3428 114.022C84.9307 113.61 84.3718 113.379 83.7891 113.379Z" fill="black"/>
</g>
<defs>
<clipPath id="clip0_336_1077">
<rect width="150" height="150" fill="white"/>
</clipPath>
</defs>
</svg>
