<svg width="151" height="151" viewBox="0 0 151 151" fill="none" xmlns="http://www.w3.org/2000/svg">
<g clip-path="url(#clip0_336_1125)">
<path d="M139.414 58.6339H129.992C130.495 55.9553 130.439 53.2017 129.828 50.5456C129.217 47.8895 128.064 45.3882 126.441 43.1986C124.818 41.0089 122.761 39.178 120.397 37.8207C118.034 36.4634 115.416 35.6089 112.707 35.3107C112.172 25.781 108.01 16.8173 101.075 10.2598C94.1391 3.70235 84.9564 0.048584 75.4117 0.048584C65.867 0.048584 56.6844 3.70235 49.7489 10.2598C42.8134 16.8173 38.6512 25.781 38.1168 35.3107C35.4077 35.6089 32.7894 36.4634 30.426 37.8207C28.0626 39.178 26.005 41.0089 24.3822 43.1986C22.7594 45.3882 21.6064 47.8895 20.9954 50.5456C20.3845 53.2017 20.3287 55.9553 20.8316 58.6339H11.3863C8.47257 58.6339 5.67815 59.7914 3.61782 61.8518C1.55748 63.9121 0.399994 66.7065 0.399994 69.6203C0.399994 72.534 1.55748 75.3284 3.61782 77.3888C5.67815 79.4491 8.47257 80.6066 11.3863 80.6066H58.5543V87.0519H51.9625C51.3797 87.0519 50.8209 87.2834 50.4088 87.6955C49.9967 88.1075 49.7652 88.6664 49.7652 89.2492V118.546C49.7652 119.129 49.9967 119.688 50.4088 120.1C50.8209 120.512 51.3797 120.743 51.9625 120.743H98.8375C99.4202 120.743 99.9791 120.512 100.391 120.1C100.803 119.688 101.035 119.129 101.035 118.546V89.2492C101.035 88.6664 100.803 88.1075 100.391 87.6955C99.9791 87.2834 99.4202 87.0519 98.8375 87.0519H92.2457V80.6066H139.414C142.327 80.6066 145.122 79.4491 147.182 77.3888C149.243 75.3284 150.4 72.534 150.4 69.6203C150.4 66.7065 149.243 63.9121 147.182 61.8518C145.122 59.7914 142.327 58.6339 139.414 58.6339ZM96.6402 116.349H54.1598V91.4464H96.6402V116.349ZM87.8512 87.0519H62.9488V80.6066H87.8512V87.0519ZM87.8512 76.2121H62.9488V65.8117C62.9488 62.5094 64.2606 59.3424 66.5957 57.0074C68.9307 54.6723 72.0977 53.3605 75.4 53.3605C78.7022 53.3605 81.8693 54.6723 84.2043 57.0074C86.5393 59.3424 87.8512 62.5094 87.8512 65.8117V76.2121ZM139.414 76.2121H92.2457V65.8117C92.2457 61.3439 90.4709 57.0592 87.3117 53.9C84.1525 50.7408 79.8678 48.966 75.4 48.966C70.9322 48.966 66.6475 50.7408 63.4883 53.9C60.3291 57.0592 58.5543 61.3439 58.5543 65.8117V76.2121H11.3863C9.63807 76.2121 7.96142 75.5176 6.72522 74.2814C5.48902 73.0452 4.79453 71.3685 4.79453 69.6203C4.79453 67.872 5.48902 66.1954 6.72522 64.9592C7.96142 63.723 9.63807 63.0285 11.3863 63.0285H23.6705C24.022 63.0284 24.3683 62.9441 24.6805 62.7824C24.9926 62.6208 25.2614 62.3867 25.4643 62.0997C25.6673 61.8127 25.7984 61.4812 25.8466 61.133C25.8949 60.7848 25.859 60.4302 25.7418 60.0988C24.9223 57.7788 24.6712 55.2961 25.0095 52.859C25.3479 50.4219 26.2659 48.1016 27.6865 46.0926C29.1071 44.0837 30.9889 42.4448 33.1739 41.3135C35.3588 40.1822 37.7833 39.5915 40.2437 39.591C40.8265 39.591 41.3854 39.3595 41.7974 38.9474C42.2095 38.5353 42.441 37.9765 42.441 37.3937C42.441 28.6524 45.9135 20.2692 52.0945 14.0882C58.2755 7.90718 66.6587 4.43473 75.4 4.43473C84.1413 4.43473 92.5245 7.90718 98.7055 14.0882C104.887 20.2692 108.359 28.6524 108.359 37.3937C108.359 37.9765 108.59 38.5353 109.003 38.9474C109.415 39.3595 109.973 39.591 110.556 39.591C112.889 39.5883 115.191 40.1165 117.289 41.1356C119.387 42.1547 121.226 43.6379 122.666 45.4729C124.105 47.308 125.109 49.4466 125.599 51.7269C126.09 54.0071 126.055 56.3691 125.498 58.6339H110.556C109.973 58.6339 109.415 58.8654 109.003 59.2775C108.59 59.6896 108.359 60.2485 108.359 60.8312C108.359 61.414 108.59 61.9728 109.003 62.3849C109.415 62.797 109.973 63.0285 110.556 63.0285H139.414C141.162 63.0285 142.839 63.723 144.075 64.9592C145.311 66.1954 146.005 67.872 146.005 69.6203C146.005 71.3685 145.311 73.0452 144.075 74.2814C142.839 75.5176 141.162 76.2121 139.414 76.2121Z" fill="black"/>
<path d="M99.6695 29.132C97.666 23.276 93.6175 18.3391 88.2672 15.2277C88.0171 15.0824 87.7409 14.9879 87.4543 14.9494C87.1676 14.9109 86.8763 14.9293 86.5967 15.0034C86.3172 15.0775 86.055 15.206 85.8251 15.3815C85.5952 15.5569 85.4022 15.7759 85.2569 16.026C84.9636 16.5311 84.8829 17.1319 85.0327 17.6965C85.1824 18.261 85.5502 18.7429 86.0553 19.0363C90.4909 21.6153 93.8476 25.7074 95.5094 30.5617C95.6974 31.1133 96.0969 31.5677 96.6199 31.8248C96.8789 31.9522 97.1605 32.0272 97.4485 32.0457C97.7365 32.0642 98.0253 32.0259 98.2984 31.9327C98.5716 31.8396 98.8237 31.6936 99.0405 31.5031C99.2572 31.3125 99.4343 31.0812 99.5616 30.8222C99.6889 30.5632 99.764 30.2817 99.7825 29.9937C99.801 29.7057 99.7626 29.4168 99.6695 29.1437V29.132Z" fill="black"/>
<path d="M73.9352 110.49H76.8648C78.6131 110.49 80.2897 109.795 81.5259 108.559C82.7621 107.323 83.4566 105.646 83.4566 103.898C83.4566 102.149 82.7621 100.473 81.5259 99.2366C80.2897 98.0004 78.6131 97.3059 76.8648 97.3059H73.9352C72.1869 97.3059 70.5102 98.0004 69.274 99.2366C68.0378 100.473 67.3434 102.149 67.3434 103.898C67.3434 105.646 68.0378 107.323 69.274 108.559C70.5102 109.795 72.1869 110.49 73.9352 110.49ZM73.9352 101.7H76.8648C77.4476 101.7 78.0065 101.932 78.4185 102.344C78.8306 102.756 79.0621 103.315 79.0621 103.898C79.0621 104.48 78.8306 105.039 78.4185 105.451C78.0065 105.863 77.4476 106.095 76.8648 106.095H73.9352C73.3524 106.095 72.7935 105.863 72.3814 105.451C71.9694 105.039 71.7379 104.48 71.7379 103.898C71.7379 103.315 71.9694 102.756 72.3814 102.344C72.7935 101.932 73.3524 101.7 73.9352 101.7Z" fill="black"/>
<path d="M126.67 128.068H24.1305C23.5477 128.068 22.9888 128.299 22.5768 128.711C22.1647 129.123 21.9332 129.682 21.9332 130.265V147.843C21.9332 148.426 22.1647 148.985 22.5768 149.397C22.9888 149.809 23.5477 150.04 24.1305 150.04H126.67C127.252 150.04 127.811 149.809 128.223 149.397C128.635 148.985 128.867 148.426 128.867 147.843V130.265C128.867 129.682 128.635 129.123 128.223 128.711C127.811 128.299 127.252 128.068 126.67 128.068ZM26.3277 132.462H106.894V145.646H26.3277V132.462ZM124.472 145.646H111.289V132.462H124.472V145.646Z" fill="black"/>
<path d="M46.8355 136.857H42.441C41.8583 136.857 41.2994 137.088 40.8873 137.5C40.4752 137.912 40.2437 138.471 40.2437 139.054C40.2437 139.637 40.4752 140.196 40.8873 140.608C41.2994 141.02 41.8583 141.251 42.441 141.251H46.8355C47.4183 141.251 47.9772 141.02 48.3892 140.608C48.8013 140.196 49.0328 139.637 49.0328 139.054C49.0328 138.471 48.8013 137.912 48.3892 137.5C47.9772 137.088 47.4183 136.857 46.8355 136.857Z" fill="black"/>
<path d="M61.484 136.857H57.0894C56.5067 136.857 55.9478 137.088 55.5357 137.5C55.1237 137.912 54.8922 138.471 54.8922 139.054C54.8922 139.637 55.1237 140.196 55.5357 140.608C55.9478 141.02 56.5067 141.251 57.0894 141.251H61.484C62.0667 141.251 62.6256 141.02 63.0377 140.608C63.4497 140.196 63.6812 139.637 63.6812 139.054C63.6812 138.471 63.4497 137.912 63.0377 137.5C62.6256 137.088 62.0667 136.857 61.484 136.857Z" fill="black"/>
<path d="M76.1324 136.857H71.7379C71.1551 136.857 70.5963 137.088 70.1842 137.5C69.7721 137.912 69.5406 138.471 69.5406 139.054C69.5406 139.637 69.7721 140.196 70.1842 140.608C70.5963 141.02 71.1551 141.251 71.7379 141.251H76.1324C76.7152 141.251 77.2741 141.02 77.6861 140.608C78.0982 140.196 78.3297 139.637 78.3297 139.054C78.3297 138.471 78.0982 137.912 77.6861 137.5C77.2741 137.088 76.7152 136.857 76.1324 136.857Z" fill="black"/>
<path d="M90.7809 136.857H86.3863C85.8036 136.857 85.2447 137.088 84.8326 137.5C84.4205 137.912 84.1891 138.471 84.1891 139.054C84.1891 139.637 84.4205 140.196 84.8326 140.608C85.2447 141.02 85.8036 141.251 86.3863 141.251H90.7809C91.3636 141.251 91.9225 141.02 92.3346 140.608C92.7466 140.196 92.9781 139.637 92.9781 139.054C92.9781 138.471 92.7466 137.912 92.3346 137.5C91.9225 137.088 91.3636 136.857 90.7809 136.857Z" fill="black"/>
<path d="M103.232 58.634H101.767C101.184 58.634 100.626 58.8655 100.213 59.2776C99.8014 59.6897 99.5699 60.2485 99.5699 60.8313C99.5699 61.414 99.8014 61.9729 100.213 62.385C100.626 62.7971 101.184 63.0286 101.767 63.0286H103.232C103.815 63.0286 104.374 62.7971 104.786 62.385C105.198 61.9729 105.429 61.414 105.429 60.8313C105.429 60.2485 105.198 59.6897 104.786 59.2776C104.374 58.8655 103.815 58.634 103.232 58.634Z" fill="black"/>
</g>
<defs>
<clipPath id="clip0_336_1125">
<rect width="150" height="150" fill="white" transform="translate(0.399994 0.0402222)"/>
</clipPath>
</defs>
</svg>
