<svg xmlns="http://www.w3.org/2000/svg" xmlns:xlink="http://www.w3.org/1999/xlink" version="1.1" width="1000" height="1000" viewBox="0 0 1000 1000" xml:space="preserve">
<desc>Created with Fabric.js 3.5.0</desc>
<defs>
</defs>
<rect x="0" y="0" width="100%" height="100%" fill="#ffffff"/>
<g transform="matrix(0.4934 0 0 0.4934 221.5376 499.9995)" id="292772">
<g style="" vector-effect="non-scaling-stroke">
		<g transform="matrix(1 0 0 1 1 1)" id="Layer_1">
<path style="stroke: none; stroke-width: 1; stroke-dasharray: none; stroke-linecap: butt; stroke-dashoffset: 0; stroke-linejoin: miter; stroke-miterlimit: 4; is-custom-font: none; font-file-url: none; fill: rgb(254,255,255); fill-rule: nonzero; opacity: 1;" transform=" translate(-251, -251)" d="M 329 501 C 219.333359 501 110.166718 501 1.000059 501 C 1.000039 334.333405 1.000039 167.666794 1.00002 1.000148 C 167.666565 1.000099 334.33313 1.000099 500.999756 1.000049 C 500.999847 167.666519 500.999847 334.333038 500.999939 500.999786 C 443.833344 501 386.666656 501 329 501 M 188.119522 271.974274 C 178.525208 263.558594 168.041351 260.816833 155.983688 266.538605 C 138.533875 274.819183 136.182678 300.779633 152.222412 312.747559 C 153.700546 313.542236 155.178696 314.336884 157.063812 315.627197 C 158.042847 315.927979 159.021881 316.22876 160.618317 316.889343 C 161.088867 316.901947 161.559433 316.914551 162.521179 317.324738 C 163.348312 317.360046 164.17543 317.395325 165.803864 317.779175 C 167.546799 317.828735 169.289734 317.878265 171.63121 318.328674 C 173.087463 318.367065 174.543701 318.405457 176.769913 318.726776 C 177.8564 318.792572 178.942871 318.858398 180.491028 319.373291 C 181.327713 319.420593 182.164413 319.467926 183.717514 319.810333 C 184.484833 319.857849 185.252151 319.905365 186.564911 320.427826 C 190.771667 321.888458 195.02594 323.226379 199.175827 324.833862 C 209.544983 328.850464 217.746307 336.052063 225.991638 343.711945 C 226.150345 343.976013 226.383728 344.108826 226.935394 344.759399 C 228.586456 346.941559 230.237518 349.123718 232.168274 351.902802 C 233.350342 353.487091 234.457367 355.134674 235.729401 356.643097 C 238.811371 360.297821 241.394196 364.724548 245.205338 367.3479 C 256.954041 375.434906 273.97049 372.057739 281.743408 359.967133 C 291.226288 345.216827 303.013672 333.278198 319.731781 325.763794 C 322.0802 324.94104 324.369263 323.755768 326.787567 323.359589 C 336.265442 321.806793 345.748199 320.136932 355.296783 319.199493 C 367.235474 318.027466 374.932587 308.340485 377.529968 299.012085 C 380.697266 287.637054 376.535034 276.97229 366.595428 269.472473 C 364.960938 268.701416 363.380432 267.775177 361.683105 267.184784 C 351.518524 263.648987 341.500092 262.72937 333.07251 270.977692 C 329.240082 274.728638 326.041168 279.209076 322.984863 283.654266 C 315.952393 293.882507 306.825836 301.629639 295.952789 307.425171 C 282.504517 314.593384 268.040527 316.785248 252.239914 315.860779 C 248.392426 315.233398 244.184586 315.394867 240.764252 313.832397 C 230.016144 308.922516 219.564194 303.364288 208.488159 297.620941 C 204.369965 293.059326 200.251755 288.497711 196.012466 283.241974 C 194.071884 280.686737 192.131302 278.13147 190.008606 274.989197 C 189.398834 274.2164 188.789047 273.443634 188.119522 271.974274 M 358.706543 160.104599 C 357.137695 159.902145 355.568878 159.699692 353.208038 159.180695 C 351.79306 159.151993 350.378113 159.123291 348.535828 158.772186 C 347.686981 158.839157 346.838135 158.906128 345.235809 158.725372 C 344.18338 158.712982 343.130951 158.700592 341.51358 158.303833 C 327.74231 156.759506 316.082031 149.83255 303.815857 143.074799 C 297.456329 135.267807 290.919098 127.596809 284.802734 119.603767 C 281.024078 114.665718 277.320465 109.914421 270.257721 107.749405 C 255.852844 104.922417 244.92334 107.341637 236.075821 120.596657 C 231.227051 127.860893 225.360321 134.797363 218.731354 140.449249 C 204.412048 152.65799 187.197876 157.677673 168.452255 158.03981 C 155.668579 158.286758 144.692535 167.793701 142.348892 180.04068 C 139.809372 193.311249 146.143951 205.511703 158.487747 211.124329 C 169.994339 216.356277 183.521652 212.642609 191.479492 202.187378 C 196.600876 195.458755 201.866577 188.839996 207.691772 181.921432 C 209.821213 180.004303 211.950653 178.087158 214.693985 176.049774 C 215.467651 175.383255 216.241302 174.716721 217.714569 173.944366 C 219.43631 172.950455 221.153 171.947693 222.880615 170.964127 C 233.158508 165.112595 244.463135 162.738342 256.874115 161.48439 C 259.913208 161.429993 262.952301 161.375595 266.765533 161.697784 C 268.194366 161.751511 269.62323 161.805237 271.447327 162.235291 C 271.966797 162.250687 272.486298 162.266083 273.750641 162.668335 C 276.176849 163.087738 278.603088 163.507141 281.552155 164.401169 C 286.160431 166.264984 291.268524 167.399246 295.273743 170.14328 C 303.815521 175.995407 311.78537 182.682358 320.145386 189.69313 C 322.654358 193.410416 325.245728 197.075104 327.657593 200.85437 C 336.619934 214.897705 354.250153 219.506622 369.555298 207.623627 C 378.077972 201.006561 380.564667 191.550797 378.390594 181.169067 C 376.177002 170.598679 370.124084 163.212936 358.706543 160.104599 M 231.109085 277.046906 C 246.933578 288.634796 263.769196 290.15094 281.455597 281.879456 C 305.369324 270.695618 315.807312 239.572998 303.186554 217.394745 C 300.425385 212.542572 298.885284 212.414124 296.039642 217.087158 C 292.091278 223.571106 286.398071 226.462173 278.887573 226.02449 C 277.265106 225.929947 275.632385 226.011414 273.33728 225.844421 C 262.029846 218.710602 260.302917 209.024551 264.835175 199.393524 C 268.665314 191.254425 268.025726 190.009598 258.641266 190.299667 C 257.810211 190.325333 256.98114 190.412247 256.150879 190.467148 C 234.495331 191.899612 207.523972 213.321136 212.278534 245.761047 C 214.13681 258.440033 220.160034 268.948029 231.109085 277.046906 M 164.999878 89.557785 C 164.647156 90.121506 164.279327 90.676399 163.94397 91.250275 C 158.779251 100.088326 160.74585 111.174179 168.664444 117.883278 C 176.478241 124.503586 187.611984 124.510254 195.700272 117.899445 C 203.329605 111.663757 205.312286 100.453011 200.738068 91.654671 C 195.196625 80.995888 176.843338 74.970375 164.999878 89.557785 M 200.842926 379.231598 C 200.955872 378.406494 201.090881 377.58371 201.178375 376.75592 C 202.082901 368.197449 197.360916 359.843109 189.412979 355.925629 C 182.031784 352.287476 172.857758 353.606659 166.56073 359.211731 C 159.98941 365.060944 157.78923 373.839294 160.871948 381.909241 C 164.118469 390.407959 171.948746 395.797943 180.9216 395.710449 C 189.698883 395.624847 197.312408 389.559052 200.842926 379.231598 M 429.076141 222.295456 C 427.56488 221.604355 426.095947 220.793732 424.535614 220.241318 C 413.463409 216.321243 400.996521 222.789322 398.026154 233.950027 C 394.791992 246.101883 401.870056 257.866852 413.798767 260.16687 C 423.294342 261.997742 432.657715 257.368713 436.652832 248.868317 C 440.975067 239.671906 438.396027 229.967117 429.076141 222.295456 M 317.520416 375.545807 C 317.649078 376.870667 317.674347 378.215302 317.923096 379.517242 C 319.604919 388.319885 327.192352 395.265076 336.14386 396.254913 C 344.940796 397.227692 353.661377 391.948425 357.30069 383.44693 C 360.700745 375.504303 358.26947 365.522888 351.264252 359.942505 C 345.048126 354.990631 338.03891 354.022675 330.563293 356.777313 C 322.214661 359.853729 318.739105 366.480408 317.520416 375.545807 M 85.840034 226.457474 C 85.211876 227.624634 84.485832 228.75032 83.971077 229.965515 C 79.945503 239.468918 83.830132 250.442825 92.866768 255.201935 C 101.968613 259.995361 113.70591 256.89566 119.257874 248.232315 C 124.674103 239.780823 122.449158 228.096558 114.249634 221.931442 C 105.459061 215.32193 94.553383 216.844681 85.840034 226.457474 M 359.012207 107.404724 C 361.812836 91.785011 349.020325 79.168495 334.69278 83.419823 C 324.974091 86.303589 319.146332 94.947296 320.127411 105.023117 C 320.971985 113.696762 328.059601 120.992905 336.528778 121.907166 C 347.971619 123.142441 355.44635 118.557709 359.012207 107.404724 M 430.64859 145.149887 C 431.047424 140.846237 428.798065 137.64505 425.045654 136.895065 C 422.412781 136.368835 418.336487 137.283401 416.708008 139.137939 C 415.078339 140.993851 414.625488 145.268661 415.633484 147.644577 C 416.543884 149.790482 420.003296 151.770996 422.556946 152.092926 C 426.569122 152.598694 429.203125 149.712677 430.64859 145.149887 M 421.716461 327.296448 C 415.141602 329.44812 412.697083 336.028748 417.427277 339.892517 C 419.313324 341.433105 422.958069 341.956726 425.431763 341.373138 C 429.054047 340.518555 430.265594 337.056305 429.679504 333.442474 C 429.040222 329.500336 426.47757 327.469971 421.716461 327.296448 M 90.985809 151.403534 C 94.956192 151.820251 98.426117 150.311386 98.974213 146.456085 C 99.345428 143.844955 98.132294 140.166901 96.286682 138.272781 C 93.257935 135.164429 87.75824 136.73793 85.702271 140.509033 C 83.468636 144.606018 85.20005 148.666122 90.985809 151.403534 M 99.144989 332.407196 C 96.440453 327.595123 92.50843 325.973297 88.729225 328.298859 C 85.208939 330.46521 83.784866 333.634491 85.41217 337.607666 C 86.975044 341.423523 90.285316 342.607605 93.960648 341.701294 C 98.207741 340.653992 100.225571 337.667419 99.144989 332.407196 M 252.765503 54.62619 C 255.385635 54.872299 258.338562 56.003773 260.553253 55.17131 C 264.567047 53.662617 265.674011 48.212574 263.428192 44.5914 C 261.384552 41.296238 256.724792 40.337425 253.411911 42.530411 C 249.493073 45.1245 249.054199 49.366764 252.765503 54.62619 M 253.30217 436.179626 C 259.033966 438.140991 262.479462 437.039215 263.964661 432.769989 C 265.456024 428.483032 263.733307 423.812164 259.625397 423.335938 C 256.960144 423.026917 253.134537 424.126892 251.441132 426.030151 C 248.835602 428.958496 249.495956 432.836731 253.30217 436.179626 z" stroke-linecap="round"/>
</g>
		<g transform="matrix(1 0 0 1 45.9584 68.1752)" id="Layer_1">
<path style="stroke: none; stroke-width: 1; stroke-dasharray: none; stroke-linecap: butt; stroke-dashoffset: 0; stroke-linejoin: miter; stroke-miterlimit: 4; is-custom-font: none; font-file-url: none; fill: rgb(35,191,178); fill-rule: nonzero; opacity: 1;" transform=" translate(-295.9584, -318.1752)" d="M 252.998901 316.076965 C 268.040527 316.785248 282.504517 314.593384 295.952789 307.425171 C 306.825836 301.629639 315.952393 293.882507 322.984863 283.654266 C 326.041168 279.209076 329.240082 274.728638 333.07251 270.977692 C 341.500092 262.72937 351.518524 263.648987 361.683105 267.184784 C 363.380432 267.775177 364.960938 268.701416 366.791077 270.180115 C 366.47049 272.332794 366.333008 274.133453 365.370026 275.159058 C 361.868683 278.888184 358.159637 282.43219 354.396393 285.902344 C 351.281067 288.775085 347.884094 291.343658 344.786499 294.23407 C 341.78598 297.033905 338.957153 300.024658 336.147186 303.019928 C 333.471954 305.871613 331.43985 309.911102 328.18457 311.491974 C 323.723694 313.658325 323.977264 315.710754 325.986389 319.087982 C 326.383209 319.754944 326.309296 320.701965 326.452484 321.519836 C 326.191986 321.63031 325.931488 321.740784 325.671021 321.851257 C 324.753357 320.635895 323.835724 319.420532 322.929291 318.220001 C 318.047333 319.766998 318.023315 319.813385 318.993256 325.747101 C 303.013672 333.278198 291.226288 345.216827 281.743408 359.967133 C 273.97049 372.057739 256.954041 375.434906 245.205338 367.3479 C 241.394196 364.724548 238.811371 360.297821 235.729401 356.643097 C 234.457367 355.134674 233.350342 353.487091 232.087952 351.218811 C 232.350937 348.439362 232.694244 346.343872 233.037552 344.248383 C 230.922302 344.202423 228.807053 344.156433 226.691803 344.110443 C 226.383728 344.108826 226.150345 343.976013 225.941803 343.091614 C 225.593872 340.913971 225.295776 339.356659 225.125732 338.468292 C 228.460663 336.981537 231.521851 336.154633 233.906479 334.405426 C 236.388046 332.585052 237.905441 329.436188 240.40683 327.660431 C 243.730759 325.30072 247.257812 323.460297 247.979523 318.882568 C 248.046417 318.458191 249.770889 318.412659 250.598053 317.958588 C 251.477585 317.475739 252.205048 316.715881 252.998901 316.076965 z" stroke-linecap="round"/>
</g>
		<g transform="matrix(1 0 0 1 -43.7524 -89.788)" id="Layer_1">
<path style="stroke: none; stroke-width: 1; stroke-dasharray: none; stroke-linecap: butt; stroke-dashoffset: 0; stroke-linejoin: miter; stroke-miterlimit: 4; is-custom-font: none; font-file-url: none; fill: rgb(32,203,154); fill-rule: nonzero; opacity: 1;" transform=" translate(-206.2477, -160.212)" d="M 207.067581 182.171982 C 201.866577 188.839996 196.600876 195.458755 191.479492 202.187378 C 183.521652 212.642609 169.994339 216.356277 158.487747 211.124329 C 146.143951 205.511703 139.809372 193.311249 142.348892 180.04068 C 144.692535 167.793701 155.668579 158.286758 168.452255 158.03981 C 187.197876 157.677673 204.412048 152.65799 218.731354 140.449249 C 225.360321 134.797363 231.227051 127.860893 236.075821 120.596657 C 244.92334 107.341637 255.852844 104.922417 270.626251 108.341644 C 270.743652 109.863129 270.795959 111.165825 270.189911 111.658272 C 267.25415 114.04377 263.997559 116.043831 261.131317 118.502975 C 258.14267 121.067169 255.370895 123.907555 252.686554 126.796539 C 249.913895 129.780533 247.499176 133.101776 244.676727 136.033691 C 241.013611 139.838867 237.114883 143.41832 233.293549 147.069763 C 230.552261 149.689194 227.796906 152.295074 225.001465 154.8564 C 222.116501 157.499741 218.939316 159.867477 216.323013 162.748962 C 213.514328 165.842346 211.247513 169.423187 208.649918 172.716934 C 208.185135 173.306274 207.305481 173.699158 206.542831 173.901001 C 202.500809 174.970718 203.55368 176.949417 205.437088 179.254578 C 206.131134 180.104034 206.532639 181.19252 207.067581 182.171982 z" stroke-linecap="round"/>
</g>
		<g transform="matrix(1 0 0 1 -6.7017 -16.6228)" id="Layer_1">
<path style="stroke: none; stroke-width: 1; stroke-dasharray: none; stroke-linecap: butt; stroke-dashoffset: 0; stroke-linejoin: miter; stroke-miterlimit: 4; is-custom-font: none; font-file-url: none; fill: rgb(34,198,164); fill-rule: nonzero; opacity: 1;" transform=" translate(-243.2984, -233.3773)" d="M 230.813553 276.492279 C 220.160034 268.948029 214.13681 258.440033 212.278534 245.761047 C 207.523972 213.321136 234.495331 191.899612 256.150879 190.467148 C 256.98114 190.412247 257.810211 190.325333 258.641266 190.299667 C 268.025726 190.009598 268.665314 191.254425 264.835175 199.393524 C 260.302917 209.024551 262.029846 218.710602 273.817993 226.265625 C 275.467865 229.206665 275.345367 231.135193 272.228149 232.135498 C 271.208527 232.462677 270.29187 233.372543 269.532623 234.202927 C 266.573181 237.439743 263.811066 240.863174 260.762726 244.011124 C 255.260208 249.693466 249.603745 255.22673 244.013809 260.824493 C 241.345215 263.496796 239.08316 266.902435 235.907684 268.653107 C 232.44368 270.562866 231.182709 273.015564 230.813553 276.492279 z" stroke-linecap="round"/>
</g>
		<g transform="matrix(1 0 0 1 19.772 0.3738)" id="Layer_1">
<path style="stroke: none; stroke-width: 1; stroke-dasharray: none; stroke-linecap: butt; stroke-dashoffset: 0; stroke-linejoin: miter; stroke-miterlimit: 4; is-custom-font: none; font-file-url: none; fill: rgb(35,195,171); fill-rule: nonzero; opacity: 1;" transform=" translate(-269.772, -250.3738)" d="M 230.961319 276.769592 C 231.182709 273.015564 232.44368 270.562866 235.907684 268.653107 C 239.08316 266.902435 241.345215 263.496796 244.013809 260.824493 C 249.603745 255.22673 255.260208 249.693466 260.762726 244.011124 C 263.811066 240.863174 266.573181 237.439743 269.532623 234.202927 C 270.29187 233.372543 271.208527 232.462677 272.228149 232.135498 C 275.345367 231.135193 275.467865 229.206665 274.15155 226.349304 C 275.632385 226.011414 277.265106 225.929947 278.887573 226.02449 C 286.398071 226.462173 292.091278 223.571106 296.039642 217.087158 C 298.885284 212.414124 300.425385 212.542572 303.186554 217.394745 C 315.807312 239.572998 305.369324 270.695618 281.455597 281.879456 C 263.769196 290.15094 246.933578 288.634796 230.961319 276.769592 z" stroke-linecap="round"/>
</g>
		<g transform="matrix(1 0 0 1 3.8493 -104.6997)" id="Layer_1">
<path style="stroke: none; stroke-width: 1; stroke-dasharray: none; stroke-linecap: butt; stroke-dashoffset: 0; stroke-linejoin: miter; stroke-miterlimit: 4; is-custom-font: none; font-file-url: none; fill: rgb(33,201,158); fill-rule: nonzero; opacity: 1;" transform=" translate(-253.8492, -145.3002)" d="M 207.379669 182.046707 C 206.532639 181.19252 206.131134 180.104034 205.437088 179.254578 C 203.55368 176.949417 202.500809 174.970718 206.542831 173.901001 C 207.305481 173.699158 208.185135 173.306274 208.649918 172.716934 C 211.247513 169.423187 213.514328 165.842346 216.323013 162.748962 C 218.939316 159.867477 222.116501 157.499741 225.001465 154.8564 C 227.796906 152.295074 230.552261 149.689194 233.293549 147.069763 C 237.114883 143.41832 241.013611 139.838867 244.676727 136.033691 C 247.499176 133.101776 249.913895 129.780533 252.686554 126.796539 C 255.370895 123.907555 258.14267 121.067169 261.131317 118.502975 C 263.997559 116.043831 267.25415 114.04377 270.189911 111.658272 C 270.795959 111.165825 270.743652 109.863129 270.996216 108.553787 C 277.320465 109.914421 281.024078 114.665718 284.802734 119.603767 C 290.919098 127.596809 297.456329 135.267807 303.930603 143.771393 C 302.543427 145.642334 301.142517 146.991455 299.507996 147.936523 C 298.164062 148.713593 296.145111 148.597778 295.112335 149.591599 C 290.287598 154.234436 285.701019 159.12471 281.029297 163.926559 C 278.603088 163.507141 276.176849 163.087738 273.302887 162.254303 C 272.25412 161.846512 271.653076 161.852737 271.052063 161.858978 C 269.62323 161.805237 268.194366 161.751511 266.215942 161.198761 C 262.447998 160.863632 259.229675 161.027527 256.011353 161.191422 C 244.463135 162.738342 233.158508 165.112595 222.880615 170.964127 C 221.153 171.947693 219.43631 172.950455 217.355408 173.647629 C 216.347672 172.774933 215.699112 172.198975 215.050537 171.623016 C 214.727051 173.138687 214.40358 174.654358 214.080093 176.170013 C 211.950653 178.087158 209.821213 180.004303 207.379669 182.046707 z" stroke-linecap="round"/>
</g>
		<g transform="matrix(1 0 0 1 99.6201 -63.4456)" id="Layer_1">
<path style="stroke: none; stroke-width: 1; stroke-dasharray: none; stroke-linecap: butt; stroke-dashoffset: 0; stroke-linejoin: miter; stroke-miterlimit: 4; is-custom-font: none; font-file-url: none; fill: rgb(35,195,172); fill-rule: nonzero; opacity: 1;" transform=" translate(-349.62, -186.5544)" d="M 342.078522 158.688202 C 343.130951 158.700592 344.18338 158.712982 345.787476 159.099823 C 347.213837 159.347717 348.08847 159.221146 348.963135 159.094589 C 350.378113 159.123291 351.79306 159.151993 353.682495 159.664505 C 355.654846 162.410477 357.300903 162.930099 359.191345 160.576462 C 370.124084 163.212936 376.177002 170.598679 378.390594 181.169067 C 380.564667 191.550797 378.077972 201.006561 369.555298 207.623627 C 354.250153 219.506622 336.619934 214.897705 327.657593 200.85437 C 325.245728 197.075104 322.654358 193.410416 320.105469 189.006622 C 323.985382 182.031387 328.827057 176.65654 334.218506 171.488998 C 337.624023 168.224915 343.82785 165.54454 342.078522 158.688202 z" stroke-linecap="round"/>
</g>
		<g transform="matrix(1 0 0 1 -69.6118 46.3118)" id="Layer_1">
<path style="stroke: none; stroke-width: 1; stroke-dasharray: none; stroke-linecap: butt; stroke-dashoffset: 0; stroke-linejoin: miter; stroke-miterlimit: 4; is-custom-font: none; font-file-url: none; fill: rgb(32,197,165); fill-rule: nonzero; opacity: 1;" transform=" translate(-180.3882, -296.3119)" d="M 171.032669 317.927795 C 169.289734 317.878265 167.546799 317.828735 165.317352 317.334717 C 163.897217 316.902557 162.963593 316.914856 162.029984 316.927185 C 161.559433 316.914551 161.088867 316.901947 160.202789 316.391388 C 158.743774 315.639465 157.700317 315.385498 156.656845 315.131531 C 155.178696 314.336884 153.700546 313.542236 152.101776 312.070984 C 152.785095 307.138092 151.870605 302.888458 156.048187 299.069885 C 163.201736 292.531158 169.52211 284.988037 175.551788 277.360352 C 177.819641 274.491455 179.335068 273.609406 182.801361 274.599213 C 184.289124 275.024048 186.368622 273.376709 188.179276 272.670837 C 188.789047 273.443634 189.398834 274.2164 189.950806 275.644501 C 188.660355 281.914246 191.48645 285.372437 196.13356 283.936096 C 200.251755 288.497711 204.369965 293.059326 208.674591 298.188232 C 203.178604 303.893005 197.496185 309.030457 191.653336 314.312958 C 192.413589 315.157715 192.992844 315.557526 193.220245 316.103821 C 193.722534 317.310577 194.047699 318.591095 194.445114 319.841522 C 193.311691 319.784973 192.17691 319.663635 191.045151 319.687073 C 189.368805 319.721802 187.694595 319.859222 186.01947 319.952911 C 185.252151 319.905365 184.484833 319.857849 183.282257 319.38269 C 181.907791 318.944733 180.968582 318.934479 180.029358 318.924225 C 178.942871 318.858398 177.8564 318.792572 176.269958 318.284424 C 174.190887 317.870605 172.611771 317.8992 171.032669 317.927795 z" stroke-linecap="round"/>
</g>
		<g transform="matrix(1 0 0 1 98.5917 48.1219)" id="Layer_1">
<path style="stroke: none; stroke-width: 1; stroke-dasharray: none; stroke-linecap: butt; stroke-dashoffset: 0; stroke-linejoin: miter; stroke-miterlimit: 4; is-custom-font: none; font-file-url: none; fill: rgb(37,190,183); fill-rule: nonzero; opacity: 1;" transform=" translate(-348.5918, -298.1219)" d="M 319.362518 325.755432 C 318.023315 319.813385 318.047333 319.766998 322.929291 318.220001 C 323.835724 319.420532 324.753357 320.635895 325.671021 321.851257 C 325.931488 321.740784 326.191986 321.63031 326.452484 321.519836 C 326.309296 320.701965 326.383209 319.754944 325.986389 319.087982 C 323.977264 315.710754 323.723694 313.658325 328.18457 311.491974 C 331.43985 309.911102 333.471954 305.871613 336.147186 303.019928 C 338.957153 300.024658 341.78598 297.033905 344.786499 294.23407 C 347.884094 291.343658 351.281067 288.775085 354.396393 285.902344 C 358.159637 282.43219 361.868683 278.888184 365.370026 275.159058 C 366.333008 274.133453 366.47049 272.332794 366.97876 270.488312 C 376.535034 276.97229 380.697266 287.637054 377.529968 299.012085 C 374.932587 308.340485 367.235474 318.027466 355.296783 319.199493 C 345.748199 320.136932 336.265442 321.806793 326.787567 323.359589 C 324.369263 323.755768 322.0802 324.94104 319.362518 325.755432 z" stroke-linecap="round"/>
</g>
		<g transform="matrix(1 0 0 1 -67.8742 -148.1522)" id="Layer_1">
<path style="stroke: none; stroke-width: 1; stroke-dasharray: none; stroke-linecap: butt; stroke-dashoffset: 0; stroke-linejoin: miter; stroke-miterlimit: 4; is-custom-font: none; font-file-url: none; fill: rgb(34,207,147); fill-rule: nonzero; opacity: 1;" transform=" translate(-182.1257, -101.8478)" d="M 165.195099 89.253067 C 176.843338 74.970375 195.196625 80.995888 200.738068 91.654671 C 205.312286 100.453011 203.329605 111.663757 195.700272 117.899445 C 187.611984 124.510254 176.478241 124.503586 168.664444 117.883278 C 160.74585 111.174179 158.779251 100.088326 163.94397 91.250275 C 164.279327 90.676399 164.647156 90.121506 165.195099 89.253067 z" stroke-linecap="round"/>
</g>
		<g transform="matrix(1 0 0 1 -69.606 124.8)" id="Layer_1">
<path style="stroke: none; stroke-width: 1; stroke-dasharray: none; stroke-linecap: butt; stroke-dashoffset: 0; stroke-linejoin: miter; stroke-miterlimit: 4; is-custom-font: none; font-file-url: none; fill: rgb(37,195,174); fill-rule: nonzero; opacity: 1;" transform=" translate(-180.394, -374.8001)" d="M 200.745758 379.61261 C 197.312408 389.559052 189.698883 395.624847 180.9216 395.710449 C 171.948746 395.797943 164.118469 390.407959 160.871948 381.909241 C 157.78923 373.839294 159.98941 365.060944 166.56073 359.211731 C 172.857758 353.606659 182.031784 352.287476 189.412979 355.925629 C 197.360916 359.843109 202.082901 368.197449 201.178375 376.75592 C 201.090881 377.58371 200.955872 378.406494 200.745758 379.61261 z" stroke-linecap="round"/>
</g>
		<g transform="matrix(1 0 0 1 167.9703 -10.173)" id="Layer_1">
<path style="stroke: none; stroke-width: 1; stroke-dasharray: none; stroke-linecap: butt; stroke-dashoffset: 0; stroke-linejoin: miter; stroke-miterlimit: 4; is-custom-font: none; font-file-url: none; fill: rgb(39,190,184); fill-rule: nonzero; opacity: 1;" transform=" translate(-417.9703, -239.827)" d="M 429.385864 222.492004 C 438.396027 229.967117 440.975067 239.671906 436.652832 248.868317 C 432.657715 257.368713 423.294342 261.997742 413.798767 260.16687 C 401.870056 257.866852 394.791992 246.101883 398.026154 233.950027 C 400.996521 222.789322 413.463409 216.321243 424.535614 220.241318 C 426.095947 220.793732 427.56488 221.604355 429.385864 222.492004 z" stroke-linecap="round"/>
</g>
		<g transform="matrix(1 0 0 1 88.1754 125.8157)" id="Layer_1">
<path style="stroke: none; stroke-width: 1; stroke-dasharray: none; stroke-linecap: butt; stroke-dashoffset: 0; stroke-linejoin: miter; stroke-miterlimit: 4; is-custom-font: none; font-file-url: none; fill: rgb(39,188,189); fill-rule: nonzero; opacity: 1;" transform=" translate(-338.1754, -375.8157)" d="M 317.530548 375.146912 C 318.739105 366.480408 322.214661 359.853729 330.563293 356.777313 C 338.03891 354.022675 345.048126 354.990631 351.264252 359.942505 C 358.26947 365.522888 360.700745 375.504303 357.30069 383.44693 C 353.661377 391.948425 344.940796 397.227692 336.14386 396.254913 C 327.192352 395.265076 319.604919 388.319885 317.923096 379.517242 C 317.674347 378.215302 317.649078 376.870667 317.530548 375.146912 z" stroke-linecap="round"/>
</g>
		<g transform="matrix(1 0 0 1 61.7432 -83.6352)" id="Layer_1">
<path style="stroke: none; stroke-width: 1; stroke-dasharray: none; stroke-linecap: butt; stroke-dashoffset: 0; stroke-linejoin: miter; stroke-miterlimit: 4; is-custom-font: none; font-file-url: none; fill: rgb(37,198,166); fill-rule: nonzero; opacity: 1;" transform=" translate(-311.7433, -166.3647)" d="M 341.796051 158.496017 C 343.82785 165.54454 337.624023 168.224915 334.218506 171.488998 C 328.827057 176.65654 323.985382 182.031387 320.027588 188.673676 C 311.78537 182.682358 303.815521 175.995407 295.273743 170.14328 C 291.268524 167.399246 286.160431 166.264984 281.29071 164.163864 C 285.701019 159.12471 290.287598 154.234436 295.112335 149.591599 C 296.145111 148.597778 298.164062 148.713593 299.507996 147.936523 C 301.142517 146.991455 302.543427 145.642334 304.088867 144.055756 C 316.082031 149.83255 327.74231 156.759506 341.796051 158.496017 z" stroke-linecap="round"/>
</g>
		<g transform="matrix(1 0 0 1 -30.5442 70.647)" id="Layer_1">
<path style="stroke: none; stroke-width: 1; stroke-dasharray: none; stroke-linecap: butt; stroke-dashoffset: 0; stroke-linejoin: miter; stroke-miterlimit: 4; is-custom-font: none; font-file-url: none; fill: rgb(36,195,172); fill-rule: nonzero; opacity: 1;" transform=" translate(-219.4558, -320.6471)" d="M 186.292191 320.190369 C 187.694595 319.859222 189.368805 319.721802 191.045151 319.687073 C 192.17691 319.663635 193.311691 319.784973 194.445114 319.841522 C 194.047699 318.591095 193.722534 317.310577 193.220245 316.103821 C 192.992844 315.557526 192.413589 315.157715 191.653336 314.312958 C 197.496185 309.030457 203.178604 303.893005 208.929291 298.406342 C 219.564194 303.364288 230.016144 308.922516 240.764252 313.832397 C 244.184586 315.394867 248.392426 315.233398 252.619415 315.968872 C 252.205048 316.715881 251.477585 317.475739 250.598053 317.958588 C 249.770889 318.412659 248.046417 318.458191 247.979523 318.882568 C 247.257812 323.460297 243.730759 325.30072 240.40683 327.660431 C 237.905441 329.436188 236.388046 332.585052 233.906479 334.405426 C 231.521851 336.154633 228.460663 336.981537 225.125732 338.468292 C 225.295776 339.356659 225.593872 340.913971 225.894806 342.887787 C 217.746307 336.052063 209.544983 328.850464 199.175827 324.833862 C 195.02594 323.226379 190.771667 321.888458 186.292191 320.190369 z" stroke-linecap="round"/>
</g>
		<g transform="matrix(1 0 0 1 -147.6991 -12.333)" id="Layer_1">
<path style="stroke: none; stroke-width: 1; stroke-dasharray: none; stroke-linecap: butt; stroke-dashoffset: 0; stroke-linejoin: miter; stroke-miterlimit: 4; is-custom-font: none; font-file-url: none; fill: rgb(35,205,153); fill-rule: nonzero; opacity: 1;" transform=" translate(-102.301, -237.667)" d="M 86.038544 226.150146 C 94.553383 216.844681 105.459061 215.32193 114.249634 221.931442 C 122.449158 228.096558 124.674103 239.780823 119.257874 248.232315 C 113.70591 256.89566 101.968613 259.995361 92.866768 255.201935 C 83.830132 250.442825 79.945503 239.468918 83.971077 229.965515 C 84.485832 228.75032 85.211876 227.624634 86.038544 226.150146 z" stroke-linecap="round"/>
</g>
		<g transform="matrix(1 0 0 1 89.685 -147.6548)" id="Layer_1">
<path style="stroke: none; stroke-width: 1; stroke-dasharray: none; stroke-linecap: butt; stroke-dashoffset: 0; stroke-linejoin: miter; stroke-miterlimit: 4; is-custom-font: none; font-file-url: none; fill: rgb(36,200,163); fill-rule: nonzero; opacity: 1;" transform=" translate(-339.6849, -102.3452)" d="M 358.943848 107.802605 C 355.44635 118.557709 347.971619 123.142441 336.528778 121.907166 C 328.059601 120.992905 320.971985 113.696762 320.127411 105.023117 C 319.146332 94.947296 324.974091 86.303589 334.69278 83.419823 C 349.020325 79.168495 361.812836 91.785011 358.943848 107.802605 z" stroke-linecap="round"/>
</g>
		<g transform="matrix(1 0 0 1 -85.2268 37.6614)" id="Layer_1">
<path style="stroke: none; stroke-width: 1; stroke-dasharray: none; stroke-linecap: butt; stroke-dashoffset: 0; stroke-linejoin: miter; stroke-miterlimit: 4; is-custom-font: none; font-file-url: none; fill: rgb(32,199,161); fill-rule: nonzero; opacity: 1;" transform=" translate(-164.7732, -287.6614)" d="M 188.149399 272.322571 C 186.368622 273.376709 184.289124 275.024048 182.801361 274.599213 C 179.335068 273.609406 177.819641 274.491455 175.551788 277.360352 C 169.52211 284.988037 163.201736 292.531158 156.048187 299.069885 C 151.870605 302.888458 152.785095 307.138092 151.957733 311.787262 C 136.182678 300.779633 138.533875 274.819183 155.983688 266.538605 C 168.041351 260.816833 178.525208 263.558594 188.149399 272.322571 z" stroke-linecap="round"/>
</g>
		<g transform="matrix(1 0 0 1 172.869 -105.551)" id="Layer_1">
<path style="stroke: none; stroke-width: 1; stroke-dasharray: none; stroke-linecap: butt; stroke-dashoffset: 0; stroke-linejoin: miter; stroke-miterlimit: 4; is-custom-font: none; font-file-url: none; fill: rgb(48,196,178); fill-rule: nonzero; opacity: 1;" transform=" translate(-422.8691, -144.449)" d="M 430.576721 145.518051 C 429.203125 149.712677 426.569122 152.598694 422.556946 152.092926 C 420.003296 151.770996 416.543884 149.790482 415.633484 147.644577 C 414.625488 145.268661 415.078339 140.993851 416.708008 139.137939 C 418.336487 137.283401 422.412781 136.368835 425.045654 136.895065 C 428.798065 137.64505 431.047424 140.846237 430.576721 145.518051 z" stroke-linecap="round"/>
</g>
		<g transform="matrix(1 0 0 1 172.4017 84.4481)" id="Layer_1">
<path style="stroke: none; stroke-width: 1; stroke-dasharray: none; stroke-linecap: butt; stroke-dashoffset: 0; stroke-linejoin: miter; stroke-miterlimit: 4; is-custom-font: none; font-file-url: none; fill: rgb(53,189,196); fill-rule: nonzero; opacity: 1;" transform=" translate(-422.4016, -334.4482)" d="M 422.097839 327.290833 C 426.47757 327.469971 429.040222 329.500336 429.679504 333.442474 C 430.265594 337.056305 429.054047 340.518555 425.431763 341.373138 C 422.958069 341.956726 419.313324 341.433105 417.427277 339.892517 C 412.697083 336.028748 415.141602 329.44812 422.097839 327.290833 z" stroke-linecap="round"/>
</g>
		<g transform="matrix(1 0 0 1 -158.1032 -105.9857)" id="Layer_1">
<path style="stroke: none; stroke-width: 1; stroke-dasharray: none; stroke-linecap: butt; stroke-dashoffset: 0; stroke-linejoin: miter; stroke-miterlimit: 4; is-custom-font: none; font-file-url: none; fill: rgb(44,210,148); fill-rule: nonzero; opacity: 1;" transform=" translate(-91.8968, -144.0143)" d="M 90.629059 151.314545 C 85.20005 148.666122 83.468636 144.606018 85.702271 140.509033 C 87.75824 136.73793 93.257935 135.164429 96.286682 138.272781 C 98.132294 140.166901 99.345428 143.844955 98.974213 146.456085 C 98.426117 150.311386 94.956192 151.820251 90.629059 151.314545 z" stroke-linecap="round"/>
</g>
		<g transform="matrix(1 0 0 1 -157.8834 84.6258)" id="Layer_1">
<path style="stroke: none; stroke-width: 1; stroke-dasharray: none; stroke-linecap: butt; stroke-dashoffset: 0; stroke-linejoin: miter; stroke-miterlimit: 4; is-custom-font: none; font-file-url: none; fill: rgb(37,198,166); fill-rule: nonzero; opacity: 1;" transform=" translate(-92.1167, -334.6258)" d="M 99.249237 332.768341 C 100.225571 337.667419 98.207741 340.653992 93.960648 341.701294 C 90.285316 342.607605 86.975044 341.423523 85.41217 337.607666 C 83.784866 333.634491 85.208939 330.46521 88.729225 328.298859 C 92.50843 325.973297 96.440453 327.595123 99.249237 332.768341 z" stroke-linecap="round"/>
</g>
		<g transform="matrix(1 0 0 1 7.3714 -201.5914)" id="Layer_1">
<path style="stroke: none; stroke-width: 1; stroke-dasharray: none; stroke-linecap: butt; stroke-dashoffset: 0; stroke-linejoin: miter; stroke-miterlimit: 4; is-custom-font: none; font-file-url: none; fill: rgb(44,210,148); fill-rule: nonzero; opacity: 1;" transform=" translate(-257.3715, -48.4087)" d="M 252.488297 54.38213 C 249.054199 49.366764 249.493073 45.1245 253.411911 42.530411 C 256.724792 40.337425 261.384552 41.296238 263.428192 44.5914 C 265.674011 48.212574 264.567047 53.662617 260.553253 55.17131 C 258.338562 56.003773 255.385635 54.872299 252.488297 54.38213 z" stroke-linecap="round"/>
</g>
		<g transform="matrix(1 0 0 1 7.1746 180.1663)" id="Layer_1">
<path style="stroke: none; stroke-width: 1; stroke-dasharray: none; stroke-linecap: butt; stroke-dashoffset: 0; stroke-linejoin: miter; stroke-miterlimit: 4; is-custom-font: none; font-file-url: none; fill: rgb(39,188,189); fill-rule: nonzero; opacity: 1;" transform=" translate(-257.1746, -430.1662)" d="M 253.007019 435.950439 C 249.495956 432.836731 248.835602 428.958496 251.441132 426.030151 C 253.134537 424.126892 256.960144 423.026917 259.625397 423.335938 C 263.733307 423.812164 265.456024 428.483032 263.964661 432.769989 C 262.479462 437.039215 259.033966 438.140991 253.007019 435.950439 z" stroke-linecap="round"/>
</g>
		<g transform="matrix(1 0 0 1 -20.0744 97.5671)" id="Layer_1">
<path style="stroke: none; stroke-width: 1; stroke-dasharray: none; stroke-linecap: butt; stroke-dashoffset: 0; stroke-linejoin: miter; stroke-miterlimit: 4; is-custom-font: none; font-file-url: none; fill: rgb(36,195,172); fill-rule: nonzero; opacity: 1;" transform=" translate(-229.9256, -347.5671)" d="M 226.813599 344.434937 C 228.807053 344.156433 230.922302 344.202423 233.037552 344.248383 C 232.694244 346.343872 232.350937 348.439362 231.94809 350.920349 C 230.237518 349.123718 228.586456 346.941559 226.813599 344.434937 z" stroke-linecap="round"/>
</g>
		<g transform="matrix(1 0 0 1 -57.1185 29.9983)" id="Layer_1">
<path style="stroke: none; stroke-width: 1; stroke-dasharray: none; stroke-linecap: butt; stroke-dashoffset: 0; stroke-linejoin: miter; stroke-miterlimit: 4; is-custom-font: none; font-file-url: none; fill: rgb(32,199,161); fill-rule: nonzero; opacity: 1;" transform=" translate(-192.8815, -279.9983)" d="M 196.073013 283.58905 C 191.48645 285.372437 188.660355 281.914246 190.04187 275.937988 C 192.131302 278.13147 194.071884 280.686737 196.073013 283.58905 z" stroke-linecap="round"/>
</g>
		<g transform="matrix(1 0 0 1 11.1358 -88.8334)" id="Layer_1">
<path style="stroke: none; stroke-width: 1; stroke-dasharray: none; stroke-linecap: butt; stroke-dashoffset: 0; stroke-linejoin: miter; stroke-miterlimit: 4; is-custom-font: none; font-file-url: none; fill: rgb(37,198,166); fill-rule: nonzero; opacity: 1;" transform=" translate(-261.1358, -161.1666)" d="M 256.442749 161.337906 C 259.229675 161.027527 262.447998 160.863632 265.828857 161.010468 C 262.952301 161.375595 259.913208 161.429993 256.442749 161.337906 z" stroke-linecap="round"/>
</g>
		<g transform="matrix(1 0 0 1 -34.3037 -76.1336)" id="Layer_1">
<path style="stroke: none; stroke-width: 1; stroke-dasharray: none; stroke-linecap: butt; stroke-dashoffset: 0; stroke-linejoin: miter; stroke-miterlimit: 4; is-custom-font: none; font-file-url: none; fill: rgb(32,203,154); fill-rule: nonzero; opacity: 1;" transform=" translate(-215.6963, -173.8665)" d="M 214.387039 176.109894 C 214.40358 174.654358 214.727051 173.138687 215.050537 171.623016 C 215.699112 172.198975 216.347672 172.774933 217.005615 173.700546 C 216.241302 174.716721 215.467651 175.383255 214.387039 176.109894 z" stroke-linecap="round"/>
</g>
		<g transform="matrix(1 0 0 1 106.5137 -89.0852)" id="Layer_1">
<path style="stroke: none; stroke-width: 1; stroke-dasharray: none; stroke-linecap: butt; stroke-dashoffset: 0; stroke-linejoin: miter; stroke-miterlimit: 4; is-custom-font: none; font-file-url: none; fill: rgb(37,198,166); fill-rule: nonzero; opacity: 1;" transform=" translate(-356.5137, -160.9149)" d="M 358.948944 160.34053 C 357.300903 162.930099 355.654846 162.410477 354.078491 159.822784 C 355.568878 159.699692 357.137695 159.902145 358.948944 160.34053 z" stroke-linecap="round"/>
</g>
		<g transform="matrix(1 0 0 1 -76.3916 68.1358)" id="Layer_1">
<path style="stroke: none; stroke-width: 1; stroke-dasharray: none; stroke-linecap: butt; stroke-dashoffset: 0; stroke-linejoin: miter; stroke-miterlimit: 4; is-custom-font: none; font-file-url: none; fill: rgb(36,195,172); fill-rule: nonzero; opacity: 1;" transform=" translate(-173.6085, -318.1358)" d="M 171.33194 318.128235 C 172.611771 317.8992 174.190887 317.870605 175.884979 318.142944 C 174.543701 318.405457 173.087463 318.367065 171.33194 318.128235 z" stroke-linecap="round"/>
</g>
		<g transform="matrix(1 0 0 1 -86.4038 67.1436)" id="Layer_1">
<path style="stroke: none; stroke-width: 1; stroke-dasharray: none; stroke-linecap: butt; stroke-dashoffset: 0; stroke-linejoin: miter; stroke-miterlimit: 4; is-custom-font: none; font-file-url: none; fill: rgb(36,195,172); fill-rule: nonzero; opacity: 1;" transform=" translate(-163.5961, -317.1436)" d="M 162.275574 317.125946 C 162.963593 316.914856 163.897217 316.902557 164.916687 317.160461 C 164.17543 317.395325 163.348312 317.360046 162.275574 317.125946 z" stroke-linecap="round"/>
</g>
		<g transform="matrix(1 0 0 1 -68.4079 69.1927)" id="Layer_1">
<path style="stroke: none; stroke-width: 1; stroke-dasharray: none; stroke-linecap: butt; stroke-dashoffset: 0; stroke-linejoin: miter; stroke-miterlimit: 4; is-custom-font: none; font-file-url: none; fill: rgb(36,195,172); fill-rule: nonzero; opacity: 1;" transform=" translate(-181.5921, -319.1927)" d="M 180.260193 319.148743 C 180.968582 318.934479 181.907791 318.944733 182.924057 319.235138 C 182.164413 319.467926 181.327713 319.420593 180.260193 319.148743 z" stroke-linecap="round"/>
</g>
		<g transform="matrix(1 0 0 1 97.4568 -90.9173)" id="Layer_1">
<path style="stroke: none; stroke-width: 1; stroke-dasharray: none; stroke-linecap: butt; stroke-dashoffset: 0; stroke-linejoin: miter; stroke-miterlimit: 4; is-custom-font: none; font-file-url: none; fill: rgb(37,198,166); fill-rule: nonzero; opacity: 1;" transform=" translate(-347.4569, -159.0826)" d="M 348.749481 158.93338 C 348.08847 159.221146 347.213837 159.347717 346.164246 159.223679 C 346.838135 158.906128 347.686981 158.839157 348.749481 158.93338 z" stroke-linecap="round"/>
</g>
		<g transform="matrix(1 0 0 1 -91.6228 65.7958)" id="Layer_1">
<path style="stroke: none; stroke-width: 1; stroke-dasharray: none; stroke-linecap: butt; stroke-dashoffset: 0; stroke-linejoin: miter; stroke-miterlimit: 4; is-custom-font: none; font-file-url: none; fill: rgb(36,195,172); fill-rule: nonzero; opacity: 1;" transform=" translate(-158.3772, -315.7958)" d="M 156.860321 315.379364 C 157.700317 315.385498 158.743774 315.639465 159.894073 316.211487 C 159.021881 316.22876 158.042847 315.927979 156.860321 315.379364 z" stroke-linecap="round"/>
</g>
		<g transform="matrix(1 0 0 1 22.0901 -87.9459)" id="Layer_1">
<path style="stroke: none; stroke-width: 1; stroke-dasharray: none; stroke-linecap: butt; stroke-dashoffset: 0; stroke-linejoin: miter; stroke-miterlimit: 4; is-custom-font: none; font-file-url: none; fill: rgb(37,198,166); fill-rule: nonzero; opacity: 1;" transform=" translate(-272.0901, -162.0541)" d="M 271.249695 162.047119 C 271.653076 161.852737 272.25412 161.846512 272.93045 162.060883 C 272.486298 162.266083 271.966797 162.250687 271.249695 162.047119 z" stroke-linecap="round"/>
</g>
</g>
</g>
<g transform="matrix(1 0 0 1 621.8913 499.8388)" style="" id="526221">
		
<path xml:space="preserve" font-family="Lato" font-size="130" font-style="normal" font-weight="bold" style="stroke: none; stroke-width: 1; stroke-dasharray: none; stroke-linecap: butt; stroke-dashoffset: 0; stroke-linejoin: miter; stroke-miterlimit: 4; is-custom-font: none; font-file-url: none; fill: rgb(89,89,89); fill-rule: nonzero; opacity: 1; white-space: pre;" d="M-286.42-53.15L-227.14-53.15L-227.14-39.24L-268.81-39.24L-268.81-13.18L-235.98-13.18L-235.98 0.28L-268.81 0.28L-268.81 26.86L-227.14 26.86L-227.14 40.84L-286.42 40.84L-286.42-53.15ZM-152.91-25.85L-189.25 59.17Q-189.96 60.86-191.10 61.74Q-192.24 62.61-194.58 62.61L-194.58 62.61L-206.54 62.61L-194.06 35.90L-221.03-25.85L-206.99-25.85Q-205.04-25.85-204.00-24.94Q-202.96-24.03-202.44-22.86L-202.44-22.86L-188.21 11.72Q-187.49 13.41-186.97 15.23Q-186.45 17.05-186.06 18.87L-186.06 18.87Q-185.54 16.98-184.92 15.23Q-184.31 13.47-183.59 11.65L-183.59 11.65L-170.20-22.86Q-169.68-24.16-168.48-25.01Q-167.28-25.85-165.78-25.85L-165.78-25.85L-152.91-25.85ZM-118.14-26.89L-118.14-26.89Q-111.83-26.89-106.53-24.88Q-101.24-22.86-97.40-18.99Q-93.57-15.13-91.42-9.50Q-89.28-3.88-89.28 3.33L-89.28 3.33Q-89.28 5.15-89.44 6.36Q-89.60 7.56-90.02 8.24Q-90.45 8.92-91.16 9.22Q-91.88 9.51-92.98 9.51L-92.98 9.51L-134.19 9.51Q-133.48 19.78-128.67 24.59Q-123.86 29.40-115.93 29.40L-115.93 29.40Q-112.03 29.40-109.20 28.49Q-106.37 27.58-104.26 26.47Q-102.15 25.37-100.55 24.46Q-98.96 23.55-97.47 23.55L-97.47 23.55Q-96.49 23.55-95.78 23.94Q-95.06 24.33-94.54 25.04L-94.54 25.04L-89.86 30.89Q-92.53 34.01-95.84 36.13Q-99.16 38.24-102.76 39.51Q-106.37 40.77-110.11 41.29Q-113.85 41.81-117.36 41.81L-117.36 41.81Q-124.31 41.81-130.29 39.51Q-136.27 37.20-140.69 32.68Q-145.11 28.16-147.65 21.50Q-150.18 14.84-150.18 6.06L-150.18 6.06Q-150.18-0.76-147.97-6.77Q-145.76-12.79-141.63-17.24Q-137.51-21.69-131.56-24.29Q-125.61-26.89-118.14-26.89ZM-117.81-15.39L-117.81-15.39Q-124.83-15.39-128.80-11.42Q-132.76-7.46-133.87-0.18L-133.87-0.18L-103.71-0.18Q-103.71-3.30-104.55-6.06Q-105.40-8.82-107.15-10.90Q-108.91-12.98-111.57-14.18Q-114.24-15.39-117.81-15.39ZM-66.14-53.15L-66.14-53.15Q-64.97-53.15-64.19-53.05Q-63.41-52.96-62.79-52.66Q-62.17-52.37-61.59-51.82Q-61.00-51.27-60.29-50.36L-60.29-50.36L-10.95 12.50Q-11.21 10.22-11.31 8.05Q-11.41 5.87-11.41 3.98L-11.41 3.98L-11.41-53.15L4.00-53.15L4.00 40.84L-5.04 40.84Q-7.12 40.84-8.48 40.19Q-9.85 39.54-11.15 37.85L-11.15 37.85L-60.29-24.75Q-60.09-22.67-59.99-20.62Q-59.90-18.57-59.90-16.88L-59.90-16.88L-59.90 40.84L-75.30 40.84L-75.30-53.15L-66.14-53.15ZM49.63-26.89L49.63-26.89Q55.93-26.89 61.23-24.88Q66.53-22.86 70.36-18.99Q74.20-15.13 76.34-9.50Q78.49-3.88 78.49 3.33L78.49 3.33Q78.49 5.15 78.33 6.36Q78.16 7.56 77.74 8.24Q77.32 8.92 76.60 9.22Q75.89 9.51 74.78 9.51L74.78 9.51L33.57 9.51Q34.29 19.78 39.10 24.59Q43.91 29.40 51.84 29.40L51.84 29.40Q55.74 29.40 58.57 28.49Q61.39 27.58 63.51 26.47Q65.62 25.37 67.21 24.46Q68.80 23.55 70.30 23.55L70.30 23.55Q71.27 23.55 71.99 23.94Q72.70 24.33 73.22 25.04L73.22 25.04L77.90 30.89Q75.24 34.01 71.92 36.13Q68.61 38.24 65.00 39.51Q61.39 40.77 57.66 41.29Q53.92 41.81 50.41 41.81L50.41 41.81Q43.45 41.81 37.47 39.51Q31.49 37.20 27.07 32.68Q22.65 28.16 20.12 21.50Q17.58 14.84 17.58 6.06L17.58 6.06Q17.58-0.76 19.79-6.77Q22.00-12.79 26.13-17.24Q30.26-21.69 36.21-24.29Q42.15-26.89 49.63-26.89ZM49.95-15.39L49.95-15.39Q42.93-15.39 38.97-11.42Q35.00-7.46 33.90-0.18L33.90-0.18L64.06-0.18Q64.06-3.30 63.21-6.06Q62.37-8.82 60.61-10.90Q58.86-12.98 56.19-14.18Q53.53-15.39 49.95-15.39ZM113.46 41.88L113.46 41.88Q104.81 41.88 100.13 36.97Q95.45 32.06 95.45 23.42L95.45 23.42L95.45-13.83L88.69-13.83Q87.39-13.83 86.45-14.67Q85.51-15.52 85.51-17.21L85.51-17.21L85.51-23.58L96.23-25.33L99.61-43.53Q99.87-44.83 100.82-45.55Q101.76-46.26 103.19-46.26L103.19-46.26L111.51-46.26L111.51-25.27L129.06-25.27L129.06-13.83L111.51-13.83L111.51 22.31Q111.51 25.43 113.07 27.19Q114.63 28.94 117.23 28.94L117.23 28.94Q118.72 28.94 119.73 28.59Q120.74 28.23 121.49 27.84Q122.23 27.45 122.82 27.09Q123.40 26.73 123.99 26.73L123.99 26.73Q124.70 26.73 125.16 27.09Q125.61 27.45 126.13 28.16L126.13 28.16L130.94 35.96Q127.43 38.89 122.88 40.38Q118.33 41.88 113.46 41.88ZM142.90-25.85L158.96-25.85L158.96 40.84L142.90 40.84L142.90-25.85ZM161.36-45.29L161.36-45.29Q161.36-43.21 160.52-41.39Q159.67-39.57 158.28-38.20Q156.88-36.84 154.99-36.02Q153.11-35.21 150.96-35.21L150.96-35.21Q148.88-35.21 147.03-36.02Q145.18-36.84 143.81-38.20Q142.45-39.57 141.64-41.39Q140.82-43.21 140.82-45.29L140.82-45.29Q140.82-47.43 141.64-49.32Q142.45-51.20 143.81-52.57Q145.18-53.93 147.03-54.74Q148.88-55.56 150.96-55.56L150.96-55.56Q153.11-55.56 154.99-54.74Q156.88-53.93 158.28-52.57Q159.67-51.20 160.52-49.32Q161.36-47.43 161.36-45.29ZM228.18-17.60L223.96-11.75Q223.24-10.84 222.56-10.32Q221.88-9.80 220.58-9.80L220.58-9.80Q219.34-9.80 218.17-10.54Q217.00-11.29 215.38-12.23Q213.75-13.18 211.51-13.92Q209.27-14.67 205.95-14.67L205.95-14.67Q201.73-14.67 198.54-13.14Q195.36-11.62 193.25-8.76Q191.13-5.90 190.09-1.83Q189.05 2.23 189.05 7.36L189.05 7.36Q189.05 12.69 190.19 16.85Q191.33 21.01 193.47 23.84Q195.62 26.67 198.67 28.13Q201.73 29.59 205.56 29.59L205.56 29.59Q209.40 29.59 211.77 28.65Q214.14 27.71 215.77 26.57Q217.39 25.43 218.60 24.49Q219.80 23.55 221.29 23.55L221.29 23.55Q223.24 23.55 224.22 25.04L224.22 25.04L228.83 30.89Q226.17 34.01 223.05 36.13Q219.93 38.24 216.58 39.51Q213.23 40.77 209.66 41.29Q206.08 41.81 202.57 41.81L202.57 41.81Q196.40 41.81 190.94 39.51Q185.48 37.20 181.42 32.78Q177.35 28.36 174.98 21.96Q172.61 15.55 172.61 7.36L172.61 7.36Q172.61 0.02 174.72-6.25Q176.83-12.53 180.93-17.11Q185.02-21.69 191.07-24.29Q197.11-26.89 204.98-26.89L204.98-26.89Q212.45-26.89 218.08-24.49Q223.70-22.08 228.18-17.60L228.18-17.60ZM282.33-18.64L278.69-12.85Q278.04-11.81 277.32-11.39Q276.61-10.97 275.50-10.97L275.50-10.97Q274.33-10.97 273.00-11.62Q271.67-12.27 269.91-13.08Q268.16-13.89 265.92-14.54Q263.67-15.19 260.62-15.19L260.62-15.19Q255.87-15.19 253.14-13.18Q250.41-11.16 250.41-7.91L250.41-7.91Q250.41-5.77 251.81-4.30Q253.21-2.84 255.52-1.74Q257.82-0.63 260.75 0.25Q263.67 1.12 266.73 2.16Q269.78 3.20 272.71 4.54Q275.63 5.87 277.94 7.92Q280.25 9.96 281.65 12.82Q283.04 15.68 283.04 19.71L283.04 19.71Q283.04 24.52 281.29 28.59Q279.53 32.65 276.15 35.61Q272.77 38.56 267.80 40.22Q262.83 41.88 256.39 41.88L256.39 41.88Q252.95 41.88 249.67 41.26Q246.38 40.64 243.36 39.54Q240.34 38.43 237.77 36.94Q235.20 35.44 233.25 33.69L233.25 33.69L236.96 27.58Q237.67 26.47 238.65 25.89Q239.62 25.30 241.12 25.30L241.12 25.30Q242.61 25.30 243.95 26.15Q245.28 26.99 247.03 27.97Q248.79 28.94 251.16 29.79Q253.53 30.63 257.17 30.63L257.17 30.63Q260.03 30.63 262.08 29.95Q264.13 29.27 265.46 28.16Q266.79 27.06 267.41 25.60Q268.03 24.13 268.03 22.57L268.03 22.57Q268.03 20.23 266.63 18.74Q265.23 17.24 262.93 16.14Q260.62 15.03 257.66 14.16Q254.70 13.28 251.62 12.24Q248.53 11.20 245.57 9.80Q242.61 8.40 240.31 6.26Q238.00 4.11 236.60 0.99Q235.20-2.13 235.20-6.55L235.20-6.55Q235.20-10.64 236.83-14.35Q238.45-18.05 241.61-20.81Q244.76-23.58 249.47-25.23Q254.18-26.89 260.36-26.89L260.36-26.89Q267.25-26.89 272.90-24.62Q278.56-22.34 282.33-18.64L282.33-18.64Z"/></g>
</svg>