<svg width="31" height="30" viewBox="0 0 31 30" fill="none" xmlns="http://www.w3.org/2000/svg">
<path d="M16.296 15.4266V10.4545C16.2599 10.2725 16.1607 10.1086 16.0153 9.99076C15.8699 9.8729 15.6874 9.80847 15.4991 9.80847C15.3107 9.80847 15.1283 9.8729 14.9829 9.99076C14.8375 10.1086 14.7383 10.2725 14.7022 10.4545V14.8346L12.7777 16.7288C12.6993 16.8008 12.6369 16.8878 12.5942 16.9845C12.5515 17.0813 12.5295 17.1856 12.5295 17.2911C12.5295 17.3965 12.5515 17.5009 12.5942 17.5976C12.6369 17.6943 12.6993 17.7814 12.7777 17.8534C12.9282 17.9928 13.1272 18.0705 13.334 18.0705C13.5407 18.0705 13.7397 17.9928 13.8903 17.8534L16.2659 15.4857L16.296 15.4266Z" fill="url(#paint0_linear_311_866)"/>
<path d="M15.3936 0.184692C12.4198 0.184692 9.51265 1.05257 7.03996 2.67857C4.56727 4.30457 2.64005 6.61568 1.50199 9.31962C0.363941 12.0236 0.0661686 14.9989 0.646343 17.8694C1.22652 20.7399 2.65858 23.3766 4.76143 25.4461C6.86428 27.5156 9.54347 28.925 12.4602 29.4959C15.3769 30.0669 18.4002 29.7739 21.1477 28.6538C23.8952 27.5338 26.2436 25.6372 27.8957 23.2037C29.5479 20.7702 30.4298 17.9092 30.4298 14.9825C30.4298 11.0579 28.8456 7.29399 26.0258 4.51887C23.206 1.74375 19.3815 0.184692 15.3936 0.184692ZM15.3936 26.2288C13.1085 26.2111 10.8801 25.5266 8.99052 24.2619C7.10091 22.9972 5.63505 21.2092 4.77852 19.1242C3.92199 17.0392 3.7133 14.751 4.17885 12.5492C4.6444 10.3474 5.76325 8.33105 7.39379 6.75538C9.02434 5.17972 11.0933 4.11558 13.3386 3.69767C15.584 3.27977 17.9049 3.5269 20.0075 4.40776C22.1101 5.28862 23.8998 6.76363 25.1502 8.64604C26.4006 10.5285 27.0554 12.7336 27.0316 14.9825C27.024 16.4823 26.7132 17.9656 26.1173 19.346C25.5215 20.7265 24.6525 21.9764 23.561 23.0231C22.4694 24.0698 21.1772 24.8923 19.7595 25.4426C18.3418 25.993 16.8271 26.2602 15.3034 26.2288H15.3936Z" fill="url(#paint1_linear_311_866)"/>
<defs>
<linearGradient id="paint0_linear_311_866" x1="186.238" y1="589.717" x2="428.986" y2="589.717" gradientUnits="userSpaceOnUse">
<stop stop-color="#B86EB9"/>
<stop offset="1" stop-color="#6A82FB"/>
</linearGradient>
<linearGradient id="paint1_linear_311_866" x1="1387.3" y1="2077.5" x2="3325.46" y2="2077.5" gradientUnits="userSpaceOnUse">
<stop stop-color="#B86EB9"/>
<stop offset="1" stop-color="#6A82FB"/>
</linearGradient>
</defs>
</svg>
