<svg width="26" height="34" viewBox="0 0 26 34" fill="none" xmlns="http://www.w3.org/2000/svg">
<path d="M18.9268 28.6589H6.89779C6.75054 28.6548 6.60399 28.6803 6.46712 28.7339C6.33024 28.7875 6.20593 28.868 6.10176 28.9705C5.9976 29.073 5.91579 29.1954 5.86134 29.3301C5.80689 29.4648 5.78095 29.609 5.7851 29.7539C5.78108 29.9001 5.8069 30.0457 5.86102 30.182C5.91513 30.3183 5.99646 30.4426 6.10018 30.5474C6.20391 30.6522 6.32792 30.7356 6.46491 30.7924C6.60191 30.8493 6.7491 30.8785 6.89779 30.8785H10.3561V31.204C10.3561 31.7064 10.5589 32.1881 10.9198 32.5434C11.2808 32.8986 11.7703 33.0981 12.2808 33.0981H13.5739C13.8278 33.1021 14.0799 33.0559 14.3152 32.9621C14.5505 32.8683 14.7643 32.7289 14.9439 32.5522C15.1234 32.3756 15.265 32.1652 15.3603 31.9336C15.4556 31.702 15.5026 31.4539 15.4985 31.204V30.8785H18.9268C19.2299 30.8785 19.5205 30.76 19.7348 30.5491C19.9492 30.3382 20.0695 30.0521 20.0695 29.7539C20.0696 29.6075 20.0399 29.4627 19.9821 29.3279C19.9243 29.1931 19.8396 29.071 19.7331 28.9689C19.6266 28.8668 19.5003 28.7868 19.3619 28.7336C19.2234 28.6803 19.0754 28.6549 18.9268 28.6589Z" fill="url(#paint0_linear_311_879)"/>
<path d="M21.2122 3.11792C18.7428 0.971802 15.5146 -0.131802 12.2251 0.0456067C8.93564 0.223016 5.84923 1.66721 3.63298 4.06604C1.41674 6.46487 0.248674 9.6256 0.381265 12.8651C0.513855 16.1047 1.93646 19.1627 4.34157 21.3784C5.02112 21.8854 5.57459 22.5379 5.96013 23.2865C6.34567 24.0351 6.55316 24.8602 6.56691 25.6993V26.1137C6.56691 26.3727 6.67148 26.6211 6.85758 26.8043C7.04369 26.9874 7.29611 27.0903 7.55931 27.0903H18.1147C18.3779 27.0903 18.6303 26.9874 18.8164 26.8043C19.0025 26.6211 19.1071 26.3727 19.1071 26.1137V25.6993C19.1273 24.8614 19.3377 24.0386 19.7227 23.2909C20.1077 22.5433 20.6577 21.8898 21.3324 21.3784C22.612 20.2297 23.6339 18.8311 24.3329 17.2717C25.032 15.7123 25.3928 14.0265 25.3922 12.3221C25.3874 10.5857 25.0129 8.86957 24.2929 7.28427C23.573 5.69897 22.5235 4.27968 21.2122 3.11792ZM11.5589 20.017L7.3488 15.8736L9.30351 13.7723L11.4086 15.844L18.4756 8.88909L20.6709 11.0496L11.5589 20.017Z" fill="url(#paint1_linear_311_879)"/>
<defs>
<linearGradient id="paint0_linear_311_879" x1="664.603" y1="340.296" x2="1585.26" y2="340.296" gradientUnits="userSpaceOnUse">
<stop stop-color="#6A82FB"/>
<stop offset="1" stop-color="#6A82FB"/>
</linearGradient>
<linearGradient id="paint1_linear_311_879" x1="1154.34" y1="1899.59" x2="2766.96" y2="1899.59" gradientUnits="userSpaceOnUse">
<stop stop-color="#6A82FB"/>
<stop offset="1" stop-color="#6A82FB"/>
</linearGradient>
</defs>
</svg>
