<svg width="232" height="248" viewBox="0 0 232 248" fill="none" xmlns="http://www.w3.org/2000/svg">
<g filter="url(#filter0_d_311_888)">
<path d="M116 215.602L24.2014 166.451L24.2014 68.1505L116 19L207.799 68.1505L207.799 166.451L116 215.602Z" fill="white"/>
<path d="M114.112 219.128L116 220.139L117.888 219.128L209.687 169.978L211.799 168.847L211.799 166.451L211.799 68.1505L211.799 65.7549L209.687 64.6241L117.888 15.4737L116 14.4628L114.112 15.4737L22.3133 64.6241L20.2014 65.7549L20.2014 68.1505L20.2014 166.451L20.2014 168.847L22.3133 169.978L114.112 219.128Z" stroke="url(#paint0_linear_311_888)" stroke-width="8"/>
</g>
<defs>
<filter id="filter0_d_311_888" x="0.201355" y="0.925507" width="231.597" height="246.751" filterUnits="userSpaceOnUse" color-interpolation-filters="sRGB">
<feFlood flood-opacity="0" result="BackgroundImageFix"/>
<feColorMatrix in="SourceAlpha" type="matrix" values="0 0 0 0 0 0 0 0 0 0 0 0 0 0 0 0 0 0 127 0" result="hardAlpha"/>
<feOffset dy="7"/>
<feGaussianBlur stdDeviation="8"/>
<feColorMatrix type="matrix" values="0 0 0 0 0 0 0 0 0 0 0 0 0 0 0 0 0 0 0.19 0"/>
<feBlend mode="normal" in2="BackgroundImageFix" result="effect1_dropShadow_311_888"/>
<feBlend mode="normal" in="SourceGraphic" in2="effect1_dropShadow_311_888" result="shape"/>
</filter>
<linearGradient id="paint0_linear_311_888" x1="1.543" y1="121.222" x2="222" y2="121.223" gradientUnits="userSpaceOnUse">
<stop stop-color="#FC5C7D"/>
<stop offset="0.496365" stop-color="#9C75D0"/>
<stop offset="1" stop-color="#6F81F7"/>
</linearGradient>
</defs>
</svg>
