<svg width="231" height="262" viewBox="0 0 231 262" fill="none" xmlns="http://www.w3.org/2000/svg">
<g filter="url(#filter0_d_311_894)">
<path d="M115.5 229L24.1343 176.5L24.1343 71.5L115.5 19L206.866 71.5L206.866 176.5L115.5 229Z" fill="white"/>
<path d="M113.507 232.468L115.5 233.613L117.493 232.468L208.859 179.968L210.866 178.815L210.866 176.5L210.866 71.5L210.866 69.1851L208.859 68.0318L117.493 15.5318L115.5 14.3867L113.507 15.5318L22.1414 68.0318L20.1343 69.1851L20.1343 71.5L20.1343 176.5L20.1343 178.815L22.1414 179.968L113.507 232.468Z" stroke="url(#paint0_linear_311_894)" stroke-width="8"/>
</g>
<defs>
<filter id="filter0_d_311_894" x="0.134277" y="0.773315" width="230.731" height="260.453" filterUnits="userSpaceOnUse" color-interpolation-filters="sRGB">
<feFlood flood-opacity="0" result="BackgroundImageFix"/>
<feColorMatrix in="SourceAlpha" type="matrix" values="0 0 0 0 0 0 0 0 0 0 0 0 0 0 0 0 0 0 127 0" result="hardAlpha"/>
<feOffset dy="7"/>
<feGaussianBlur stdDeviation="8"/>
<feColorMatrix type="matrix" values="0 0 0 0 0 0 0 0 0 0 0 0 0 0 0 0 0 0 0.19 0"/>
<feBlend mode="normal" in2="BackgroundImageFix" result="effect1_dropShadow_311_894"/>
<feBlend mode="normal" in="SourceGraphic" in2="effect1_dropShadow_311_894" result="shape"/>
</filter>
<linearGradient id="paint0_linear_311_894" x1="1.58279" y1="128.189" x2="221" y2="128.189" gradientUnits="userSpaceOnUse">
<stop stop-color="#FC5C7D"/>
<stop offset="0.496365" stop-color="#9C75D0"/>
<stop offset="1" stop-color="#6F81F7"/>
</linearGradient>
</defs>
</svg>
