<svg width="151" height="151" viewBox="0 0 151 151" fill="none" xmlns="http://www.w3.org/2000/svg">
<g clip-path="url(#clip0_336_1095)">
<path d="M148.774 110.611H142.182V101.09C142.182 100.507 141.951 99.9479 141.539 99.5358C141.127 99.1238 140.568 98.8923 139.985 98.8923H137.788V32.2419C137.788 30.4936 137.093 28.817 135.857 27.5808C134.621 26.3446 132.944 25.6501 131.196 25.6501C129.448 25.6501 127.771 26.3446 126.535 27.5808C125.299 28.817 124.604 30.4936 124.604 32.2419V98.8923H122.407C121.824 98.8923 121.265 99.1238 120.853 99.5358C120.441 99.9479 120.21 100.507 120.21 101.09V110.611H31.7331V101.09C31.7331 100.507 31.5016 99.9479 31.0896 99.5358C30.6775 99.1238 30.1186 98.8923 29.5359 98.8923H27.3386V32.2419C27.3386 30.4936 26.6441 28.817 25.4079 27.5808C24.1717 26.3446 22.495 25.6501 20.7468 25.6501C18.9985 25.6501 17.3219 26.3446 16.0857 27.5808C14.8495 28.817 14.155 30.4936 14.155 32.2419V98.8923H11.9577C11.375 98.8923 10.8161 99.1238 10.404 99.5358C9.99196 99.9479 9.76047 100.507 9.76047 101.09V110.611H3.16867C2.58592 110.611 2.02704 110.843 1.61497 111.255C1.2029 111.667 0.971405 112.226 0.971405 112.808L0.971405 139.175C0.971405 139.758 1.2029 140.317 1.61497 140.729C2.02704 141.141 2.58592 141.373 3.16867 141.373H6.39133V147.965C6.39133 148.547 6.62282 149.106 7.03489 149.518C7.44696 149.93 8.00584 150.162 8.58859 150.162H143.354C143.937 150.162 144.496 149.93 144.908 149.518C145.32 149.106 145.551 148.547 145.551 147.965V141.373H148.774C149.357 141.373 149.916 141.141 150.328 140.729C150.74 140.317 150.971 139.758 150.971 139.175V112.808C150.971 112.226 150.74 111.667 150.328 111.255C149.916 110.843 149.357 110.611 148.774 110.611ZM128.999 32.2419C128.999 31.6591 129.23 31.1002 129.642 30.6882C130.054 30.2761 130.613 30.0446 131.196 30.0446C131.779 30.0446 132.338 30.2761 132.75 30.6882C133.162 31.1002 133.393 31.6591 133.393 32.2419V98.8923H128.999V32.2419ZM124.604 103.287H137.788V110.611H124.604V103.287ZM18.5495 32.2419C18.5495 31.6591 18.781 31.1002 19.1931 30.6882C19.6052 30.2761 20.164 30.0446 20.7468 30.0446C21.3295 30.0446 21.8884 30.2761 22.3005 30.6882C22.7126 31.1002 22.9441 31.6591 22.9441 32.2419V98.8923H18.5495V32.2419ZM14.155 103.287H27.3386V110.611H14.155V103.287ZM141.157 145.767H10.7859V141.373H141.157V145.767ZM146.577 136.978H5.36594V115.006H146.577V136.978Z" fill="black"/>
<path d="M11.9577 132.584H76.4109C76.9936 132.584 77.5525 132.352 77.9646 131.94C78.3766 131.528 78.6081 130.969 78.6081 130.386V121.597C78.6081 121.015 78.3766 120.456 77.9646 120.044C77.5525 119.632 76.9936 119.4 76.4109 119.4H11.9577C11.375 119.4 10.8161 119.632 10.404 120.044C9.99196 120.456 9.76047 121.015 9.76047 121.597V130.386C9.76047 130.969 9.99196 131.528 10.404 131.94C10.8161 132.352 11.375 132.584 11.9577 132.584ZM14.155 123.795H74.2136V128.189H14.155V123.795Z" fill="black"/>
<path d="M122.407 132.584H139.985C140.568 132.584 141.127 132.352 141.539 131.94C141.951 131.528 142.182 130.969 142.182 130.386V121.597C142.182 121.015 141.951 120.456 141.539 120.044C141.127 119.632 140.568 119.4 139.985 119.4H122.407C121.824 119.4 121.265 119.632 120.853 120.044C120.441 120.456 120.21 121.015 120.21 121.597V130.386C120.21 130.969 120.441 131.528 120.853 131.94C121.265 132.352 121.824 132.584 122.407 132.584ZM124.604 123.795H137.788V128.189H124.604V123.795Z" fill="black"/>
<path d="M93.1101 132.584H110.688C111.271 132.584 111.83 132.352 112.242 131.94C112.654 131.528 112.885 130.969 112.885 130.386V121.597C112.885 121.015 112.654 120.456 112.242 120.044C111.83 119.632 111.271 119.4 110.688 119.4H93.1101C92.5273 119.4 91.9684 119.632 91.5564 120.044C91.1443 120.456 90.9128 121.015 90.9128 121.597V130.386C90.9128 130.969 91.1443 131.528 91.5564 131.94C91.9684 132.352 92.5273 132.584 93.1101 132.584ZM95.3073 123.795H108.491V128.189H95.3073V123.795Z" fill="black"/>
<path d="M52.5339 41.1774C51.9512 41.1774 51.3923 41.4089 50.9802 41.821C50.5681 42.2331 50.3366 42.7919 50.3366 43.3747V72.6716C50.3366 73.2543 50.5681 73.8132 50.9802 74.2253C51.3923 74.6373 51.9512 74.8688 52.5339 74.8688H99.4089C99.9917 74.8688 100.551 74.6373 100.963 74.2253C101.375 73.8132 101.606 73.2543 101.606 72.6716V43.3747C101.606 42.7919 101.375 42.2331 100.963 41.821C100.551 41.4089 99.9917 41.1774 99.4089 41.1774H92.8171V28.7263C92.8171 24.2585 91.0423 19.9737 87.8831 16.8145C84.7239 13.6554 80.4392 11.8806 75.9714 11.8806C71.5036 11.8806 67.2189 13.6554 64.0597 16.8145C60.9005 19.9737 59.1257 24.2585 59.1257 28.7263V41.1774H52.5339ZM97.2116 70.4743H54.7312V45.572H97.2116V70.4743ZM63.5202 28.7263C63.5202 25.424 64.8321 22.257 67.1671 19.9219C69.5021 17.5869 72.6691 16.2751 75.9714 16.2751C79.2737 16.2751 82.4407 17.5869 84.7757 19.9219C87.1108 22.257 88.4226 25.424 88.4226 28.7263V41.1774H63.5202V28.7263Z" fill="black"/>
<path d="M97.6511 4.55633C99.5311 4.5076 101.401 4.84197 103.148 5.53908C104.895 6.23619 106.481 7.28147 107.811 8.61128C109.141 9.94109 110.186 11.5276 110.883 13.2743C111.58 15.0209 111.915 16.8912 111.866 18.7712C111.861 19.0597 111.913 19.3465 112.019 19.615C112.124 19.8835 112.282 20.1285 112.482 20.3361C112.683 20.5437 112.922 20.7098 113.187 20.8248C113.452 20.9398 113.737 21.0016 114.025 21.0065H114.057C114.634 21.0066 115.188 20.7799 115.599 20.3754C116.01 19.9709 116.245 19.4211 116.255 18.8444C116.312 16.3749 115.868 13.9194 114.95 11.6264C114.031 9.33346 112.657 7.2507 110.91 5.50417C109.163 3.75765 107.08 2.38368 104.787 1.46541C102.494 0.547142 100.039 0.103658 97.5691 0.161797C96.9863 0.172675 96.4317 0.414605 96.0274 0.834364C95.623 1.25412 95.4019 1.81733 95.4128 2.40008C95.4237 2.98283 95.6656 3.53739 96.0854 3.94177C96.5051 4.34614 97.0683 4.56721 97.6511 4.55633Z" fill="black"/>
<path d="M96.6843 12.7243C98.7937 12.528 100.672 13.1374 101.975 14.4411C103.279 15.7448 103.888 17.6257 103.692 19.7321C103.664 20.02 103.693 20.3106 103.777 20.5874C103.861 20.8641 103.999 21.1214 104.183 21.3446C104.367 21.5678 104.594 21.7525 104.849 21.888C105.105 22.0236 105.385 22.1073 105.673 22.1345H105.881C106.428 22.1346 106.955 21.9304 107.359 21.5618C107.764 21.1933 108.016 20.687 108.066 20.1423C108.388 16.7087 107.328 13.5798 105.084 11.3327C102.84 9.08565 99.7019 8.02803 96.2741 8.36494C95.9818 8.38515 95.6964 8.46364 95.4348 8.5958C95.1732 8.72796 94.9407 8.91112 94.751 9.13449C94.5612 9.35787 94.4181 9.61694 94.33 9.89647C94.2419 10.176 94.2106 10.4703 94.238 10.7621C94.2653 11.0539 94.3508 11.3373 94.4893 11.5956C94.6278 11.8538 94.8166 12.0818 95.0446 12.266C95.2725 12.4502 95.5351 12.5869 95.8167 12.6682C96.0983 12.7494 96.3933 12.7735 96.6843 12.739V12.7243Z" fill="black"/>
<path d="M37.8855 21.0094H37.9236C38.2121 21.0045 38.4969 20.9427 38.7616 20.8277C39.0263 20.7127 39.2657 20.5466 39.4662 20.339C39.6667 20.1315 39.8244 19.8864 39.9301 19.6179C40.0359 19.3494 40.0878 19.0627 40.0827 18.7741C40.0336 16.8944 40.3675 15.0243 41.0641 13.2777C41.7607 11.5311 42.8054 9.94449 44.1346 8.61445C45.4638 7.28441 47.0497 6.23874 48.7959 5.54109C50.5421 4.84344 52.4119 4.50838 54.2917 4.55632C54.5803 4.56113 54.8669 4.50906 55.1354 4.40308C55.4038 4.2971 55.6487 4.13929 55.8561 3.93865C56.0636 3.73802 56.2295 3.49849 56.3443 3.23375C56.4592 2.969 56.5208 2.68423 56.5256 2.39568C56.5304 2.10713 56.4783 1.82046 56.3724 1.55203C56.2664 1.28361 56.1086 1.03868 55.9079 0.831249C55.7073 0.623813 55.4678 0.457927 55.203 0.343061C54.9383 0.228195 54.6535 0.166599 54.365 0.16179C51.8957 0.104053 49.4405 0.547835 47.1477 1.46629C44.8549 2.38474 42.7723 3.75877 41.0258 5.50525C39.2793 7.25173 37.9053 9.33436 36.9868 11.6271C36.0684 13.9199 35.6246 16.3752 35.6823 18.8444C35.6908 19.4226 35.9269 19.9741 36.3393 20.3794C36.7517 20.7847 37.3072 21.0111 37.8855 21.0094Z" fill="black"/>
<path d="M46.8591 11.3327C44.6238 13.5798 43.5544 16.7087 43.8767 20.1423C43.9271 20.687 44.1791 21.1933 44.5834 21.5618C44.9878 21.9304 45.5152 22.1346 46.0622 22.1344H46.2702C46.8502 22.0795 47.3846 21.7965 47.756 21.3477C48.1274 20.8989 48.3053 20.3209 48.2507 19.7409C48.0544 17.6345 48.6638 15.7536 49.9675 14.4499C51.2712 13.1462 53.1521 12.5368 55.2585 12.7331C55.5542 12.778 55.856 12.762 56.1453 12.6862C56.4347 12.6104 56.7055 12.4763 56.9412 12.2922C57.1769 12.108 57.3725 11.8777 57.516 11.6153C57.6596 11.3529 57.748 11.0639 57.776 10.7661C57.804 10.4683 57.7708 10.168 57.6786 9.88343C57.5864 9.59889 57.4371 9.33617 57.2398 9.11136C57.0425 8.88656 56.8014 8.7044 56.5313 8.57605C56.2611 8.44769 55.9676 8.37585 55.6687 8.36492C52.2409 8.02801 49.1062 9.08855 46.8591 11.3327Z" fill="black"/>
<path d="M74.5066 64.6149H77.4362C79.1845 64.6149 80.8612 63.9204 82.0974 62.6842C83.3336 61.448 84.028 59.7714 84.028 58.0231C84.028 56.2749 83.3336 54.5982 82.0974 53.362C80.8612 52.1258 79.1845 51.4313 77.4362 51.4313H74.5066C72.7583 51.4313 71.0817 52.1258 69.8455 53.362C68.6093 54.5982 67.9148 56.2749 67.9148 58.0231C67.9148 59.7714 68.6093 61.448 69.8455 62.6842C71.0817 63.9204 72.7583 64.6149 74.5066 64.6149ZM74.5066 55.8259H77.4362C78.019 55.8259 78.5779 56.0574 78.99 56.4694C79.402 56.8815 79.6335 57.4404 79.6335 58.0231C79.6335 58.6059 79.402 59.1648 78.99 59.5768C78.5779 59.9889 78.019 60.2204 77.4362 60.2204H74.5066C73.9238 60.2204 73.3649 59.9889 72.9529 59.5768C72.5408 59.1648 72.3093 58.6059 72.3093 58.0231C72.3093 57.4404 72.5408 56.8815 72.9529 56.4694C73.3649 56.0574 73.9238 55.8259 74.5066 55.8259Z" fill="black"/>
</g>
<defs>
<clipPath id="clip0_336_1095">
<rect width="150" height="150" fill="white" transform="translate(0.971405 0.161804)"/>
</clipPath>
</defs>
</svg>
