<svg width="43" height="42" viewBox="0 0 43 42" fill="none" xmlns="http://www.w3.org/2000/svg">
<path fill-rule="evenodd" clip-rule="evenodd" d="M20.2153 9.23513C18.8688 8.89981 17.871 7.68251 17.871 6.23216C17.871 4.5231 19.2565 3.13763 20.9655 3.13763C22.6746 3.13763 24.0601 4.5231 24.0601 6.23216C24.0601 7.68267 23.0621 8.90009 21.7153 9.23524V11.7459C21.7153 11.7567 21.7151 11.7676 21.7146 11.7783C24.6295 12.0643 26.9995 14.2072 27.6257 17.0084L31.757 12.8771C31.7799 12.8542 31.804 12.8331 31.8289 12.8137C31.3848 12.184 31.1239 11.4158 31.1239 10.5866C31.1239 8.45027 32.8557 6.71844 34.992 6.71844C37.1283 6.71844 38.8602 8.45027 38.8602 10.5866C38.8602 12.7229 37.1283 14.4548 34.992 14.4548C34.2211 14.4548 33.5029 14.2293 32.8997 13.8406C32.8755 13.8747 32.8482 13.9072 32.8176 13.9378L28.9683 17.7871C31.6835 18.0851 33.7959 20.3862 33.7959 23.1808C33.7959 25.4043 32.4586 27.3155 30.5443 28.1538L32.8176 30.4271C32.8482 30.4577 32.8756 30.4903 32.8999 30.5244C33.503 30.1358 34.2212 29.9104 34.992 29.9104C37.1283 29.9104 38.8602 31.6422 38.8602 33.7785C38.8602 35.9149 37.1283 37.6467 34.992 37.6467C32.8557 37.6467 31.1239 35.9149 31.1239 33.7785C31.1239 32.9493 31.3848 32.181 31.8291 31.5512C31.804 31.5319 31.7799 31.5107 31.757 31.4877L28.8583 28.5891L28.855 28.5857C28.7555 28.5945 28.6552 28.6007 28.5542 28.604V28.6072H21.7153V30.5695C23.0621 30.9046 24.0601 32.122 24.0601 33.5725C24.0601 35.2816 22.6746 36.6671 20.9655 36.6671C19.2565 36.6671 17.871 35.2816 17.871 33.5725C17.871 32.1222 18.8688 30.9049 20.2153 30.5696V28.6072H15.1412C15.1049 28.7063 15.0469 28.7992 14.9674 28.8787L10.9347 32.9115C11.3197 33.5127 11.5428 34.2275 11.5428 34.9944C11.5428 37.1308 9.81101 38.8626 7.67468 38.8626C5.53835 38.8626 3.80652 37.1308 3.80652 34.9944C3.80652 32.8581 5.53835 31.1263 7.67468 31.1263C8.50172 31.1263 9.26813 31.3858 9.89691 31.8279L13.1326 28.5922C9.72948 28.3635 7.03987 25.5306 7.03987 22.0694C7.03987 18.6794 9.62007 15.8921 12.9237 15.564L9.89675 12.5371C9.268 12.9791 8.50165 13.2386 7.67468 13.2386C5.53835 13.2386 3.80652 11.5067 3.80652 9.37042C3.80652 7.23409 5.53835 5.50226 7.67468 5.50226C9.81101 5.50226 11.5428 7.23409 11.5428 9.37042C11.5428 10.1374 11.3196 10.8523 10.9346 11.4536L14.9674 15.4864C14.9774 15.4964 14.9871 15.5066 14.9964 15.5171C15.9777 13.52 17.9182 12.0796 20.217 11.7967C20.2159 11.7799 20.2153 11.7629 20.2153 11.7459V9.23513ZM20.9655 7.82669C20.0849 7.82669 19.371 7.1128 19.371 6.23216C19.371 5.35153 20.0849 4.63763 20.9655 4.63763C21.8462 4.63763 22.5601 5.35153 22.5601 6.23216C22.5601 7.1128 21.8462 7.82669 20.9655 7.82669ZM13.2924 27.0992L13.4369 27.1072H28.4341L28.5041 27.1049C30.6098 27.0345 32.2959 25.3042 32.2959 23.1808C32.2959 21.0123 30.5381 19.2544 28.3696 19.2544C28.2174 19.2544 28.0679 19.263 27.9212 19.2796L26.4151 19.4501L26.2603 17.9423C25.9897 15.3045 23.7586 13.2458 21.0486 13.2458C18.9385 13.2458 17.1165 14.4934 16.286 16.2976L15.7862 17.3835L14.6162 17.1386C14.2823 17.0688 13.935 17.0318 13.5775 17.0318C10.7953 17.0318 8.53987 19.2872 8.53987 22.0694C8.53987 24.7559 10.6435 26.9521 13.2924 27.0992ZM7.67468 11.7386C6.36678 11.7386 5.30652 10.6783 5.30652 9.37042C5.30652 8.06252 6.36678 7.00226 7.67468 7.00226C8.98258 7.00226 10.0428 8.06252 10.0428 9.37042C10.0428 10.6783 8.98258 11.7386 7.67468 11.7386ZM32.6239 10.5866C32.6239 11.8945 33.6841 12.9548 34.992 12.9548C36.2999 12.9548 37.3602 11.8945 37.3602 10.5866C37.3602 9.2787 36.2999 8.21844 34.992 8.21844C33.6841 8.21844 32.6239 9.2787 32.6239 10.5866ZM20.9655 31.978C20.0849 31.978 19.371 32.6919 19.371 33.5725C19.371 34.4532 20.0849 35.1671 20.9655 35.1671C21.8462 35.1671 22.5601 34.4532 22.5601 33.5725C22.5601 32.6919 21.8462 31.978 20.9655 31.978ZM7.67468 32.6263C6.36678 32.6263 5.30652 33.6865 5.30652 34.9944C5.30652 36.3023 6.36678 37.3626 7.67468 37.3626C8.98258 37.3626 10.0428 36.3023 10.0428 34.9944C10.0428 33.6865 8.98258 32.6263 7.67468 32.6263ZM32.6239 33.7785C32.6239 32.4706 33.6841 31.4104 34.992 31.4104C36.2999 31.4104 37.3602 32.4706 37.3602 33.7785C37.3602 35.0864 36.2999 36.1467 34.992 36.1467C33.6841 36.1467 32.6239 35.0864 32.6239 33.7785Z" fill="white"/>
</svg>
