<svg width="151" height="151" viewBox="0 0 151 151" fill="none" xmlns="http://www.w3.org/2000/svg">
<g clip-path="url(#clip0_336_1112)">
<path d="M149.153 46.177L113.997 30.553C113.716 30.4269 113.412 30.3617 113.104 30.3617C112.796 30.3617 112.491 30.4269 112.21 30.553L104.461 33.9954V23.7708C104.461 23.188 104.23 22.6291 103.817 22.2171C103.405 21.805 102.847 21.5735 102.264 21.5735H2.65439C2.07164 21.5735 1.51275 21.805 1.10069 22.2171C0.68862 22.6291 0.457123 23.188 0.457123 23.7708L0.457123 50.1379C0.457123 50.7207 0.68862 51.2796 1.10069 51.6916C1.51275 52.1037 2.07164 52.3352 2.65439 52.3352H6.3165V59.6594H2.65439C2.07164 59.6594 1.51275 59.8909 1.10069 60.303C0.68862 60.7151 0.457123 61.2739 0.457123 61.8567L0.457123 88.2239C0.457123 88.8066 0.68862 89.3655 1.10069 89.7776C1.51275 90.1897 2.07164 90.4211 2.65439 90.4211H6.3165V97.7454H2.65439C2.07164 97.7454 1.51275 97.9769 1.10069 98.3889C0.68862 98.801 0.457123 99.3599 0.457123 99.9426L0.457123 126.31C0.457123 126.893 0.68862 127.451 1.10069 127.864C1.51275 128.276 2.07164 128.507 2.65439 128.507H102.264C102.847 128.507 103.405 128.276 103.817 127.864C104.23 127.451 104.461 126.893 104.461 126.31V124.183C106.942 125.745 109.531 127.126 112.21 128.317C112.491 128.442 112.796 128.507 113.104 128.507C113.412 128.507 113.716 128.442 113.997 128.317C124.846 123.488 134.062 115.619 140.533 105.663C147.004 95.7059 150.451 84.0877 150.457 72.2131V48.1897C150.458 47.7641 150.335 47.3474 150.104 46.9901C149.872 46.6329 149.542 46.3504 149.153 46.177ZM4.85165 34.6838H41.4727V39.0784H4.85165V34.6838ZM4.85165 43.4729H43.67C44.2528 43.4729 44.8116 43.2414 45.2237 42.8293C45.6358 42.4173 45.8673 41.8584 45.8673 41.2756V32.4866C45.8673 31.9038 45.6358 31.3449 45.2237 30.9329C44.8116 30.5208 44.2528 30.2893 43.67 30.2893H4.85165V25.968H100.066V35.9495L77.0538 46.177C76.705 46.3327 76.4028 46.5768 76.1772 46.8851C75.9517 47.1934 75.8105 47.5552 75.7677 47.9348H4.85165V43.4729ZM10.711 52.3352H75.7501V59.6594H10.711V52.3352ZM4.85165 72.7698H41.4727V77.1643H4.85165V72.7698ZM4.85165 81.5588H43.67C44.2528 81.5588 44.8116 81.3273 45.2237 80.9153C45.6358 80.5032 45.8673 79.9443 45.8673 79.3616V70.5725C45.8673 69.9898 45.6358 69.4309 45.2237 69.0188C44.8116 68.6067 44.2528 68.3752 43.67 68.3752H4.85165V64.054H75.7501V72.2131C75.7507 76.8626 76.2805 81.4969 77.3292 86.0266H4.85165V81.5588ZM10.711 90.4211H78.5186C79.2961 92.9198 80.2326 95.3662 81.3224 97.7454H10.711V90.4211ZM4.85165 110.856H41.4727V115.25H4.85165V110.856ZM100.066 124.113H4.85165V119.645H43.67C44.2528 119.645 44.8116 119.413 45.2237 119.001C45.6358 118.589 45.8673 118.03 45.8673 117.448V108.658C45.8673 108.076 45.6358 107.517 45.2237 107.105C44.8116 106.693 44.2528 106.461 43.67 106.461H4.85165V102.14H83.5518C87.6861 109.546 93.309 116.016 100.066 121.142V124.113ZM146.063 72.2131C146.057 83.0712 142.952 93.7021 137.114 102.857C131.276 112.012 122.946 119.311 113.104 123.896C103.261 119.311 94.9315 112.012 89.0932 102.857C83.255 93.7021 80.1506 83.0712 80.1446 72.2131V49.6135L113.104 34.9651L146.063 49.6135V72.2131Z" fill="black"/>
<path d="M69.1583 30.4358H57.4395C56.8568 30.4358 56.2979 30.6673 55.8858 31.0794C55.4738 31.4914 55.2423 32.0503 55.2423 32.6331V41.4221C55.2423 42.0049 55.4738 42.5638 55.8858 42.9758C56.2979 43.3879 56.8568 43.6194 57.4395 43.6194H69.1583C69.741 43.6194 70.2999 43.3879 70.712 42.9758C71.1241 42.5638 71.3556 42.0049 71.3556 41.4221V32.6331C71.3556 32.0503 71.1241 31.4914 70.712 31.0794C70.2999 30.6673 69.741 30.4358 69.1583 30.4358ZM66.961 39.2249H59.6368V34.8303H66.961V39.2249Z" fill="black"/>
<path d="M69.1583 68.5217H57.4395C56.8568 68.5217 56.2979 68.7532 55.8858 69.1653C55.4738 69.5774 55.2423 70.1362 55.2423 70.719V79.5081C55.2423 80.0908 55.4738 80.6497 55.8858 81.0618C56.2979 81.4738 56.8568 81.7053 57.4395 81.7053H69.1583C69.741 81.7053 70.2999 81.4738 70.712 81.0618C71.1241 80.6497 71.3556 80.0908 71.3556 79.5081V70.719C71.3556 70.1362 71.1241 69.5774 70.712 69.1653C70.2999 68.7532 69.741 68.5217 69.1583 68.5217ZM66.961 77.3108H59.6368V72.9163H66.961V77.3108Z" fill="black"/>
<path d="M69.1583 106.608H57.4395C56.8568 106.608 56.2979 106.839 55.8858 107.251C55.4738 107.663 55.2423 108.222 55.2423 108.805V117.594C55.2423 118.177 55.4738 118.736 55.8858 119.148C56.2979 119.56 56.8568 119.791 57.4395 119.791H69.1583C69.741 119.791 70.2999 119.56 70.712 119.148C71.1241 118.736 71.3556 118.177 71.3556 117.594V108.805C71.3556 108.222 71.1241 107.663 70.712 107.251C70.2999 106.839 69.741 106.608 69.1583 106.608ZM66.961 115.397H59.6368V111.002H66.961V115.397Z" fill="black"/>
<path d="M90.3985 79.4348C90.3985 83.9255 91.7302 88.3153 94.225 92.0491C96.7199 95.7829 100.266 98.6931 104.415 100.412C108.564 102.13 113.129 102.58 117.533 101.704C121.938 100.828 125.983 98.6651 129.159 95.4897C132.334 92.3144 134.496 88.2687 135.372 83.8644C136.248 79.46 135.799 74.8948 134.08 70.746C132.362 66.5971 129.452 63.0511 125.718 60.5562C121.984 58.0614 117.594 56.7297 113.104 56.7297C107.084 56.7367 101.313 59.1311 97.0564 63.3876C92.7999 67.6441 90.4055 73.4152 90.3985 79.4348ZM131.414 79.4348C131.414 83.0563 130.34 86.5965 128.328 89.6076C126.316 92.6188 123.457 94.9657 120.111 96.3516C116.765 97.7374 113.083 98.1 109.531 97.3935C105.979 96.687 102.717 94.9431 100.156 92.3823C97.5953 89.8216 95.8514 86.5589 95.1449 83.007C94.4384 79.4551 94.801 75.7735 96.1869 72.4277C97.5728 69.0819 99.9197 66.2221 102.931 64.2101C105.942 62.1982 109.482 61.1243 113.104 61.1243C117.958 61.1297 122.612 63.0606 126.045 66.4933C129.478 69.926 131.409 74.5802 131.414 79.4348Z" fill="black"/>
<path d="M105.879 78.9249C105.47 78.51 104.912 78.2748 104.329 78.2709C103.746 78.2671 103.186 78.495 102.771 78.9044C102.356 79.3139 102.12 79.8715 102.117 80.4544C102.113 81.0373 102.341 81.5979 102.75 82.0128L107.93 87.257C108.134 87.4638 108.378 87.628 108.646 87.7401C108.914 87.8522 109.202 87.9099 109.493 87.9099C109.784 87.9099 110.071 87.8522 110.34 87.7401C110.608 87.628 110.851 87.4638 111.056 87.257L123.457 74.7003C123.867 74.2854 124.094 73.7248 124.091 73.1419C124.087 72.559 123.852 72.0014 123.437 71.5919C123.022 71.1825 122.461 70.9546 121.878 70.9584C121.295 70.9623 120.738 71.1975 120.328 71.6124L109.488 82.5841L105.879 78.9249Z" fill="black"/>
</g>
<defs>
<clipPath id="clip0_336_1112">
<rect width="150" height="150" fill="white" transform="translate(0.457123 0.0402222)"/>
</clipPath>
</defs>
</svg>
