<svg width="156" height="156" viewBox="0 0 156 156" fill="none" xmlns="http://www.w3.org/2000/svg">
<path d="M112.706 0.00759065C103.854 0.867266 95.5478 4.68081 89.1213 10.8356C82.6949 16.9903 78.5216 25.129 77.2718 33.9441C77.2718 34.0919 77.2718 34.2693 77.2718 34.4171C76.8023 38.6736 74.6831 42.5756 71.37 45.2843C68.0569 47.993 63.8144 49.2921 59.5546 48.9022C56.2259 48.5761 52.8732 48.5761 49.5444 48.9022C38.8986 49.7045 28.7351 53.6731 20.3582 60.2988C11.9813 66.9245 5.77323 75.905 2.53059 86.0879C-0.712055 96.2707 -0.841282 107.191 2.1595 117.448C5.16027 127.705 11.1541 136.83 19.3719 143.653C27.5897 150.475 37.6564 154.684 48.2802 155.738C58.9041 156.793 69.6003 154.645 78.9962 149.571C88.3922 144.497 96.0592 136.727 101.013 127.26C105.967 117.793 107.983 107.059 106.8 96.4371C106.411 92.1726 107.709 87.9253 110.414 84.6086C113.12 81.2918 117.018 79.1703 121.27 78.7002H121.742C131.999 77.33 141.309 71.983 147.667 63.81C154.026 55.637 156.925 45.2915 155.74 35.0001C154.556 24.7088 149.383 15.2943 141.335 8.78303C133.286 2.27174 123.006 -0.815787 112.706 0.184963V0.00759065Z" fill="url(#paint0_linear_311_856)"/>
<defs>
<linearGradient id="paint0_linear_311_856" x1="7194.72" y1="10949.6" x2="17248.9" y2="10949.6" gradientUnits="userSpaceOnUse">
<stop stop-color="#FC5C7D"/>
<stop offset="1" stop-color="#6A82FB"/>
</linearGradient>
</defs>
</svg>
