<svg width="194" height="189" viewBox="0 0 194 189" fill="none" xmlns="http://www.w3.org/2000/svg">
<path d="M194 94.3827C194.024 113.078 188.355 131.36 177.711 146.916C167.067 162.472 151.926 174.602 134.204 181.773C116.481 188.943 96.9742 190.831 78.1501 187.198C59.326 183.565 42.031 174.574 28.4533 161.363C14.8756 148.152 5.62523 131.314 1.8727 112.979C-1.87984 94.6448 0.0340484 75.638 7.3722 58.3635C14.7103 41.0891 27.143 26.3233 43.0972 15.9343C59.0513 5.54531 77.81 1.4398e-05 96.9999 0V94.2361L194 94.3827Z" fill="url(#paint0_linear_311_853)"/>
<defs>
<linearGradient id="paint0_linear_311_853" x1="8947.28" y1="13265.9" x2="21450.6" y2="13265.9" gradientUnits="userSpaceOnUse">
<stop stop-color="#FC5C7D"/>
<stop offset="1" stop-color="#6A82FB"/>
</linearGradient>
</defs>
</svg>
