<svg width="159" height="157" viewBox="0 0 159 157" fill="none" xmlns="http://www.w3.org/2000/svg">
<path d="M114.156 0.274391C105.177 1.13869 96.7515 4.97272 90.233 11.1606C83.7146 17.3484 79.4815 25.5308 78.2138 34.3933C78.2138 34.3933 78.2138 34.7202 78.2138 34.8688C77.7302 39.145 75.5787 43.0634 72.22 45.7852C68.8612 48.507 64.5621 49.8159 60.2429 49.4318C49.0548 48.2237 37.7647 50.4909 27.9304 55.9206C18.0961 61.3503 10.2024 69.6749 5.33877 79.7454C0.475091 89.816 -1.11888 101.136 0.776816 112.144C2.67251 123.152 7.96442 133.304 15.9223 141.201C23.8802 149.097 34.1117 154.348 45.2051 156.229C56.2984 158.11 67.7066 156.529 77.8555 151.702C88.0044 146.876 96.3937 139.044 101.866 129.285C107.338 119.527 109.622 108.324 108.405 97.2221C108.01 92.9346 109.326 88.6646 112.071 85.33C114.815 81.9954 118.769 79.8625 123.081 79.3899H123.56C134.133 78.1524 143.778 72.7978 150.372 64.5043C156.967 56.2107 159.971 45.6574 158.723 35.166C157.476 24.6747 152.08 15.1046 143.722 8.56117C135.364 2.01771 124.729 -0.963133 114.156 0.274391Z" fill="url(#paint0_linear_311_863)"/>
<defs>
<linearGradient id="paint0_linear_311_863" x1="7333.08" y1="11019.8" x2="17580.6" y2="11019.8" gradientUnits="userSpaceOnUse">
<stop stop-color="#B86EB9"/>
<stop offset="1" stop-color="#6A82FB"/>
</linearGradient>
</defs>
</svg>
