<svg width="157" height="158" viewBox="0 0 157 158" fill="none" xmlns="http://www.w3.org/2000/svg">
<path d="M113.212 0.00770455C104.305 0.87385 95.9468 4.73717 89.4813 10.976C83.0158 17.2148 78.8193 25.4662 77.5671 34.4024C77.5671 34.5522 77.5671 34.702 77.5671 34.8817C77.0875 39.1925 74.9538 43.1425 71.6228 45.8863C68.2918 48.6302 64.0283 49.9496 59.7448 49.5624C48.6492 48.3445 37.4524 50.6301 27.6994 56.1037C17.9464 61.5773 10.1181 69.9691 5.29462 80.1211C0.471162 90.273 -1.10963 101.685 0.770393 112.781C2.65041 123.878 7.89856 134.113 15.7906 142.073C23.6827 150.033 33.8297 155.327 44.8313 157.223C55.8329 159.119 67.1468 157.525 77.2118 152.66C87.2768 147.794 95.5966 139.898 101.023 130.061C106.45 120.224 108.716 108.93 107.509 97.7389C107.125 93.4184 108.433 89.1181 111.153 85.7583C113.873 82.3986 117.79 80.2464 122.063 79.7626H122.539C132.857 78.3739 142.222 72.9547 148.618 64.6714C155.014 56.3881 157.93 45.9029 156.739 35.4726C155.548 25.0423 150.344 15.5008 142.248 8.90159C134.151 2.30241 123.81 -0.826799 113.449 0.18746L113.212 0.00770455Z" fill="url(#paint0_linear_311_872)"/>
<defs>
<linearGradient id="paint0_linear_311_872" x1="7240.84" y1="11090" x2="17359.5" y2="11090" gradientUnits="userSpaceOnUse">
<stop stop-color="#6A82FB"/>
<stop offset="1" stop-color="#6A82FB"/>
</linearGradient>
</defs>
</svg>
